<svg xmlns="http://www.w3.org/2000/svg" width="28.428" height="28.428" viewBox="0 0 28.428 28.428">
  <path id="Icon_ionic-md-locate" data-name="Icon ionic-md-locate" d="M16.464,11.387a5.076,5.076,0,1,0,5.076,5.076A5.091,5.091,0,0,0,16.464,11.387ZM28.58,15.11A12.229,12.229,0,0,0,17.818,4.348V2.25H15.11v2.1A12.229,12.229,0,0,0,4.348,15.11H2.25v2.707h2.1A12.23,12.23,0,0,0,15.11,28.58v2.1h2.707v-2.1A12.23,12.23,0,0,0,28.58,17.818h2.1V15.11ZM16.464,25.94a9.476,9.476,0,1,1,9.476-9.476A9.5,9.5,0,0,1,16.464,25.94Z" transform="translate(-2.25 -2.25)" fill="#fff"/>
</svg>
