<svg xmlns="http://www.w3.org/2000/svg" width="15.302" height="13.911" viewBox="0 0 15.302 13.911">
  <g id="booking" transform="translate(-9 -8.5)">
    <path id="Path_1558" data-name="Path 1558" d="M12.155,15.5H3.147a3.047,3.047,0,1,0,0,6.09H5.438v2.46l-.112-.091a1.493,1.493,0,0,0-1.929.082,1.192,1.192,0,0,0,.082,1.813l1.959,1.591v1.533a.441.441,0,0,0,.448.434h5.38a.441.441,0,0,0,.448-.434V24.1a1.319,1.319,0,0,0-1.179-1.291l-2.408-.29V21.59h4.028a3.047,3.047,0,1,0,0-6.09ZM6.334,28.544v-.868h4.483v.868Zm4.09-4.872a.44.44,0,0,1,.393.43v2.706H6.049L4.055,25.189a.344.344,0,0,1-.024-.535.571.571,0,0,1,.719-.03l.848.689a.45.45,0,0,0,.736-.332V19.433a.449.449,0,0,1,.9,0V22.9a.439.439,0,0,0,.393.431Zm1.731-2.95H8.128V19.433a1.346,1.346,0,0,0-2.69,0v1.289H3.147a2.179,2.179,0,1,1,0-4.355h9.008a2.179,2.179,0,1,1,0,4.355Z" transform="translate(9 -7)" fill="#707070"/>
    <path id="Path_1559" data-name="Path 1559" d="M304.134,75.65l-1.692,1.692-.664-.664a.514.514,0,0,0-.727.727l1.028,1.028a.514.514,0,0,0,.727,0l2.056-2.056a.514.514,0,1,0-.727-.727Z" transform="translate(-283.31 -64.944)" fill="#707070"/>
  </g>
</svg>
