<svg xmlns="http://www.w3.org/2000/svg" xmlns:xlink="http://www.w3.org/1999/xlink" width="250.133" height="250.133" viewBox="0 0 250.133 250.133">
  <defs>
    <linearGradient id="linear-gradient" y1="0.5" x2="1" y2="0.5" gradientUnits="objectBoundingBox">
      <stop offset="0" stop-color="#33f16d"/>
      <stop offset="0.46" stop-color="#2cdf62"/>
      <stop offset="1" stop-color="#0b912f"/>
    </linearGradient>
  </defs>
  <path id="check-mark" d="M180.352,85.382a9.77,9.77,0,0,1,0,13.818L114.8,164.751a9.773,9.773,0,0,1-13.818,0l-31.2-31.206A9.77,9.77,0,0,1,83.6,119.729l24.3,24.3,58.64-58.642A9.773,9.773,0,0,1,180.352,85.382Zm69.781,39.684A125.066,125.066,0,1,1,125.066,0,125,125,0,0,1,250.133,125.066Zm-19.542,0A105.525,105.525,0,1,0,125.066,230.591,105.467,105.467,0,0,0,230.591,125.066Zm0,0" fill="url(#linear-gradient)"/>
</svg>
