<svg xmlns="http://www.w3.org/2000/svg" width="192.072" height="179.943" viewBox="0 0 192.072 179.943">
  <g id="wishlist_empty_2_" data-name="wishlist empty (2)" transform="translate(18.477 22.899)">
    <ellipse id="Ellipse_124" data-name="Ellipse 124" cx="9.474" cy="9.474" rx="9.474" ry="9.474" transform="translate(38.112 23.524)" fill="#c7c7c7"/>
    <path id="Path_1623" data-name="Path 1623" d="M218,258.513a19.256,19.256,0,1,1,38.508,0" transform="translate(-160.941 -168.689)" fill="none" stroke="#c7c7c7" stroke-linecap="round" stroke-width="8"/>
    <ellipse id="Ellipse_125" data-name="Ellipse 125" cx="8.863" cy="8.863" rx="8.863" ry="8.863" transform="translate(96.791 24.136)" fill="#c7c7c7"/>
    <g id="Path_1644" data-name="Path 1644" transform="translate(-6.498 -10.899)" fill="none" stroke-linecap="round">
      <path d="M84.056,153.445c-45.2-30.638-68.9-58.51-78.622-81.838C-20.608,9.093,53.778-20.8,84.056,16.1c30.278-36.9,104.664-7.007,78.622,55.507C152.957,94.935,129.253,122.807,84.056,153.445Z" stroke="none"/>
      <path d="M 84.05642700195312 153.4453277587891 C 129.2530364990234 122.8073272705078 152.9568481445312 94.93494415283203 162.6781158447266 71.60755920410156 C 180.9322509765625 27.78938674926758 149.8514862060547 1.348407477053115e-05 119.1976623535156 1.348407477053115e-05 C 106.1182708740234 1.348407477053115e-05 93.11187744140625 5.063497543334961 84.05642700195312 16.10036849975586 C 74.99913024902344 5.061245441436768 61.99728775024414 1.348407477053115e-05 48.91519165039062 1.348407477053115e-05 C 18.26395988464355 1.348407477053115e-05 -12.81780242919922 27.79320335388184 5.43473482131958 71.60755920410156 C 15.15600395202637 94.93494415283203 38.85980987548828 122.8073272705078 84.05642700195312 153.4453277587891 M 84.05642700195312 167.9426422119141 L 77.32308197021484 163.3782196044922 C 34.18569564819336 134.1361389160156 6.272234916687012 104.8130645751953 -5.641919136047363 76.22356414794922 C -15.04791927337646 53.64494705200195 -13.95334243774414 31.80021476745605 -2.560380697250366 14.71206092834473 C 8.424773216247559 -1.764516115188599 28.14908027648926 -11.99997806549072 48.91519546508789 -11.99997806549072 C 61.94234466552734 -11.99997806549072 74.22286987304688 -7.882546424865723 84.05641937255859 -0.4323507845401764 C 93.88998413085938 -7.882546424865723 106.1705093383789 -11.99997806549072 119.1976547241211 -11.99997806549072 C 139.9653472900391 -11.99997806549072 159.6902770996094 -1.765016078948975 170.6749267578125 14.71071434020996 C 182.0674285888672 31.79821395874023 183.1613922119141 53.64340591430664 173.7553558349609 76.22221374511719 C 161.8406219482422 104.8130645751953 133.9271545410156 134.1361389160156 90.78977203369141 163.3782196044922 L 84.05642700195312 167.9426422119141 Z" stroke="none" fill="#c7c7c7"/>
    </g>
  </g>
</svg>
