<svg xmlns="http://www.w3.org/2000/svg" width="266.097" height="266.097" viewBox="0 0 266.097 266.097">
  <path id="Icon_awesome-user-circle" data-name="Icon awesome-user-circle" d="M133.048.563A133.048,133.048,0,1,0,266.1,133.611,133.025,133.025,0,0,0,133.048.563Zm0,51.5A47.211,47.211,0,1,1,85.838,99.276,47.211,47.211,0,0,1,133.048,52.065Zm0,184.551a102.805,102.805,0,0,1-78.6-36.588A59.815,59.815,0,0,1,107.3,167.946a13.127,13.127,0,0,1,3.809.59,71.031,71.031,0,0,0,21.942,3.7,70.762,70.762,0,0,0,21.942-3.7,13.127,13.127,0,0,1,3.809-.59,59.815,59.815,0,0,1,52.844,32.082A102.805,102.805,0,0,1,133.048,236.616Z" transform="translate(0 -0.563)" fill="#ccc"/>
</svg>
