<svg xmlns="http://www.w3.org/2000/svg" width="568" height="494.979" viewBox="0 0 568 494.979">
  <g id="Group_1464" data-name="Group 1464" transform="translate(-50 -398.001)">
    <g id="Group_1099" data-name="Group 1099" transform="translate(-201.635 367.443)">
      <g id="Group_13" data-name="Group 13" transform="translate(273.158 210.019)" opacity="0.15">
        <path id="Path_23" data-name="Path 23" d="M273.827,216.65,587.59,397.807c19.936,11.511,52.261,11.511,72.2,0L790.4,322.4c19.939-11.508,19.939-30.172,0-41.683L476.636,99.556c-19.939-11.511-52.264-11.511-72.2,0L273.827,174.967C253.89,186.478,253.89,205.139,273.827,216.65Z" transform="translate(-258.874 -90.923)" fill="#1d1d1b"/>
      </g>
      <g id="Group_25" data-name="Group 25" transform="translate(251.634 30.557)">
        <path id="Path_24" data-name="Path 24" d="M329.762,141.8l-57.193,33.019V135.344l57.193-33.019Z" transform="translate(-210.333 111.034)" fill="#3d2421"/>
        <path id="Path_25" data-name="Path 25" d="M412.882,189.791,355.689,222.81V183.333l57.193-33.019Z" transform="translate(-46.344 205.711)" fill="#3d2421"/>
        <g id="Group_14" data-name="Group 14" transform="translate(314.401 389.749)">
          <path id="Path_26" data-name="Path 26" d="M364.224,182.145c0,15.965,9.766,34.923,22.773,45.6a44.392,44.392,0,0,0,5.958,4.162c8.607,4.971,16.309,5.024,21.574,1.145,4.445-3.276,7.159-9.347,7.159-17.73,0-9.162-3.214-19.312-8.413-28.317l0,0c-5.2-9-12.382-16.865-20.314-21.447-7.263-4.192-13.878-4.876-18.935-2.664C368.026,165.512,364.224,172.21,364.224,182.145Z" transform="translate(-343.907 -161.658)" fill="#2f2e29"/>
          <rect id="Rectangle_3" data-name="Rectangle 3" width="23.461" height="81.186" transform="translate(8.436 13.651) rotate(-30)" fill="#2f2e29"/>
          <path id="Path_27" data-name="Path 27" d="M407.7,237c4.441-3.276,7.156-9.344,7.159-17.73,0-9.16-3.217-19.312-8.416-28.317v0c-5.2-9-12.382-16.865-20.317-21.447-7.263-4.192-13.874-4.873-18.934-2.664-5.993,2.619-9.8,9.317-9.8,19.256,0,15.962,9.769,34.92,22.775,45.6a44.508,44.508,0,0,0,5.958,4.165C394.73,240.823,402.43,240.88,407.7,237Zm-39.712-44.79c0-11.565,8.122-16.253,18.138-10.471s18.138,19.847,18.138,31.415-8.122,16.253-18.138,10.471S367.985,203.775,367.985,192.207Z" transform="translate(-357.39 -153.874)" fill="#444443"/>
          <path id="Path_28" data-name="Path 28" d="M397.229,204.088c0-11.568-8.122-25.629-18.138-31.415s-18.138-1.094-18.138,10.471,8.119,25.629,18.138,31.415S397.229,215.653,397.229,204.088Zm-30.594-17.665c0-7.941,5.577-11.16,12.456-7.191s12.457,13.631,12.457,21.574-5.577,11.163-12.457,7.192S366.635,194.367,366.635,186.423Z" transform="translate(-350.359 -144.81)" fill="#9d9d9c"/>
          <path id="Path_29" data-name="Path 29" d="M387.778,195.938c0-7.944-5.577-17.6-12.457-21.574s-12.456-.749-12.456,7.191,5.577,17.6,12.456,21.574S387.778,203.882,387.778,195.938Z" transform="translate(-346.588 -139.942)" fill="#ededed"/>
        </g>
        <g id="Group_15" data-name="Group 15" transform="translate(67.029 246.889)">
          <path id="Path_30" data-name="Path 30" d="M281.015,134.094c0,15.962,9.766,34.92,22.772,45.6a44.7,44.7,0,0,0,5.958,4.165c8.607,4.968,16.309,5.021,21.574,1.139,4.444-3.273,7.159-9.344,7.159-17.727,0-9.163-3.214-19.312-8.413-28.317l0,0c-5.2-9-12.382-16.865-20.314-21.447-7.263-4.192-13.878-4.876-18.934-2.664C284.817,117.458,281.015,124.156,281.015,134.094Z" transform="translate(-260.698 -113.604)" fill="#2f2e29"/>
          <rect id="Rectangle_4" data-name="Rectangle 4" width="23.461" height="81.186" transform="matrix(0.866, -0.5, 0.5, 0.866, 8.437, 13.651)" fill="#2f2e29"/>
          <path id="Path_31" data-name="Path 31" d="M324.489,188.943c4.441-3.276,7.156-9.344,7.159-17.73,0-9.16-3.217-19.312-8.416-28.317v0c-5.2-9-12.382-16.865-20.317-21.447-7.263-4.192-13.875-4.873-18.935-2.664-5.993,2.619-9.8,9.317-9.8,19.256,0,15.962,9.766,34.92,22.776,45.6a44.5,44.5,0,0,0,5.958,4.165C311.521,192.769,319.22,192.826,324.489,188.943Zm-39.712-44.79c0-11.565,8.122-16.253,18.138-10.471s18.138,19.847,18.138,31.412-8.122,16.256-18.138,10.474S284.776,155.721,284.776,144.153Z" transform="translate(-274.181 -105.82)" fill="#444443"/>
          <path id="Path_32" data-name="Path 32" d="M314.02,156.031c0-11.565-8.122-25.629-18.138-31.412s-18.138-1.094-18.138,10.471,8.119,25.629,18.138,31.415S314.02,167.6,314.02,156.031Zm-30.594-17.662c0-7.941,5.577-11.16,12.457-7.191s12.456,13.631,12.456,21.574-5.577,11.163-12.456,7.191S283.426,146.313,283.426,138.369Z" transform="translate(-267.15 -96.756)" fill="#9d9d9c"/>
          <path id="Path_33" data-name="Path 33" d="M304.569,147.884c0-7.944-5.577-17.6-12.456-21.574s-12.457-.749-12.457,7.191,5.577,17.6,12.457,21.574S304.569,155.828,304.569,147.884Z" transform="translate(-263.379 -91.888)" fill="#ededed"/>
        </g>
        <path id="Path_34" data-name="Path 34" d="M331.577,36.484,614.913,200.063a66.112,66.112,0,0,1,15.373,12.668,90.426,90.426,0,0,1,15.5,23.649l.051.083L697.215,350.8l8.618,19.137A28.452,28.452,0,0,1,708.1,377.5a19.742,19.742,0,0,1,.265,3.27l0,36.264c-.006,4.552-3.148,7.04-5.666,8.464-2.577,1.46-4.549,1.959-8.467-.3l-26.275-15.177-.164-.086.018-9.171-.006-2.7a55.417,55.417,0,0,0-5.054-21.777c-5.214-11.8-13.97-22.639-23.905-28.385l-.6-.33c-9.936-5.747-18.694-5.009-23.911.77-3.178,3.547-5.036,8.942-5.045,15.947l.006,11.862L498.568,312.236l-.009-.018-9.763-5.643L431.5,273.514l-10.812-6.252,0-9.947,0-1.912c-.006-.559-.015-1.118-.054-1.659a55.931,55.931,0,0,0-5-20.121c-5.2-11.811-13.964-22.665-23.905-28.385l-.58-.339c-9.935-5.744-18.7-5.009-23.911.77-2.943,3.252-4.763,8.131-5.018,14.356-.021.508-.024,1.049-.027,1.59l-.012,2.123v9.748l-3.883-2.239-5.562-3.2-6.154-3.562c-9.377-5.437-18.054-14-25.026-24.048-1.4-2-2.735-4.07-3.978-6.19a99.7,99.7,0,0,1-8.413-18.037,6.485,6.485,0,0,1-.2-.654c-.232-.675-.449-1.362-.654-2.03-5.015-3.969-8.725-11.371-8.336-17.246l1.2-17.936c.208-3.226,2.06-4.926,4.611-4.644l4.959-85.186c.315-9.594,1.252-14.906,3.743-16.952C317.47,29.1,322.655,31.326,331.577,36.484Z" transform="translate(-156.313 -30.557)" fill="#fde7c5"/>
        <path id="Path_35" data-name="Path 35" d="M791.243,369.941,782.628,350.8,731.244,236.463l-.051-.083a90.426,90.426,0,0,0-15.5-23.649,66.11,66.11,0,0,0-15.373-12.668L416.987,36.484c-8.922-5.158-14.1-7.388-17.091-4.92l-.048-.042-143.19,82.671,150.307,86.244,40.625,23.3,58.51,33.576L571.105,294.6l2.12,2.325a89.7,89.7,0,0,1,10.744,15.3s.018-.009.009.015c1.3,2.289,2.491,4.665,3.588,7.07a.786.786,0,0,0,.03.1L639,433.73l8.6,19.146a29.063,29.063,0,0,1,2.289,7.548c57.876-20.263,107.9-46.321,143.63-82.926A28.452,28.452,0,0,0,791.243,369.941Z" transform="translate(-241.724 -30.557)" fill="#ff6f12"/>
        <g id="Group_18" data-name="Group 18" transform="translate(0 82.923)">
          <path id="Path_36" data-name="Path 36" d="M261.851,134.28l5.1,2.943v-39.2l-6.707-3.874c-3.877-2.236-7.1-.642-7.382,3.654l-1.2,17.933C251.226,122.32,255.911,130.852,261.851,134.28Z" transform="translate(-251.634 9.983)" fill="#c44645"/>
          <path id="Path_37" data-name="Path 37" d="M280.094,64.381,563.43,227.959a67.1,67.1,0,0,1,16.532,13.934,91.767,91.767,0,0,1,14.341,22.38.8.8,0,0,0,.03.1l51.4,114.332,8.6,19.146a29.061,29.061,0,0,1,2.289,7.548,20,20,0,0,1,.264,3.267l0,36.266c-.012.568-.03,1.118-.068,1.638q-.085.789-.226,1.48a6.917,6.917,0,0,1-.158.7,8.976,8.976,0,0,1-.945,2.459,7.271,7.271,0,0,1-1.02,1.469,6.607,6.607,0,0,1-1.724,1.421,6.958,6.958,0,0,1-2.672.868,6.706,6.706,0,0,1-1.186.054,8,8,0,0,1-1.935-.232c-.211-.059-.443-.1-.666-.178a14.49,14.49,0,0,1-3.532-1.519l-26.438-15.26,0-11.862a54.782,54.782,0,0,0-5.054-21.777c-.146-.369-.333-.731-.505-1.106-5.241-11.38-13.759-21.726-23.4-27.279l-.58-.342c-9.936-5.744-18.694-5.009-23.911.773-3.175,3.544-5.054,8.951-5.045,15.947l-.012,11.871L369.21,295.159l0-11.862a54.789,54.789,0,0,0-5.057-21.777c-5.215-11.8-13.979-22.657-23.905-28.385l-.58-.342c-9.935-5.744-18.7-5.009-23.911.773-3.187,3.529-5.054,8.951-5.063,15.956l.006,11.862-3.883-2.239L295.643,252.7c-.743-.428-1.478-.883-2.212-1.335-15.524-9.656-28.876-27.791-35.529-46.684-.08-.178-.155-.383-.22-.574-.262-.725-.5-1.445-.713-2.176-.057-.169-.1-.324-.152-.5l-.012-.018c-.238-.761-.467-1.507-.678-2.265a70.238,70.238,0,0,1-2.884-19.267L254.3,161.6l4.959-85.189C259.935,55.355,263.7,54.891,280.094,64.381Z" transform="translate(-248.461 -58.45)" fill="#fa0000"/>
          <path id="Path_38" data-name="Path 38" d="M368.654,129.8l39.968,88.952c.725,1.614-.122,2.744-1.374,1.837l-39.971-28.944a3.26,3.26,0,0,1-1.273-2.4l0-60.008C366.008,127.6,367.836,127.987,368.654,129.8Z" transform="translate(-25.992 79.159)" fill="#8fd1cf"/>
          <path id="Path_39" data-name="Path 39" d="M367.317,132.876v17.445c8.021,10.325,10.919,23.685,11.214,37.31l19.847,14.374Z" transform="translate(-23.404 88.385)" fill="#fff" opacity="0.5"/>
          <g id="Group_16" data-name="Group 16" transform="translate(362.295 264.018)">
            <path id="Path_40" data-name="Path 40" d="M419.363,180.879l-4.23-2.441a53.8,53.8,0,0,0-6.659-3.258c-8.19-3.342-15.962-3.844-22.383-1.418l-12.59,4.8c.169.372.348.74.514,1.112a55.072,55.072,0,0,1,5.048,21.771v11.874L405.5,228.585c3.9,2.251,7.432,2.462,9.992.984s4.141-4.641,4.141-9.145V184.152A20.929,20.929,0,0,0,419.363,180.879Z" transform="translate(-373.5 -97.955)" fill="#71433d"/>
            <path id="Path_41" data-name="Path 41" d="M391.5,230.184c58.4-20.608,108.6-46.7,143.63-82.926a19.735,19.735,0,0,1,.265,3.27l0,36.264c.018,4.516-2.093,7.025-4.123,9.157-31.76,33.344-81.841,56.441-143.648,82.935Z" transform="translate(-345.633 -147.258)" fill="#71433d"/>
          </g>
          <g id="Group_17" data-name="Group 17" transform="translate(7.657 140.696)">
            <path id="Path_42" data-name="Path 42" d="M313.841,140.2l-13.985-8.071L254.21,105.776c6.145,21.563,21.512,43.149,39.525,53.548l11.169,6.448,3.886,2.245V156.143C308.79,149.148,310.66,143.734,313.841,140.2Z" transform="translate(-254.21 -105.776)" fill="#71433d"/>
            <path id="Path_43" data-name="Path 43" d="M290.551,126.757a55.073,55.073,0,0,1,5.048,21.771V160.4l188.61,108.892V257.419c0-7,1.867-12.412,5.048-15.941Z" transform="translate(-182.513 -64.382)" fill="#71433d"/>
          </g>
          <path id="Path_44" data-name="Path 44" d="M343.067,260.54a10.108,10.108,0,0,0,4.575,7.923l10.542,6.086c4.647,2.685,8.479,1,9.388-3.74,3.16-16.446,15.59-23.679,31.388-18.292,4.8,1.638,8.119-1.546,8.119-7.2v-91.83a13.192,13.192,0,0,0-5.97-10.34l-52.071-30.062c-3.3-1.906-5.97-.363-5.97,3.446Z" transform="translate(-71.247 47.732)" fill="#ff6f12"/>
          <path id="Path_45" data-name="Path 45" d="M347.78,114.907l49.041,28.314a7.145,7.145,0,0,1,3.231,5.6v59.208c0,2.247-1.709,3-3.642,1.6l-49.038-35.514a7.235,7.235,0,0,1-2.824-5.333V116.774C344.548,114.714,346,113.878,347.78,114.907Z" transform="translate(-68.325 52.066)" fill="#8fd1cf"/>
          <path id="Path_46" data-name="Path 46" d="M383.849,139.673a3.415,3.415,0,0,0-1.281-2.221L350.784,119.1c17.93,18.459,25.707,43.03,23.328,69.322l9.736,7.049Z" transform="translate(-56.022 61.213)" fill="#fff" opacity="0.5"/>
          <path id="Path_47" data-name="Path 47" d="M344.981,137.973c0,1.385,3.241,4.382,7.236,6.689s7.236,3.053,7.236,1.665-3.237-4.379-7.236-6.689S344.981,136.585,344.981,137.973Z" transform="translate(-67.47 97.064)" fill="#71433d"/>
        </g>
        <g id="Group_19" data-name="Group 19" transform="translate(348.058 205.308)">
          <path id="Path_48" data-name="Path 48" d="M548.967,196.082c-1.035,1.15-2.1,2.28-3.255,3.41,0,.021-.021.042-.059.059-27.761,28.249-77.358,52.484-133.525,75.527l-6.433-14.291-35.464-78.9-.039-.214-.193-.351q-.647-1.378-1.287-2.69c56.265-22.324,104.477-47.688,136.84-79.017.351.7.7,1.4,1.014,2.126l.116.232L542.3,181.226Z" transform="translate(-368.711 -99.617)" fill="#8fd1cf"/>
          <path id="Path_49" data-name="Path 49" d="M495.2,193.514l1.168-1.145.348-.357.021-.009q.5-.5,1-1.023l-40.06-89.163c-16.9,15.51-38.559,30.3-65.339,44.635,1.48.051,69.932-1.7,99.693,50.117,1.082-1,2.143-2.013,3.166-3.026Z" transform="translate(-322.097 -95.275)" fill="#fff" opacity="0.5"/>
        </g>
        <path id="Path_50" data-name="Path 50" d="M270.642,54.308c-1.864,1.076-1.864,2.821,0,3.9L559.136,224.771a7.444,7.444,0,0,0,6.751,0h0c1.867-1.076,1.867-2.821,0-3.9L277.4,54.308a7.469,7.469,0,0,0-6.754,0Z" transform="translate(-216.893 14.707)" fill="#acfde9"/>
        <path id="Path_51" data-name="Path 51" d="M302.327,36.05c-1.867,1.076-1.867,2.824,0,3.9L590.818,206.516a7.469,7.469,0,0,0,6.754,0h0c1.864-1.076,1.864-2.824,0-3.9L309.079,36.05a7.463,7.463,0,0,0-6.751,0Z" transform="translate(-154.385 -21.314)" fill="#f0d5ad"/>
        <g id="Group_20" data-name="Group 20" transform="translate(385.041 285.083)" opacity="0.2">
          <path id="Path_52" data-name="Path 52" d="M441.9,135.031c-1.5-5.283-5.42-8.58-10.643-8.58a16.531,16.531,0,0,0-8.247,2.459c-9.359,5.4-16.669,18.09-16.669,28.873a10.721,10.721,0,0,0,.039,1.112c.389,7.623,4.834,12.671,11.309,12.671a16.6,16.6,0,0,0,8.265-2.456c9.338-5.4,16.648-18.072,16.648-28.873A18.2,18.2,0,0,0,441.9,135.031Zm-18.89,28.989a11.1,11.1,0,0,1-5.321,1.677c-4.935,0-5.461-5.536-5.461-7.914a17.4,17.4,0,0,1,.175-2.42c.975-8.11,6.784-17.448,13.55-21.345a10.885,10.885,0,0,1,5.3-1.7c3.041,0,4.406,2.1,5.009,4.269a13.513,13.513,0,0,1,.467,3.648C436.738,148.834,430.441,159.712,423.015,164.02Z" transform="translate(-331.444 -126.451)" fill="#3c3c3b"/>
          <path id="Path_53" data-name="Path 53" d="M524.424,141.924c-1.052,1.073-2.143,2.224-3.255,3.41,0,.021-.021.042-.06.059-27.761,28.249-77.358,52.484-133.525,75.527l-6.433-14.291c26.281-18.637,51.74-35.306,74.941-48.952,2.027-1.21,4.034-2.381,6.023-3.532.157-.077.294-.175.449-.253a51.045,51.045,0,0,1,23.415-18.521,33.32,33.32,0,0,1,5.634-1.558,19.659,19.659,0,0,1,8.833.175c4.736-2.224,13.021-5.206,17.311-6.921Z" transform="translate(-381.151 -125.234)" fill="#575756"/>
        </g>
        <path id="Path_54" data-name="Path 54" d="M435.426,171.858v25.25l-44.183,19.081v-25.25l39.067-16.865Z" transform="translate(23.799 248.215)" fill="#dadada"/>
        <path id="Path_55" data-name="Path 55" d="M430.309,172.6v20.872l-39.067,16.883V189.468Z" transform="translate(23.799 249.686)" fill="#fff"/>
        <path id="Path_56" data-name="Path 56" d="M454.24,175.993a139.293,139.293,0,0,1-27.119,24.078V175.915a187.633,187.633,0,0,0,23.025-19.71c1.4-1.4,2.747-2.827,4.073-4.29Z" transform="translate(94.584 208.87)" fill="#dadada"/>
        <path id="Path_57" data-name="Path 57" d="M450.164,170.708a133.34,133.34,0,0,1-23.043,21.173V173.068a187.634,187.634,0,0,0,23.025-19.71Z" transform="translate(94.584 211.717)" fill="#fff"/>
        <path id="Path_58" data-name="Path 58" d="M410.107,198.3a1.951,1.951,0,0,1-.865-3.7c18.89-9.329,34.438-18.173,47.537-27.042a1.95,1.95,0,0,1,2.185,3.232c-13.247,8.966-28.944,17.9-47.995,27.306A1.939,1.939,0,0,1,410.107,198.3Z" transform="translate(57.167 239.078)" fill="#1d1715"/>
        <path id="Path_59" data-name="Path 59" d="M410.107,196.078a1.95,1.95,0,0,1-.865-3.7c18.9-9.335,34.45-18.182,47.537-27.042a1.949,1.949,0,0,1,2.185,3.229c-13.235,8.96-28.935,17.891-47.995,27.309A1.94,1.94,0,0,1,410.107,196.078Z" transform="translate(57.167 234.696)" fill="#1d1715"/>
        <path id="Path_60" data-name="Path 60" d="M410.107,193.857a1.95,1.95,0,0,1-.865-3.7c18.9-9.338,34.453-18.182,47.537-27.042a1.949,1.949,0,0,1,2.185,3.229c-13.232,8.957-28.929,17.894-47.995,27.309A1.939,1.939,0,0,1,410.107,193.857Z" transform="translate(57.167 230.313)" fill="#1d1715"/>
        <path id="Path_61" data-name="Path 61" d="M418.543,159.718A121.038,121.038,0,0,0,451.51,134.3l16.734,35.907C455.9,156.109,438.881,152.429,418.543,159.718Z" transform="translate(77.661 174.123)" fill="#fff" opacity="0.5"/>
        <path id="Path_62" data-name="Path 62" d="M255.442,140.751l5.307-76.656a3.6,3.6,0,0,1,5.393-2.815L289.8,74.955C269.78,68.236,261.533,104.2,255.442,140.751Z" transform="translate(-244.123 29.093)" fill="#fff" opacity="0.5"/>
        <g id="Group_24" data-name="Group 24" transform="translate(91.866 168.762)">
          <g id="Group_21" data-name="Group 21" transform="translate(0.331)">
            <path id="Path_63" data-name="Path 63" d="M282.647,87.324,288.5,90.7a10.753,10.753,0,0,1,5.518,9.909v13.753c0,4.349-1.816,5.672-5.518,3.535l-5.854-3.38Zm3.7,6.023v19.425l2.087,1.2c1.177.681,1.882.389,1.882-1.552l0-14.145a3.861,3.861,0,0,0-1.885-3.728Z" transform="translate(-282.647 -87.324)" fill="#fff"/>
            <path id="Path_64" data-name="Path 64" d="M290.964,103.59l5.078,2.931V110.4l-5.078-2.931v7.964l6.392,3.692v3.886l-10.093-5.83v-27.2l10.1,5.83V99.7l-6.395-3.692Z" transform="translate(-273.54 -82.066)" fill="#fff"/>
            <path id="Path_65" data-name="Path 65" d="M291.427,92.393l3.7,2.138v23.311l6.089,3.517v3.886l-9.79-5.654Z" transform="translate(-265.325 -77.323)" fill="#fff"/>
            <path id="Path_66" data-name="Path 66" d="M295.262,94.607l3.7,2.137v27.2l-3.7-2.135Z" transform="translate(-257.759 -72.955)" fill="#fff"/>
            <path id="Path_67" data-name="Path 67" d="M303.645,121.633l2.824-20.555,3.4,1.962-3.636,25.1-5.515-3.184-3.636-29.3,3.734,2.158Z" transform="translate(-254.164 -70.88)" fill="#fff"/>
            <path id="Path_68" data-name="Path 68" d="M305.662,112.073l5.081,2.934v3.883l-5.081-2.934v7.967l6.395,3.689V131.5l-10.1-5.827v-27.2l10.1,5.827v3.886l-6.395-3.689Z" transform="translate(-244.542 -65.324)" fill="#fff"/>
            <path id="Path_69" data-name="Path 69" d="M313.866,132.542a11.564,11.564,0,0,1-.339-3.535v-4.272c0-2.527-.74-3.886-2.423-4.858l-1.278-.737v11.071l-3.7-2.135v-27.2l5.586,3.226a10,10,0,0,1,5.485,9.424v2.135c0,2.8-.773,4.18-2.423,4.12,1.849,1.959,2.456,4.37,2.456,7.2v4.2a11.26,11.26,0,0,0,.4,3.535Zm-4.04-25.641v8.354l1.448.835c1.38.8,2.218.58,2.218-1.593v-2.682c0-1.944-.571-3.128-1.882-3.883Z" transform="translate(-236.329 -60.583)" fill="#fff"/>
            <path id="Path_70" data-name="Path 70" d="M314.828,124.086,310.152,103.2l3.871,2.236,2.824,14.023,2.827-10.762,3.532,2.039-4.676,15.483v9.014l-3.7-2.138Z" transform="translate(-228.382 -55.994)" fill="#fff"/>
          </g>
          <g id="Group_23" data-name="Group 23" transform="translate(0 31.276)">
            <path id="Path_71" data-name="Path 71" d="M382.874,180.583,282.536,122.654V97.844l100.338,57.929Z" transform="translate(-282.536 -97.844)" fill="#fff"/>
            <g id="Group_22" data-name="Group 22" transform="translate(94.068 41.972)">
              <path id="Path_72" data-name="Path 72" d="M314.177,161.447l37.108-3.319-37.107-46.165Z" transform="translate(-314.177 -111.962)" fill="#fff"/>
            </g>
          </g>
        </g>
      </g>
    </g>
    <g id="Group_116" data-name="Group 116" transform="translate(-116.642 561.776)">
      <g id="Group_107" data-name="Group 107" transform="translate(291.407 268.362)" opacity="0.15">
        <path id="Path_720" data-name="Path 720" d="M294.373,205.726l62.28,35.959a15.845,15.845,0,0,0,14.331,0l25.925-14.968c3.958-2.286,3.958-5.989,0-8.276l-62.28-35.957a15.828,15.828,0,0,0-14.331,0l-25.925,14.968C290.418,199.737,290.418,203.442,294.373,205.726Z" transform="translate(-291.407 -180.77)" fill="#1d1d1b"/>
      </g>
      <g id="Group_115" data-name="Group 115" transform="translate(303.831 127.764)">
        <path id="Path_721" data-name="Path 721" d="M339.2,176.16a6.388,6.388,0,0,1-9-.844l-6.859-8.276-2.549-3.079-2.156-2.6-2.289-2.764-1.6-1.926-.225-.273a6.393,6.393,0,0,1,.838-9.005c.08-.064.159-.127.239-.186a6.217,6.217,0,0,1,1.79-.944,1.582,1.582,0,0,1,.17-.056,6.039,6.039,0,0,1,1.146-.244,5.741,5.741,0,0,1,.637-.037,6.368,6.368,0,0,1,5.024,2.308l.363.438,15.313,18.48A6.4,6.4,0,0,1,339.2,176.16Z" transform="translate(-268.076 -97.747)" fill="#768894"/>
        <path id="Path_722" data-name="Path 722" d="M331.225,163.85a6.394,6.394,0,0,1-3.393,8.382h0a6.392,6.392,0,0,1-8.382-3.393l-9.586-22.62a6.394,6.394,0,0,1,3.393-8.382h0a6.391,6.391,0,0,1,8.382,3.392Z" transform="translate(-274.17 -111.959)" fill="#0c698e"/>
        <path id="Path_723" data-name="Path 723" d="M312.523,167.777l10.928-2.05c-4.5-3.687-6.456-13.443-8.01-24.153l-2.918,7.549Z" transform="translate(-268.937 -104.944)" fill="#1d1d1b" opacity="0.1"/>
        <path id="Path_724" data-name="Path 724" d="M296.873,194.041l1.711,1.984,6.554,7.565a7.716,7.716,0,0,0,6.591,2.294,2.584,2.584,0,0,0,1.875-1.157l.021.011c1.43-2.509-.35-7.411-3.162-11.387a2.232,2.232,0,0,1-.406-1.127c-.157-1.44.679-3.122,0-4.658l-7.371-3.355c-.613.419-1.225.865-1.82,1.342a16.826,16.826,0,0,0-1.748,1.645v.008a17.024,17.024,0,0,0-2.9,4.3l.029.019A2.335,2.335,0,0,0,296.873,194.041Z" transform="translate(-296.091 -34.487)" fill="#262626"/>
        <path id="Path_725" data-name="Path 725" d="M313.633,198.032h.021a2.354,2.354,0,0,0,1.642,2.013l3.976,1.769,7.565,3.353a7.707,7.707,0,0,0,6.944-.737,2.58,2.58,0,0,0,1.2-1.838h.029c.215-2.878-3.48-6.562-7.719-8.955a2.291,2.291,0,0,1-.846-.846c-.748-1.233-.711-3.111-1.984-4.209l-8.1.088c-.117.2-.233.408-.35.621a18.206,18.206,0,0,0-1.973,5A17.533,17.533,0,0,0,313.633,198.032Z" transform="translate(-267.103 -27.266)" fill="#262626"/>
        <path id="Path_726" data-name="Path 726" d="M307.687,161.131l1.293,5.26.768,3.15.3,1.245,2.1,8.528v.01l.379,1.556,5.785,19.126,1.332,5.037,5.445-1.439,10.025-2.645-5.1-20.837-.292-1.2-.068-.243-1.322-5.416-.564-2.295-1.838-7.5-.651-2.645-.2-.827v-.019l-.72-2.937-1.808.447-2.742.671-.817.195-3.247.8Z" transform="translate(-276.928 -79.373)" fill="#0c698e"/>
        <path id="Path_727" data-name="Path 727" d="M315.757,223.154a1.287,1.287,0,0,0,.69.692,7.726,7.726,0,0,0,3.191.61c3.374.117,7.886-.748,9.217-2.109a1.541,1.541,0,0,0,.329-.533s-.475-40.461-1.485-43.407-4.318-7.613-7.43-7.711c-2.578-.077-4.851,1.576-6.758,3.316a1.534,1.534,0,0,0-.321.438c-.912,1.761-.4,6.477-.963,8.042C311.683,184.009,315.757,223.154,315.757,223.154Z" transform="translate(-269.509 -56.823)" fill="#0c698e"/>
        <path id="Path_728" data-name="Path 728" d="M302.728,193.966s1.894,1.371,4.276,2.918c3.793,2.44,8.819,5.289,9.443,3.676v-.021c1.1-2.488,2.167-10.53,3.005-18.493.34-3.228.642-6.427.894-9.246v-.011c.39-4.491.653-7.992.719-9.013.021-.194.029-.3.029-.3l-.912-.135-.08-.011-.875-.125-1.284-.186L304.107,161l-.419,4.191v.008c-.008.138-.008.263-.008.379-.1,2.947-.729,21.713-.9,27C302.747,193.462,302.728,193.966,302.728,193.966Z" transform="translate(-285.123 -72.849)" fill="#0c698e"/>
        <path id="Path_729" data-name="Path 729" d="M300.407,155.332a51.714,51.714,0,0,0,.379,5.679l2.228,11.618,3.1,16.169c0,3.064,1.729,10.414,1.408,15.5v.008c-.008.138-.008.263-.008.379,0,2.3,1.634.332,4.326.886a12.308,12.308,0,0,0,8.674-1.411l1.565-.788.915-.456.533-.273.409-.2.04-.019.321-.164.631-.31,1.021-.517,1.82-.912,4.87-2.461c.117-.058.223-.117.342-.183.164-.08.318-.175.475-.263a1.557,1.557,0,0,0,.146-.1,7.843,7.843,0,0,0,.952-.671,8.765,8.765,0,0,0,1.032-.923,5.887,5.887,0,0,0,.992-1.342,3.987,3.987,0,0,0,.31-.729,4.369,4.369,0,0,0,.215-1.255c.077-1.236-.215-2.568-.215-4.347l-.223-8.313-.223-8.061-.061-2.05-.223-8.14-.241-8.9a18.8,18.8,0,0,0-.459-4.191v-.008c-1.682-7.5-2.583-11.13-5.2-11.244-2.318-.1-14.278.342-16.631,1.79a49.785,49.785,0,0,0-8.382,6.215A20.585,20.585,0,0,0,302,149.282a15.615,15.615,0,0,0-.9,1.732c-.087.194-.175.4-.252.594-.011.037-.029.077-.04.117l-.008.019A12.548,12.548,0,0,0,300.407,155.332Z" transform="translate(-288.959 -111.961)" fill="#0c698e"/>
        <g id="Group_108" data-name="Group 108" transform="translate(2.848 118.023)">
          <path id="Path_730" data-name="Path 730" d="M297.171,206.342a3.081,3.081,0,0,0,.175.6v.008a4.728,4.728,0,0,0,.873,1.411c2.17,2.528,7.021,4.064,10.066,3.607.088-.011.175-.021.263-.04,1.875-.361,16.411-26.845,17.092-29.986v-.021c.438-2.127-5.289-6.544-9.228-8.575-1.682-.883-3.034-1.321-3.451-.971a9.273,9.273,0,0,0-.992,1.584C308.332,180.489,296.85,204.69,297.171,206.342Z" transform="translate(-297.164 -172.259)" fill="#0c698e"/>
        </g>
        <g id="Group_109" data-name="Group 109" transform="translate(66.399 72.717)">
          <path id="Path_731" data-name="Path 731" d="M321.359,157.676a4.749,4.749,0,0,1,4.217-2.485c1.658-.143,3.148.995,4.286,2.212a6.573,6.573,0,0,0,2.045,1.74c1.019.435,2.663.334,3.278,1.255A1.217,1.217,0,0,1,334,162.315a9.1,9.1,0,0,1-3.533-.809c-.91-.183-1.963.35-2.878.2a5.555,5.555,0,0,1-3.018-1.772Z" transform="translate(-320.736 -155.178)" fill="#ffcea1"/>
          <path id="Path_732" data-name="Path 732" d="M328.938,168.83c.8,1.475,2.223,2.162,2.947,1.281.66.817,2.576.851,2.647-.61,1.037.382,1.544-1.631,1.122-2.7-.647-1.645-.642-1.777-.836-2.265a13.111,13.111,0,0,0-1.769-2.87,9.173,9.173,0,0,0-2.5-2.374c-2.61-1.645-4.955-3.663-8.04-3.552a5.015,5.015,0,0,0-1.308,4.57c.244,1.785,1.289,2.764,2.671,3.92a7.53,7.53,0,0,1,2.56,3.255C327.463,169.687,328.951,169.52,328.938,168.83Z" transform="translate(-321.124 -154.261)" fill="#ffcea1"/>
        </g>
        <g id="Group_111" data-name="Group 111" transform="translate(38.812 46.49)">
          <g id="Group_110" data-name="Group 110">
            <path id="Path_733" data-name="Path 733" d="M331.861,192.1l-21.138-12.2V151.452l21.138,12.2Z" transform="translate(-310.723 -135.11)" fill="#bfaf95"/>
            <path id="Path_734" data-name="Path 734" d="M347,178.332l-28.306,16.342V166.234L347,149.892Z" transform="translate(-297.555 -137.688)" fill="#d6c4a7"/>
            <path id="Path_735" data-name="Path 735" d="M360.167,157.494l-12.99,7.5-1.21.7-14.107,8.144-21.137-12.2,14.107-8.144,1.21-.7,12.986-7.5Z" transform="translate(-310.723 -145.291)" fill="#bfaf95"/>
          </g>
          <path id="Path_736" data-name="Path 736" d="M325.261,159.93l-5.7,3.29v-4.5l5.7-3.29Z" transform="translate(-296.116 -128.532)" fill="#fff"/>
        </g>
        <g id="Group_114" data-name="Group 114" transform="translate(21.218)">
          <g id="Group_112" data-name="Group 112" transform="translate(0.081 1.46)">
            <path id="Path_737" data-name="Path 737" d="M316.713,141.576a3.593,3.593,0,0,1-1.432,1.377,8.99,8.99,0,0,1-8.119,0c-2.241-1.294-2.241-3.393,0-4.687a6.858,6.858,0,0,1,1.7-.679,9.392,9.392,0,0,1,1.008-.2,8.859,8.859,0,0,1,5.411.881,3.456,3.456,0,0,1,1.515,1.544A2,2,0,0,1,316.713,141.576Z" transform="translate(-301.874 -113.476)" fill="#ffcea1"/>
            <rect id="Rectangle_13" data-name="Rectangle 13" width="11.476" height="14.862" transform="translate(3.61 12.278)" fill="#ffcea1"/>
            <path id="Path_738" data-name="Path 738" d="M307.441,142.289c.021.021.021.064.042.085a7.125,7.125,0,0,0,3.512,3.008,5.931,5.931,0,0,0,2.716.522,2.609,2.609,0,0,0,1.528-.522c.021,0,.042,0,.042-.019v-2.05a3.479,3.479,0,0,0-1.236-.313,5.163,5.163,0,0,1-1.231-.334.6.6,0,0,1-.21-.085,10.657,10.657,0,0,1-5.811-8.172C306.332,136.709,306.313,140.22,307.441,142.289Z" transform="translate(-300.194 -118.242)" fill="#1d1d1b" opacity="0.1"/>
            <path id="Path_739" data-name="Path 739" d="M306.236,140.363a28.8,28.8,0,0,0,.549,4.894,9.58,9.58,0,0,0,2.154,4.374,7.277,7.277,0,0,0,6.626,2.162,4.07,4.07,0,0,0,1.6-.639,5.131,5.131,0,0,0,1.621-2.825,40.3,40.3,0,0,0,1.2-13.806,8.091,8.091,0,0,0-.313-2.037,5.544,5.544,0,0,0-4.644-3.467,10.914,10.914,0,0,0-5.91,1.233,5.239,5.239,0,0,0-1.416.891c-.385.371-.66.838-1.013,1.239C306.255,132.878,306.1,137.9,306.236,140.363Z" transform="translate(-300.703 -127.244)" fill="#ffcea1"/>
            <path id="Path_740" data-name="Path 740" d="M306.19,138.572c0,.337,0,.668.008.981-.008.151,0,.3,0,.454.008.366.019.714.037,1.019.008.239.027.48.042.721a28.228,28.228,0,0,0,.305,3.1c.053.355.125.714.2,1.072.08.374.188.74.3,1.106v.016a9.1,9.1,0,0,0,1.652,3.026c.061.08.125.151.2.231a7.273,7.273,0,0,0,6.626,2.159l.037-.011a1.744,1.744,0,0,0,.188-.042,3.658,3.658,0,0,0,1.371-.589,5.124,5.124,0,0,0,1.626-2.82,31.5,31.5,0,0,0,.891-4.156q.267-1.767.355-3.56c.072-1.117.09-2.239.064-3.363-.008-.687-.037-1.382-.072-2.069L320,135.3c0-.035-.008-.08-.008-.114-.011-.162-.019-.321-.037-.483a7.107,7.107,0,0,0-.276-1.552c-.045-.135-.09-.26-.143-.385a5.645,5.645,0,0,0-4.5-3.085,10.913,10.913,0,0,0-5.907,1.231,6.085,6.085,0,0,0-1.114.642l-.027.019a3.325,3.325,0,0,0-.279.231c-.382.374-.658.838-1.016,1.239a.824.824,0,0,0-.125.294A25.492,25.492,0,0,0,306.2,138a.993.993,0,0,0,0,.154,1.6,1.6,0,0,0,0,.276A.916.916,0,0,0,306.19,138.572Z" transform="translate(-300.701 -126.153)" fill="#ffcea1"/>
            <path id="Path_741" data-name="Path 741" d="M304.5,142.571c.17,1.345.366,2.684.6,4.021a8.411,8.411,0,0,0,.973,3.05,3.285,3.285,0,0,0,1.668,1.4,2.249,2.249,0,0,0,.971.143,1.143,1.143,0,0,0,.706-.257,1.516,1.516,0,0,0,.348-1.053,23.988,23.988,0,0,0-.008-2.865,23.747,23.747,0,0,0-.483-3.7c-.106-.536-.233-1.061-.374-1.589.17.09.446.268.721.446a.4.4,0,0,1,.08.045c.377.241.724.446.751.393.008-.019.008-.233.019-.57V141.9c0-.366-.011-.838,0-1.31-.011-.26-.011-.517-.011-.759-.008-.544-.008-1.027,0-1.294a2.031,2.031,0,0,1,.143-.83,1,1,0,0,1,.562-.48,1.527,1.527,0,0,1,.446-.1,1.369,1.369,0,0,1,.329,0,5.433,5.433,0,0,1,1.446.544,10.845,10.845,0,0,0,7.308.668,6.205,6.205,0,0,0,2.194-1.034,3.722,3.722,0,0,0,.491-.446.8.8,0,0,0,.09-.106,2.956,2.956,0,0,0,.57-1.061,2.883,2.883,0,0,0,.106-.822,4.423,4.423,0,0,0-.249-1.4,7.234,7.234,0,0,0-3.435-3.944,10.817,10.817,0,0,0-5.164-1.212,13.413,13.413,0,0,0-6.4,1.385,9.469,9.469,0,0,0-4.1,4.6,7.868,7.868,0,0,0-.446,1.446,10.9,10.9,0,0,0-.2,1.435v.008c0,.037-.008.072-.008.109A27.97,27.97,0,0,0,304.5,142.571Z" transform="translate(-304.121 -128.314)" fill="#301808"/>
            <path id="Path_742" data-name="Path 742" d="M306.577,132.929a1.56,1.56,0,0,1,1.438.952,6.2,6.2,0,0,1,.517,2.1,5.679,5.679,0,0,1-.111,2.729,1.085,1.085,0,0,1-.454.6,1.025,1.025,0,0,1-1.109-.191,2.228,2.228,0,0,1-.565-.968,14.547,14.547,0,0,1-.748-3.122,2.738,2.738,0,0,1,.058-1.271A1.242,1.242,0,0,1,306.577,132.929Z" transform="translate(-301.842 -120.699)" fill="#ffcea1"/>
          </g>
        </g>
        <path id="Path_747" data-name="Path 747" d="M296.25,259.425l-.029-.021a17.053,17.053,0,0,1,2.9-4.3V255.1a3.085,3.085,0,0,1-.175-.6c-.321-1.652,11.162-25.853,14.8-32.379.175-5.289.806-24.055.9-27,0-.117,0-.241.008-.379v-.008c.321-5.087-1.408-12.437-1.408-15.5l-3.1-16.169-2.228-11.618a51.713,51.713,0,0,1-.379-5.679,5.477,5.477,0,0,1,.053-2.639l13.528,3.393,6.469,15.183L334.9,172.05l4.064,9.13,2.538,5.69.183.4.817,1.846,3.249,7.294,2.061,4.607v.011l.058.127,1.029,2.313.321.719c-3.957,2.812-9.042.828-13.923-2.09,1,6.729,2.284,13.021,4.472,17.92a19.912,19.912,0,0,0,4.483,6.6A124.072,124.072,0,0,0,345,264.411c.342,1.878.751,3.753,1.217,5.61.573,2.334,1.252,4.65,2.04,6.915l-3.976-1.769a2.354,2.354,0,0,1-1.642-2.013h-.021a17.533,17.533,0,0,1,.408-3.743,1.288,1.288,0,0,1-.69-.692s-4.074-39.145-3.53-40.662l-1.332-5.037L331.692,203.9l-.379-1.557c-.252,2.82-.554,6.018-.894,9.246L324.39,195.9l-.35-.912c-2.44-1.159-4.278-1.236-5.066,1.011-2.284,7.117-2.178,16.578-.788,25.5.223,1.371.467,2.732.74,4.064-.321.273-.642.557-.955.857a62.411,62.411,0,0,0-17.1,27.031q-.481,1.516-.875,3.064a55.162,55.162,0,0,0-1.408,7.408l-1.711-1.984A2.335,2.335,0,0,1,296.25,259.425Z" transform="translate(-296.091 -102.388)" fill="#1d1d1b" opacity="0.1"/>
        <path id="Path_748" data-name="Path 748" d="M312.612,171.212a7.162,7.162,0,0,0,1.666,2.111,7.424,7.424,0,0,0,1.708.891q2.3.955,4.6,1.912a10.8,10.8,0,0,0,1.419.515,5.461,5.461,0,0,0,3.379-.215,1.237,1.237,0,0,0,.769-.639.921.921,0,0,0,.016-.523c-.188-.83-1.032-1.3-1.719-1.8a11.072,11.072,0,0,1-2.971-3.658c-.767-1.385-1.409-2.841-2.257-4.178a7.791,7.791,0,0,0,2.04,2.767,3.25,3.25,0,0,0,3.249.554.532.532,0,0,0,.255-.2.514.514,0,0,0,.05-.26,2.341,2.341,0,0,0-.793-1.732c-.371-.321-.838-.52-1.207-.844a6,6,0,0,1-1.045-1.485,10.253,10.253,0,0,0-5.886-4.533,5.367,5.367,0,0,0-1.43-.241,6.093,6.093,0,0,0-3.225,1.125,2.16,2.16,0,0,0-.6.493,1.882,1.882,0,0,0-.255.536,8.1,8.1,0,0,0,.082,4.915A20.509,20.509,0,0,0,312.612,171.212Z" transform="translate(-273.06 -75.07)" fill="#ffcea1"/>
        <path id="Path_749" data-name="Path 749" d="M300.493,148.732a3.068,3.068,0,0,0,.077.3l6.273,21.811a3.428,3.428,0,0,0,.273.708c.048.109.1.225.143.332a.356.356,0,0,1,.04.077,6.123,6.123,0,0,0,5.416,3.064,6.9,6.9,0,0,0,4.95-2.111,5.826,5.826,0,0,0,1.467-5.61l-.281-.981-4.979-17.307-1.01-3.509a5.983,5.983,0,0,0-5.873-4.183,7.259,7.259,0,0,0-1.907.263,6.883,6.883,0,0,0-2.517,1.353,6.2,6.2,0,0,0-1.674,2.188l-.008.019A5.538,5.538,0,0,0,300.493,148.732Z" transform="translate(-289.045 -105.36)" fill="#0c698e"/>
        <path id="Path_750" data-name="Path 750" d="M328.98,178.929c-1.7,2.491-5.355,3.8-5.355,3.8-2.363,1-4.005-.1-5.992-3.021l-13.8-20.326a5.731,5.731,0,0,1-.446-.769c-.016-.027-.029-.053-.042-.08a6.4,6.4,0,0,1,5.769-9.138,6.052,6.052,0,0,1,.729.042,6.378,6.378,0,0,1,4.565,2.764l.522.767,13.284,19.554C330.378,175.144,330.1,177.29,328.98,178.929Z" transform="translate(-285.127 -92.012)" fill="#0c698e"/>
        <path id="Path_751" data-name="Path 751" d="M345.345,160.027l-13.484,9.622-21.137-12.2,13.481-9.622Z" transform="translate(-271.911 -94.614)" fill="#fde7c5"/>
        <path id="Path_752" data-name="Path 752" d="M337.628,163.59l12.918-6.093-21.137-12.2-12.922,6.093Z" transform="translate(-262.386 -98.795)" fill="#fde7c5"/>
      </g>
    </g>
  </g>
</svg>
