<svg id="home" xmlns="http://www.w3.org/2000/svg" width="33.372" height="31.719" viewBox="0 0 33.372 31.719">
  <g id="Group_1316" data-name="Group 1316" transform="translate(0 0)">
    <path id="Path_1604" data-name="Path 1604" d="M32.811,26.768,29.992,24.2V15.681a.981.981,0,0,0-.981-.981H22.225a.981.981,0,0,0-.981.981v.546l-3.4-3.1a1.7,1.7,0,0,0-2.305,0L.561,26.768a1.711,1.711,0,0,0,1.153,2.976H4.1V43.413a.981.981,0,0,0,.981.981h8.207a.981.981,0,0,0,.981-.981v-8.3H19.1v8.3a.981.981,0,0,0,.981.981h8.207a.981.981,0,0,0,.981-.981V29.744h2.392a1.711,1.711,0,0,0,1.153-2.976Zm-4.526,1.013a.981.981,0,0,0-.981.981V42.432H21.06v-8.3a.981.981,0,0,0-.981-.981H13.293a.981.981,0,0,0-.981.981v8.3H6.067V28.763a.981.981,0,0,0-.981-.981H2.363L16.686,14.73l4.878,4.445a.981.981,0,0,0,1.642-.725V16.663h4.823v7.97a.981.981,0,0,0,.32.725l2.659,2.423Z" transform="translate(0 -12.676)" fill="#ff6f12"/>
  </g>
</svg>
