<svg xmlns="http://www.w3.org/2000/svg" width="15.024" height="13.146" viewBox="0 0 15.024 13.146">
  <path id="Icon_awesome-wallet" data-name="Icon awesome-wallet" d="M13.533,5.067H2.347a.469.469,0,0,1,0-.939H13.615a.469.469,0,0,0,.47-.469A1.408,1.408,0,0,0,12.676,2.25H1.878A1.878,1.878,0,0,0,0,4.128v9.39A1.878,1.878,0,0,0,1.878,15.4H13.533a1.453,1.453,0,0,0,1.491-1.408V6.475A1.453,1.453,0,0,0,13.533,5.067Zm-1.326,6.1a.939.939,0,1,1,.939-.939A.939.939,0,0,1,12.207,11.17Z" transform="translate(0 -2.25)" fill="#707070"/>
</svg>
