<svg xmlns="http://www.w3.org/2000/svg" width="40" height="40" viewBox="0 0 40 40">
  <path id="icons8-twitter" d="M34.111,3H11.889A8.889,8.889,0,0,0,3,11.889V34.111A8.889,8.889,0,0,0,11.889,43H34.111A8.889,8.889,0,0,0,43,34.111V11.889A8.889,8.889,0,0,0,34.111,3Zm.111,14.476v.762A15.525,15.525,0,0,1,18.6,33.858a16,16,0,0,1-8.38-2.476h1.333A12.32,12.32,0,0,0,18.413,29.1a5.555,5.555,0,0,1-5.142-3.809,8.322,8.322,0,0,1,.953.191,4.184,4.184,0,0,0,1.524-.191,5.5,5.5,0,0,1-4.38-5.333,9.5,9.5,0,0,0,2.476.762,6.241,6.241,0,0,1-2.476-4.762,4.374,4.374,0,0,1,.762-2.667A15.461,15.461,0,0,0,23.369,19c0-.38-.191-.762-.191-1.333A5.529,5.529,0,0,1,28.7,12.142a5.189,5.189,0,0,1,4,1.713,9.247,9.247,0,0,0,3.429-1.333,5.568,5.568,0,0,1-2.476,3.047,10.42,10.42,0,0,0,3.238-.953A12.863,12.863,0,0,1,34.222,17.476Z" transform="translate(-3 -3)" fill="#fff"/>
</svg>
