<svg xmlns="http://www.w3.org/2000/svg" width="18.417" height="21.048" viewBox="0 0 18.417 21.048">
  <path id="Icon_awesome-building" data-name="Icon awesome-building" d="M17.924,19.732H17.1V.987A.987.987,0,0,0,16.115,0H2.3a.987.987,0,0,0-.987.987V19.732H.493A.493.493,0,0,0,0,20.226v.822H18.417v-.822A.493.493,0,0,0,17.924,19.732ZM5.262,3.124a.493.493,0,0,1,.493-.493H7.4a.493.493,0,0,1,.493.493V4.769a.493.493,0,0,1-.493.493H5.755a.493.493,0,0,1-.493-.493Zm0,3.946a.493.493,0,0,1,.493-.493H7.4a.493.493,0,0,1,.493.493V8.715a.493.493,0,0,1-.493.493H5.755a.493.493,0,0,1-.493-.493ZM7.4,13.155H5.755a.493.493,0,0,1-.493-.493V11.017a.493.493,0,0,1,.493-.493H7.4a.493.493,0,0,1,.493.493v1.644A.493.493,0,0,1,7.4,13.155Zm3.124,6.577H7.893V16.279a.493.493,0,0,1,.493-.493h1.644a.493.493,0,0,1,.493.493Zm2.631-7.071a.493.493,0,0,1-.493.493H11.017a.493.493,0,0,1-.493-.493V11.017a.493.493,0,0,1,.493-.493h1.644a.493.493,0,0,1,.493.493Zm0-3.946a.493.493,0,0,1-.493.493H11.017a.493.493,0,0,1-.493-.493V7.071a.493.493,0,0,1,.493-.493h1.644a.493.493,0,0,1,.493.493Zm0-3.946a.493.493,0,0,1-.493.493H11.017a.493.493,0,0,1-.493-.493V3.124a.493.493,0,0,1,.493-.493h1.644a.493.493,0,0,1,.493.493Z" fill="#707070"/>
</svg>
