<svg xmlns="http://www.w3.org/2000/svg" width="47" height="47" viewBox="0 0 47 47">
  <g id="Group_1753" data-name="Group 1753" transform="translate(-78 -904)">
    <circle id="Ellipse_258" data-name="Ellipse 258" cx="23.5" cy="23.5" r="23.5" transform="translate(78 904)" fill="rgba(2,155,252,0.99)"/>
    <path id="Icon_awesome-wallet" data-name="Icon awesome-wallet" d="M25.278,7.512H4.385a.877.877,0,0,1,0-1.754H25.431a.877.877,0,0,0,.877-.877A2.631,2.631,0,0,0,23.677,2.25H3.508A3.507,3.507,0,0,0,0,5.758V23.3A3.507,3.507,0,0,0,3.508,26.8h21.77a2.713,2.713,0,0,0,2.784-2.631V10.142A2.713,2.713,0,0,0,25.278,7.512ZM22.8,18.912a1.754,1.754,0,1,1,1.754-1.754A1.754,1.754,0,0,1,22.8,18.912Z" transform="translate(87 912.75)" fill="#fff"/>
  </g>
</svg>
