<svg id="whatsapp_1_" data-name="whatsapp (1)" xmlns="http://www.w3.org/2000/svg" width="30" height="30" viewBox="0 0 30 30">
  <path id="Path_1711" data-name="Path 1711" d="M25.65,4.311A15.177,15.177,0,0,0,15.056,0,14.891,14.891,0,0,0,2.12,22.3L0,30l7.919-2.065a15.7,15.7,0,0,0,7.145,1.809c13.291,0,19.907-16.08,10.567-25.383Z" transform="translate(0)" fill="#eceff1"/>
  <path id="Path_1712" data-name="Path 1712" d="M14.551,26.7h-.027A12.6,12.6,0,0,1,7.755,24.7L3.067,25.922l1.256-4.556-.3-.469A12.335,12.335,0,0,1,2.13,14.322c0-10.991,13.431-16.487,21.2-8.719C31.087,13.291,25.643,26.7,14.551,26.7Z" transform="translate(0.532 0.491)" fill="#4caf50"/>
  <path id="Path_1713" data-name="Path 1713" d="M20.389,16.3l-.011.094c-.376-.187-2.209-1.084-2.55-1.207-.766-.284-.55-.045-2.021,1.64-.219.244-.436.262-.807.094a10.145,10.145,0,0,1-3-1.856,11.341,11.341,0,0,1-2.075-2.587c-.366-.632.4-.722,1.1-2.042a.687.687,0,0,0-.031-.655c-.094-.187-.84-2.025-1.152-2.757s-.609-.637-.84-.637a1.86,1.86,0,0,0-1.71.43c-2.017,2.217-1.509,4.5.217,6.937,3.392,4.44,5.2,5.257,8.5,6.392a5.171,5.171,0,0,0,2.35.151,3.847,3.847,0,0,0,2.52-1.782,3.094,3.094,0,0,0,.225-1.781c-.093-.169-.337-.262-.712-.431Z" transform="translate(1.494 1.588)" fill="#fafafa"/>
</svg>
