<svg xmlns="http://www.w3.org/2000/svg" width="28.92" height="29.85" viewBox="0 0 28.92 29.85">
  <path id="Icon_metro-calendar" data-name="Icon metro-calendar" d="M12.211,13.122h3.856v3.731H12.211Zm5.784,0h3.856v3.731H17.995Zm5.784,0h3.856v3.731H23.779ZM6.427,24.316h3.856v3.731H6.427Zm5.784,0h3.856v3.731H12.211Zm5.784,0h3.856v3.731H17.995Zm-5.784-5.6h3.856V22.45H12.211Zm5.784,0h3.856V22.45H17.995Zm5.784,0h3.856V22.45H23.779Zm-17.352,0h3.856V22.45H6.427ZM27.635,1.928V3.794H23.779V1.928h-13.5V3.794H6.427V1.928H2.571v29.85h28.92V1.928H27.635Zm1.928,27.984H4.5V9.391H29.563Z" transform="translate(-2.571 -1.928)" fill="#707070"/>
</svg>
