<svg xmlns="http://www.w3.org/2000/svg" width="29.5" height="27.25" viewBox="0 0 29.5 27.25">
  <path id="Icon_ionic-ios-star" data-name="Icon ionic-ios-star" d="M29.669,12.462H20.311L17.467,4.044a1.033,1.033,0,0,0-1.934,0l-2.844,8.418H3.268a1.017,1.017,0,0,0-1.018,1.01.736.736,0,0,0,.019.17.968.968,0,0,0,.426.713l7.691,5.376L7.435,28.243a1.008,1.008,0,0,0,.35,1.136.988.988,0,0,0,.573.246,1.254,1.254,0,0,0,.636-.227L16.5,24.091,24.007,29.4a1.2,1.2,0,0,0,.636.227.918.918,0,0,0,.566-.246,1,1,0,0,0,.35-1.136l-2.952-8.512L30.235,14.3l.184-.158a1.055,1.055,0,0,0,.331-.675A1.074,1.074,0,0,0,29.669,12.462Z" transform="translate(-1.75 -2.875)" fill="none" stroke="#707070" stroke-width="1"/>
</svg>
