<svg xmlns="http://www.w3.org/2000/svg" width="40" height="40" viewBox="0 0 40 40">
  <path id="path4642" d="M127.129,129.761c-5.431,0-6.112.035-8.245.122a14.666,14.666,0,0,0-4.851.925,10.218,10.218,0,0,0-5.85,5.851,14.7,14.7,0,0,0-.931,4.858c-.1,2.133-.123,2.814-.123,8.246s.025,6.113.123,8.246a14.659,14.659,0,0,0,.931,4.852,10.216,10.216,0,0,0,5.85,5.851,14.656,14.656,0,0,0,4.851.931c2.133.1,2.814.116,8.245.116s6.112-.031,8.245-.116a14.7,14.7,0,0,0,4.858-.931,10.229,10.229,0,0,0,5.844-5.851,14.655,14.655,0,0,0,.931-4.852c.1-2.133.123-2.814.123-8.246s-.025-6.113-.123-8.246a14.7,14.7,0,0,0-.931-4.858,10.231,10.231,0,0,0-5.844-5.851,14.707,14.707,0,0,0-4.858-.925C133.241,129.786,132.56,129.761,127.129,129.761Zm0,3.6c5.34,0,5.971.031,8.08.116a11.047,11.047,0,0,1,3.718.692,6.619,6.619,0,0,1,3.792,3.792,11.084,11.084,0,0,1,.692,3.719c.1,2.109.116,2.741.116,8.081s-.022,5.972-.116,8.081a11.039,11.039,0,0,1-.692,3.713,6.607,6.607,0,0,1-3.792,3.8,11.138,11.138,0,0,1-3.718.686c-2.108.1-2.739.116-8.08.116s-5.971-.031-8.08-.116a11.043,11.043,0,0,1-3.712-.686,6.594,6.594,0,0,1-3.8-3.8,11.08,11.08,0,0,1-.686-3.713c-.1-2.109-.116-2.74-.116-8.081s.022-5.972.116-8.081a11.129,11.129,0,0,1,.686-3.719,6.607,6.607,0,0,1,3.8-3.792,11.057,11.057,0,0,1,3.712-.692C121.158,133.382,121.789,133.363,127.129,133.363Zm10.677,3.321a2.4,2.4,0,1,0,2.4,2.4A2.4,2.4,0,0,0,137.806,136.684Zm-10.677,2.806A10.271,10.271,0,1,0,137.4,149.764,10.271,10.271,0,0,0,127.129,139.49Zm0,3.609a6.666,6.666,0,1,1-6.665,6.666A6.664,6.664,0,0,1,127.129,143.1Z" transform="translate(-107.129 -129.761)" fill="#fff"/>
</svg>
