<svg width="1643" height="1661" viewBox="0 0 1643 1661" fill="none" xmlns="http://www.w3.org/2000/svg">
<path d="M618.965 9.13448C590.432 20.4678 588.432 21.5345 584.165 27.9345C578.699 36.2012 578.699 40.8678 584.965 73.5345C591.499 107.934 593.632 113.401 602.832 119.534C613.499 126.868 617.099 126.201 656.565 110.468L690.299 97.0012L688.299 92.2011C685.365 85.1345 676.699 77.6678 669.499 76.2011C661.899 74.6011 657.499 75.5345 637.232 83.8011C626.165 88.3345 620.699 89.9345 620.299 88.8678C619.899 87.5345 613.365 53.5345 612.565 48.2012C612.432 47.0012 618.165 44.0678 628.299 39.9345C643.765 33.8012 644.299 33.6678 645.365 36.2012C645.899 37.8012 646.165 39.1345 646.032 39.2678C645.765 39.4012 640.565 41.5345 634.299 43.9345C628.032 46.3345 622.432 48.8678 621.765 49.4012C620.832 50.2012 625.499 78.8678 626.965 80.8678C627.632 81.9345 667.365 64.7345 670.032 62.3345C674.565 58.2011 678.299 49.6678 678.299 43.4012C678.299 40.6012 676.965 32.8678 675.499 26.3345C673.232 16.4678 671.765 13.2678 667.765 8.86782C657.099 -2.99885 649.365 -2.99885 618.965 9.13448Z" fill="white"/>
<path d="M536.965 42.2021C527.498 45.2688 492.965 59.5354 490.298 61.4021C488.432 62.6021 484.832 64.0688 482.165 64.4688C473.765 65.9354 438.032 81.1354 433.898 85.0021C429.098 89.4021 425.098 97.8021 424.965 103.135C424.965 106.735 442.165 193.135 443.232 194.469C444.032 195.535 455.898 190.202 459.898 186.869C464.832 182.735 468.832 174.335 468.965 168.202C468.965 165.802 466.565 152.069 463.632 137.802C460.698 123.402 458.298 110.735 458.298 109.402C458.298 106.735 480.832 97.6688 482.165 99.8021C482.698 100.602 486.298 117.002 490.165 136.202C494.165 155.535 497.765 171.802 498.298 172.469C500.298 174.602 514.698 166.202 518.698 160.335C524.698 151.935 524.698 146.069 518.432 115.669C515.365 101.135 512.965 88.6021 512.965 87.5354C512.965 85.5354 537.098 75.4021 538.298 77.0021C538.832 77.5354 542.432 93.8021 546.298 113.269C550.165 132.735 553.765 149.002 554.165 149.535C555.632 151.269 564.965 147.535 570.165 143.135C576.432 137.669 579.632 131.269 579.632 123.935C579.632 116.735 568.032 60.7354 565.632 55.9354C560.565 46.0688 546.032 39.1354 536.965 42.2021Z" fill="white"/>
<path d="M369.898 107.802C354.032 114.202 339.365 120.869 337.498 122.736C333.098 126.736 329.098 135.269 328.965 140.602C328.965 147.802 333.232 166.202 336.165 171.402C337.898 174.602 341.365 177.936 344.965 179.936C353.632 184.602 361.498 184.202 376.165 178.202C382.698 175.536 388.298 173.402 388.432 173.669C388.565 173.802 388.965 176.336 389.232 179.269L389.632 184.469L376.298 189.669C360.298 195.802 355.498 199.269 351.632 207.402C349.098 212.602 348.698 214.869 349.365 222.202C349.898 227.002 350.432 231.136 350.698 231.402C350.965 231.669 364.565 226.469 381.098 219.936C413.765 206.869 417.898 204.069 421.098 193.269C422.565 188.469 422.432 185.536 420.432 174.202C417.498 156.602 414.698 150.469 407.632 145.802C398.832 139.936 390.965 139.936 375.898 145.936C369.098 148.736 363.232 150.602 362.965 150.336C362.565 150.069 362.165 148.336 362.032 146.602C361.632 143.802 362.965 143.002 375.232 138.069C382.698 135.002 390.565 131.269 392.698 129.669C397.632 126.069 402.298 116.602 402.298 110.469C402.298 104.336 400.832 95.9356 399.765 96.069C399.365 96.069 385.898 101.402 369.898 107.802Z" fill="white"/>
<path d="M301.765 135.002C285.898 141.269 281.632 146.469 276.965 165.135L275.498 171.002L270.565 166.202C264.832 160.602 257.632 157.269 251.098 157.269C246.698 157.269 232.298 161.935 229.632 164.202C228.832 164.869 235.898 172.869 247.365 184.335L266.432 203.402L259.098 236.735C255.098 255.002 252.165 270.202 252.432 270.469C253.098 271.135 270.298 264.202 275.232 261.135C281.365 257.269 284.698 251.135 287.498 237.935C288.965 231.535 290.432 226.069 290.832 225.669C291.232 225.135 295.098 228.202 299.365 232.202C311.098 243.402 317.765 244.735 332.965 239.135L342.565 235.535L321.232 214.069L299.765 192.602L306.965 163.269C310.965 147.135 314.165 133.135 314.298 132.202C314.298 130.069 313.898 130.069 301.765 135.002Z" fill="white"/>
<path d="M90.9641 179.135C83.2308 182.735 79.2308 186.602 76.2974 193.535C73.3641 200.735 73.7641 205.002 79.7641 233.935C82.6974 248.335 84.9641 260.602 84.6974 261.269C84.4308 261.935 70.9641 249.535 54.6975 233.669L24.9641 205.002L16.4308 209.002C6.03078 213.802 0.830781 220.602 0.0307809 230.335C-0.369219 234.735 3.09745 254.469 12.2974 298.602C19.3641 332.602 25.2308 360.602 25.3641 360.869C26.0308 361.535 40.2975 354.335 42.8308 352.202C47.4975 347.802 50.5641 339.935 50.4308 332.069C50.2975 327.935 47.0975 309.535 43.0975 291.269C39.2308 272.869 36.2975 257.669 36.4308 257.402C36.6975 257.135 50.2975 269.935 66.8308 285.935C95.2308 313.535 96.6974 315.269 97.6308 321.002C99.3641 332.469 99.2308 332.335 108.697 327.669C120.164 322.202 124.964 315.002 124.831 303.402C124.831 293.935 100.831 177.002 98.9641 176.469C98.1641 176.202 94.6974 177.535 90.9641 179.135Z" fill="white"/>
<path d="M168.964 187.402C140.697 198.735 136.43 201.802 133.497 213.269C131.764 219.935 131.897 221.802 137.097 247.802C144.297 284.735 145.23 287.669 151.23 293.535C162.83 304.735 167.63 304.335 207.897 288.469C225.764 281.402 240.83 275.135 241.63 274.469C244.03 272.202 236.83 261.135 230.43 257.002C225.764 254.069 222.83 253.269 217.364 253.269C210.564 253.269 206.164 254.602 180.164 265.002L173.364 267.802L169.097 246.335C166.697 234.602 165.23 224.469 165.897 223.935C167.764 222.069 196.83 210.869 197.497 211.669C197.897 212.069 198.297 213.402 198.297 214.735C198.297 216.335 194.83 218.335 185.63 221.935C175.63 225.802 172.964 227.269 173.497 229.002C173.897 230.335 175.23 236.602 176.43 243.269C177.63 249.802 179.097 255.935 179.497 256.735C180.43 258.602 214.83 245.669 220.83 241.135C225.23 237.935 229.63 230.469 230.697 224.202C231.764 218.869 227.497 197.935 224.03 191.002C222.564 188.202 218.697 184.069 215.097 181.535C204.83 174.602 198.964 175.402 168.964 187.402Z" fill="white"/>
<path d="M1490.36 111.935C1466.36 121.402 1461.69 123.802 1457.42 128.335C1448.49 137.802 1448.36 140.469 1455.69 177.535C1460.62 202.869 1462.76 211.002 1465.42 215.002C1469.82 221.802 1479.42 227.135 1487.16 227.135C1497.69 227.135 1497.56 228.602 1489.96 190.202C1486.09 171.269 1482.89 154.469 1482.76 152.735C1482.36 149.935 1483.82 149.002 1495.69 144.202C1511.69 137.802 1516.49 134.469 1520.22 126.735C1523.82 119.269 1523.56 101.935 1519.69 101.002C1519.02 100.869 1505.82 105.802 1490.36 111.935Z" fill="white"/>
<path d="M1372.35 158.468C1355.15 165.401 1340.22 171.401 1339.29 171.801C1337.95 172.201 1338.09 173.534 1339.69 177.401C1342.49 184.068 1346.49 188.334 1353.02 191.268C1361.55 195.268 1367.95 194.468 1386.62 187.268C1396.09 183.534 1404.49 180.468 1405.55 180.201C1407.02 179.934 1408.49 185.001 1411.82 201.134C1414.22 212.868 1415.82 222.734 1415.55 223.134C1415.15 223.401 1407.69 226.468 1399.02 229.934C1383.29 236.068 1381.69 236.201 1381.69 231.134C1381.69 230.601 1387.42 227.801 1394.35 225.001C1401.29 222.334 1407.02 219.401 1407.02 218.601C1406.89 217.801 1405.55 210.868 1403.82 203.134C1401.55 193.001 1400.22 189.268 1398.89 189.534C1393.82 190.601 1365.02 202.468 1361.29 205.001C1355.95 208.601 1351.29 215.401 1350.22 221.668C1349.55 224.734 1350.22 231.401 1352.09 240.334C1355.29 256.201 1358.75 261.934 1368.35 266.734C1377.55 271.534 1382.22 270.734 1409.42 260.068C1437.69 249.134 1444.09 244.601 1447.02 233.801C1448.62 228.334 1448.09 225.001 1442.49 195.801C1439.15 178.201 1435.29 161.801 1433.95 159.134C1432.62 156.601 1428.62 152.468 1425.15 150.068C1414.35 142.868 1409.55 143.534 1372.35 158.468Z" fill="white"/>
<path d="M1277.02 196.735C1253.56 206.069 1233.82 213.935 1233.02 214.202C1230.76 215.135 1237.29 226.602 1241.96 230.202C1251.42 237.269 1260.49 237.935 1273.16 232.469C1276.62 231.002 1279.56 229.935 1279.69 230.069C1279.82 230.335 1275.29 250.202 1269.56 274.469C1263.82 298.602 1259.42 318.602 1259.69 318.869C1260.22 319.402 1345.56 285.935 1347.29 284.602C1349.16 283.002 1341.96 271.669 1336.62 267.935C1328.76 262.335 1319.82 261.802 1308.09 266.335C1303.02 268.202 1299.02 269.402 1299.02 269.002C1299.02 268.602 1303.82 248.735 1309.69 224.869C1315.56 200.869 1320.22 180.869 1320.09 180.469C1319.82 180.069 1300.49 187.269 1277.02 196.735Z" fill="white"/>
<path d="M1201.02 227.001C1197.29 227.935 1135.02 252.335 1133.82 253.268C1132.76 254.201 1138.09 264.468 1141.56 267.668C1146.09 272.068 1153.69 275.135 1159.82 275.135C1162.49 275.135 1172.76 271.935 1183.42 267.801C1195.16 263.135 1202.49 260.868 1203.02 261.801C1204.76 264.601 1211.29 303.401 1210.22 304.335C1208.49 305.801 1181.29 316.468 1179.29 316.468C1178.22 316.468 1177.69 315.268 1177.96 313.535C1178.22 311.401 1180.36 309.801 1186.36 307.401C1190.76 305.668 1196.22 303.401 1198.49 302.468L1202.76 300.735L1199.69 285.935C1198.09 277.668 1196.36 270.735 1196.09 270.335C1195.29 269.668 1164.62 281.535 1157.42 285.268C1151.02 288.601 1145.69 298.335 1145.69 306.735C1145.69 314.735 1149.02 331.268 1151.69 336.468C1155.82 344.335 1166.62 351.135 1175.16 351.135C1179.56 351.135 1224.36 334.068 1232.09 329.535C1238.62 325.535 1243.02 317.001 1243.02 308.201C1243.02 297.001 1231.96 244.201 1228.36 238.468C1223.16 230.068 1210.22 224.601 1201.02 227.001Z" fill="white"/>
<path d="M1056.36 245.001C1045.42 248.201 1026.76 256.334 1022.22 259.801C1011.82 267.668 1007.96 280.868 1011.02 298.468L1012.76 308.468L1016.89 301.534C1021.82 293.268 1025.56 290.868 1048.49 281.801C1061.42 276.734 1066.36 275.401 1069.56 275.934C1076.89 277.401 1082.36 288.601 1078.49 294.334C1077.16 296.468 1069.29 300.201 1053.42 306.468C1035.42 313.534 1029.29 316.601 1025.42 320.468C1017.69 328.201 1017.69 330.468 1026.09 371.401C1030.22 391.268 1033.96 407.801 1034.22 408.201C1035.42 409.401 1046.36 404.334 1050.09 400.734C1055.56 395.534 1059.02 388.068 1059.02 381.534C1058.89 378.334 1057.42 368.868 1055.69 360.468C1053.96 352.068 1052.62 345.134 1052.76 345.001C1058.09 342.068 1092.22 329.801 1094.89 329.801C1099.82 329.801 1103.02 333.934 1103.02 340.201C1103.02 346.334 1098.89 349.934 1087.02 354.468C1081.56 356.601 1074.49 359.268 1071.56 360.601L1066.09 362.868L1067.69 371.668C1069.42 380.601 1068.62 388.334 1065.56 393.934C1064.89 395.401 1064.49 396.468 1064.89 396.468C1066.76 396.468 1113.42 377.401 1117.16 375.001C1123.69 371.001 1131.69 361.401 1133.42 355.401C1139.42 335.668 1130.22 307.001 1115.69 300.068L1110.36 297.401L1110.22 287.934C1109.96 263.801 1093.16 245.001 1070.76 243.668C1066.09 243.401 1059.69 244.068 1056.36 245.001Z" fill="white"/>
<mask id="mask0_3225_1750" style="mask-type:alpha" maskUnits="userSpaceOnUse" x="22" y="161" width="1621" height="1500">
<path d="M715.871 173.862C675.204 189.329 590.671 221.329 377.871 301.862C345.204 314.262 274.804 340.929 221.204 361.195C167.738 381.462 113.071 401.995 100.004 406.929L76.1376 415.862L67.6042 426.529C24.8042 480.129 12.0042 525.195 29.7376 560.395C40.5376 581.595 67.4709 601.062 101.871 612.395C116.138 617.062 136.538 621.729 142.538 621.862C144.671 621.862 156.671 617.862 169.204 613.062C198.271 601.595 208.004 597.862 285.204 567.862C320.404 554.262 352.804 541.595 357.204 539.862C361.604 538.129 391.071 526.795 422.538 514.529C454.138 502.262 486.804 489.595 495.204 486.262C578.404 453.729 629.071 434.662 637.471 432.395C650.004 429.329 661.471 429.062 665.604 431.995L668.671 434.129L667.871 471.595C667.604 492.262 666.938 549.995 666.538 599.862C665.338 764.795 663.204 1004.66 661.871 1139.86C660.671 1256.53 660.804 1275.2 662.538 1289.33C667.071 1325.86 678.538 1351.2 699.471 1370.53C720.404 1389.86 746.938 1399.46 779.871 1399.33C794.671 1399.33 796.671 1399.06 806.538 1395.2C812.404 1392.8 825.604 1387.73 835.871 1383.86C846.138 1380 872.804 1369.73 895.204 1361.2C951.871 1339.46 1064.94 1296.13 1165.2 1257.73C1188 1249.06 1227.87 1233.86 1253.87 1223.86C1279.87 1213.86 1319.87 1198.66 1342.54 1189.86C1365.34 1181.2 1406.14 1165.6 1433.2 1155.2C1460.4 1144.8 1497.6 1130.53 1515.87 1123.6C1572.27 1102.26 1585.6 1094.66 1608.54 1071.33C1622.94 1056.66 1629.87 1046.53 1638.14 1028.26L1642.54 1018.53L1642.14 711.195C1641.74 462.795 1641.2 401.329 1639.87 390.529C1632.8 338.795 1609.87 308.795 1569.47 299.195C1550.4 294.662 1520.67 295.995 1498 302.662C1494 303.729 1414.54 333.195 1321.34 367.995C1228.14 402.795 1139.34 435.995 1124 441.595L1096.14 451.862L1089.74 465.195C1076.27 493.462 1070.94 514.262 1070.8 538.529C1070.67 556.662 1072.67 566.395 1079.74 581.195C1087.34 597.329 1099.47 610.662 1117.2 622.529C1131.2 631.729 1141.2 636.662 1156.4 641.729C1178.14 649.062 1173.07 650.129 1232.54 626.129C1261.47 614.395 1311.6 594.262 1343.87 581.195C1376.14 568.262 1404.14 556.662 1406.14 555.729C1410.94 553.329 1420.54 553.329 1424.14 555.862C1425.74 556.929 1428.27 559.995 1429.87 562.529C1432.67 567.062 1432.67 568.395 1432.67 610.129C1432.54 648.662 1431.74 709.062 1429.07 880.129L1428.27 932.395L1421.34 935.062C1417.6 936.395 1368.4 955.462 1311.87 977.195C1180.67 1027.73 1074.14 1068.8 1025.87 1087.46C1004.94 1095.46 974.938 1107.06 959.204 1113.2C926.138 1126 917.338 1128.53 906.004 1128.53C896.804 1128.53 890.538 1126.4 886.271 1121.73C878.938 1113.73 879.471 1131.46 878.538 835.062C876.938 274.262 876.804 260.795 874.671 250.395C870.404 230.129 860.538 209.729 849.071 196.929C829.471 175.462 794.004 161.729 758.671 161.995C746.671 162.129 746.138 162.262 715.871 173.862Z" fill="white"/>
<path d="M502.537 605.061C487.071 607.994 506.004 601.194 303.871 677.194C251.871 696.794 204.804 714.661 199.337 716.794C152.937 736.128 140.271 760.928 164.404 785.461C167.871 788.928 173.204 793.594 176.271 795.728C182.271 799.861 182.271 799.861 271.204 817.994C292.804 822.528 310.937 826.528 311.337 826.928C312.137 827.728 290.804 873.728 222.671 1019.19C200.937 1065.73 200.271 1067.19 201.204 1072.66C201.737 1075.46 202.537 1078.13 203.071 1078.39C203.604 1078.79 214.137 1070.53 226.537 1059.99C239.071 1049.59 285.871 1010.53 330.537 973.328C375.337 935.994 413.071 904.394 414.671 902.928C417.471 900.528 417.471 900.528 451.071 954.394C474.671 992.528 486.271 1009.86 490.271 1013.33C504.271 1025.59 519.737 1028.26 534.271 1021.19C543.071 1016.79 559.871 1000.13 561.337 994.261C562.271 990.794 560.004 789.328 558.004 681.861C557.071 635.328 556.937 632.928 554.004 626.528C546.004 608.528 526.671 600.528 502.537 605.061Z" fill="white"/>
<path d="M1467.2 1238.66C1457.07 1240.66 1442.94 1245.19 1434.67 1249.19C1422.27 1255.19 1413.87 1261.19 1402.8 1272.13C1380 1294.66 1368.54 1322.79 1368.54 1355.86C1368.54 1421.19 1420.27 1472.79 1485.74 1472.79C1531.34 1472.79 1571.07 1448.39 1591.2 1407.86C1600.14 1389.73 1603.6 1375.19 1603.47 1354.53C1603.34 1317.19 1586.8 1283.73 1557.6 1261.86C1536 1245.46 1517.2 1239.19 1489.2 1238.53C1478.94 1238.26 1469.07 1238.39 1467.2 1238.66Z" fill="white"/>
<path d="M994.537 1425.86C967.337 1429.46 943.737 1441.33 924.537 1460.93C886.537 1499.59 880.404 1561.33 910.137 1606.79C933.337 1642.26 972.404 1662.26 1014.54 1660.13C1067.6 1657.33 1109.74 1622.93 1123.34 1571.19C1125.6 1562.26 1126.27 1556.26 1126.27 1542.53C1126.14 1523.46 1124 1512.39 1116.8 1495.46C1101.47 1458.79 1064 1431.06 1023.2 1425.99C1010.67 1424.39 1006.27 1424.39 994.537 1425.86Z" fill="white"/>
</mask>
<g mask="url(#mask0_3225_1750)">
<path d="M850.5 71.4922L-103 472.992L2.5 608.492L102.5 733.492L228 879.492L138 1139.99L414 994.492L529.5 1089.99L624.5 954.492L584.5 1330.99L820.5 1491.49L966 1782.49L1196.5 1581.99L1227 1330.99L1500 1581.99L1705.5 1247.5L1678.5 769.5V176.492L1096.5 427.492L966 517.992L850.5 71.4922Z" fill="white"/>
</g>
</svg>
