<svg width="469" height="212" viewBox="0 0 469 212" fill="none" xmlns="http://www.w3.org/2000/svg">
<path d="M72.8341 77.4927C92.6292 77.4927 108.381 83.048 120.089 94.1586C131.797 105.269 137.669 120.493 137.669 139.831C137.669 162.721 130.602 180.301 116.503 192.642C102.404 204.983 82.2218 211.136 55.9924 211.136C33.2087 211.136 14.82 207.444 0.791138 200.096V162.686C8.17475 166.588 16.7538 169.788 26.5635 172.284C36.3731 174.745 45.6554 175.976 54.4454 175.976C80.8506 175.976 94.0708 165.147 94.0708 143.523C94.0708 122.919 80.3935 112.618 53.039 112.618C48.0814 112.618 42.6316 113.11 36.6544 114.094C30.6772 115.079 25.8251 116.134 22.0981 117.224L4.86972 107.976L12.5698 3.34015H123.64V40.1176H50.5426L46.7805 80.411L51.6677 79.4265C57.3637 78.1607 64.4308 77.4927 72.8341 77.4927Z" fill="#F8F8F8"/>
<path d="M304.257 105.761C304.257 141.554 298.386 168.065 286.677 185.293C274.969 202.487 256.897 211.101 232.531 211.101C208.903 211.101 191.077 202.205 179.088 184.45C167.098 166.694 161.086 140.464 161.086 105.761C161.086 69.5817 166.922 42.8953 178.595 25.7372C190.269 8.57905 208.235 0 232.531 0C256.159 0 274.02 8.96582 286.115 26.9326C298.21 44.8994 304.257 71.1991 304.257 105.761ZM204.122 105.832C204.122 130.971 206.302 149.008 210.626 159.908C214.951 170.808 222.264 176.257 232.531 176.257C242.587 176.257 249.865 170.737 254.365 159.697C258.831 148.657 261.081 130.725 261.081 105.832C261.081 80.6923 258.831 62.6201 254.295 51.6501C249.759 40.6802 242.516 35.1601 232.531 35.1601C222.37 35.1601 215.092 40.645 210.697 51.6501C206.302 62.6552 204.122 80.6923 204.122 105.832Z" fill="#F8F8F8"/>
<path d="M468.209 105.761C468.209 141.554 462.337 168.065 450.629 185.293C438.921 202.487 420.848 211.101 396.482 211.101C372.855 211.101 355.029 202.205 343.039 184.45C331.05 166.694 325.037 140.464 325.037 105.761C325.037 69.5817 330.874 42.8953 342.547 25.7372C354.22 8.57905 372.187 0 396.482 0C420.11 0 437.971 8.96582 450.066 26.9326C462.161 44.8994 468.209 71.1991 468.209 105.761ZM368.073 105.832C368.073 130.971 370.253 149.008 374.578 159.908C378.902 170.808 386.216 176.257 396.482 176.257C406.538 176.257 413.816 170.737 418.317 159.697C422.782 148.657 425.032 130.725 425.032 105.832C425.032 80.6923 422.782 62.6201 418.247 51.6501C413.711 40.6802 406.468 35.1601 396.482 35.1601C386.321 35.1601 379.043 40.645 374.648 51.6501C370.253 62.6201 368.073 80.6923 368.073 105.832Z" fill="#F8F8F8"/>
<path d="M259.774 203.812H222.797C217.677 203.812 213.353 199.627 213.457 194.473C213.526 189.492 217.608 185.479 222.624 185.479H243.274C248.636 185.479 253.133 181.259 253.271 175.898C253.409 170.363 248.947 165.832 243.447 165.832H203.495C202.665 165.105 203.184 164.206 203.876 164.206H243.24C249.639 164.206 255 169.464 254.897 175.863C254.793 182.089 249.708 187.105 243.447 187.105H222.762C218.646 187.105 215.187 190.322 215.083 194.404C214.945 198.658 218.369 202.152 222.624 202.152H259.739C260.189 202.152 260.57 202.498 260.604 202.913C260.604 203.432 260.224 203.812 259.774 203.812Z" fill="#1C2B6B"/>
<path d="M262.023 206.995H266.173V198.658H262.023C259.705 198.658 257.872 200.526 257.872 202.809C257.872 205.127 259.74 206.995 262.023 206.995Z" fill="url(#paint0_linear_5_635)"/>
<path d="M270.324 201.702H268.387C267.937 201.702 267.591 201.356 267.591 200.907C267.591 200.457 267.937 200.111 268.387 200.111H270.324C270.774 200.111 271.12 200.457 271.12 200.907C271.12 201.322 270.739 201.702 270.324 201.702Z" fill="#192B59"/>
<path d="M270.324 205.507H268.387C267.937 205.507 267.591 205.161 267.591 204.712C267.591 204.262 267.937 203.916 268.387 203.916H270.324C270.774 203.916 271.12 204.262 271.12 204.712C271.12 205.161 270.739 205.507 270.324 205.507Z" fill="#192B59"/>
<path d="M266.657 207.79C265.862 207.79 265.205 207.133 265.205 206.337V199.315C265.205 198.52 265.862 197.863 266.657 197.863C267.453 197.863 268.11 198.52 268.11 199.315V206.337C268.145 207.133 267.488 207.79 266.657 207.79Z" fill="url(#paint1_linear_5_635)"/>
<path d="M200.693 113.462H114.079C110.689 113.462 107.921 110.695 107.921 107.305V93.1571C107.921 89.7672 110.689 87 114.079 87H200.693C204.083 87 206.85 89.7672 206.85 93.1571V107.305C206.816 110.695 204.083 113.462 200.693 113.462Z" fill="url(#paint2_linear_5_635)"/>
<path d="M164.823 113.462H116.708V111.04C116.708 109.242 118.16 107.789 119.959 107.789H161.571C163.37 107.789 164.823 109.242 164.823 111.04V113.462Z" fill="url(#paint3_linear_5_635)"/>
<path d="M118.679 99.3142C119.749 99.3142 120.616 98.4469 120.616 97.3771C120.616 96.3073 119.749 95.4401 118.679 95.4401C117.609 95.4401 116.742 96.3073 116.742 97.3771C116.742 98.4469 117.609 99.3142 118.679 99.3142Z" fill="#20D357"/>
<path d="M124.387 99.3142C125.456 99.3142 126.324 98.4469 126.324 97.3771C126.324 96.3073 125.456 95.4401 124.387 95.4401C123.317 95.4401 122.449 96.3073 122.449 97.3771C122.449 98.4469 123.317 99.3142 124.387 99.3142Z" fill="#FFAC00"/>
<path d="M130.129 99.3142C131.199 99.3142 132.066 98.4469 132.066 97.3771C132.066 96.3073 131.199 95.4401 130.129 95.4401C129.059 95.4401 128.192 96.3073 128.192 97.3771C128.192 98.4469 129.059 99.3142 130.129 99.3142Z" fill="#E64D4E"/>
<path d="M202.355 98.0742C202.738 95.717 201.137 93.496 198.78 93.1134C196.423 92.7309 194.202 94.3316 193.819 96.6888C193.437 99.046 195.037 101.267 197.395 101.65C199.752 102.032 201.973 100.431 202.355 98.0742Z" fill="#FFAC00"/>
<path d="M190.939 98.9337H173.056C172.537 98.9337 172.087 98.5186 172.087 97.9652V96.7545C172.087 96.2356 172.502 95.7859 173.056 95.7859H190.939C191.458 95.7859 191.907 96.201 191.907 96.7545V97.9652C191.873 98.484 191.458 98.9337 190.939 98.9337Z" fill="#FFAC00"/>
<path d="M198.03 113.462H116.742V118.097H198.03V113.462Z" fill="#1C2B6B"/>
<path d="M200.693 144.524H114.079C110.689 144.524 107.921 141.757 107.921 138.367V124.219C107.921 120.829 110.689 118.062 114.079 118.062H200.693C204.083 118.062 206.85 120.829 206.85 124.219V138.367C206.816 141.757 204.083 144.524 200.693 144.524Z" fill="url(#paint4_linear_5_635)"/>
<path d="M164.823 144.524H116.708V142.103C116.708 140.304 118.16 138.851 119.959 138.851H161.571C163.37 138.851 164.823 140.304 164.823 142.103V144.524Z" fill="url(#paint5_linear_5_635)"/>
<path d="M120.582 128.439C120.582 129.512 119.717 130.377 118.645 130.377C117.572 130.377 116.708 129.512 116.708 128.439C116.708 127.367 117.572 126.502 118.645 126.502C119.717 126.502 120.582 127.367 120.582 128.439Z" fill="#20D357"/>
<path d="M126.324 128.439C126.324 129.512 125.459 130.377 124.387 130.377C123.314 130.377 122.449 129.512 122.449 128.439C122.449 127.367 123.314 126.502 124.387 126.502C125.459 126.502 126.324 127.367 126.324 128.439Z" fill="#FFAC00"/>
<path d="M132.066 128.439C132.066 129.512 131.201 130.377 130.129 130.377C129.056 130.377 128.192 129.512 128.192 128.439C128.192 127.367 129.056 126.502 130.129 126.502C131.201 126.502 132.066 127.367 132.066 128.439Z" fill="#E64D4E"/>
<path d="M199.736 132.435C201.942 131.521 202.99 128.992 202.076 126.786C201.162 124.579 198.633 123.532 196.427 124.445C194.22 125.359 193.173 127.889 194.087 130.095C195 132.301 197.53 133.349 199.736 132.435Z" fill="#FFAC00"/>
<path d="M190.939 129.996H173.056C172.537 129.996 172.087 129.581 172.087 129.027V127.817C172.087 127.298 172.502 126.848 173.056 126.848H190.939C191.458 126.848 191.907 127.263 191.907 127.817V129.027C191.873 129.546 191.458 129.996 190.939 129.996Z" fill="#FFAC00"/>
<path d="M198.03 144.524H116.742V149.159H198.03V144.524Z" fill="#1C2B6B"/>
<path d="M200.693 175.586H114.079C110.689 175.586 107.921 172.819 107.921 169.429V155.282C107.921 151.892 110.689 149.125 114.079 149.125H200.693C204.083 149.125 206.85 151.892 206.85 155.282V169.429C206.816 172.819 204.083 175.586 200.693 175.586Z" fill="url(#paint6_linear_5_635)"/>
<path d="M164.823 175.586H116.708V173.165C116.708 171.366 118.16 169.914 119.959 169.914H161.571C163.37 169.914 164.823 171.366 164.823 173.165V175.586Z" fill="url(#paint7_linear_5_635)"/>
<path d="M118.679 161.439C119.749 161.439 120.616 160.572 120.616 159.502C120.616 158.432 119.749 157.565 118.679 157.565C117.609 157.565 116.742 158.432 116.742 159.502C116.742 160.572 117.609 161.439 118.679 161.439Z" fill="#20D357"/>
<path d="M124.387 161.439C125.456 161.439 126.324 160.572 126.324 159.502C126.324 158.432 125.456 157.565 124.387 157.565C123.317 157.565 122.449 158.432 122.449 159.502C122.449 160.572 123.317 161.439 124.387 161.439Z" fill="#FFAC00"/>
<path d="M130.129 161.439C131.199 161.439 132.066 160.572 132.066 159.502C132.066 158.432 131.199 157.565 130.129 157.565C129.059 157.565 128.192 158.432 128.192 159.502C128.192 160.572 129.059 161.439 130.129 161.439Z" fill="#E64D4E"/>
<path d="M198.065 163.826C200.453 163.826 202.388 161.89 202.388 159.502C202.388 157.114 200.453 155.178 198.065 155.178C195.677 155.178 193.741 157.114 193.741 159.502C193.741 161.89 195.677 163.826 198.065 163.826Z" fill="#FFAC00"/>
<path d="M190.939 161.058H173.056C172.537 161.058 172.087 160.643 172.087 160.09V158.879C172.087 158.36 172.502 157.911 173.056 157.911H190.939C191.458 157.911 191.907 158.326 191.907 158.879V160.09C191.873 160.609 191.458 161.058 190.939 161.058Z" fill="#FFAC00"/>
<path d="M198.03 175.586H116.742V180.221H198.03V175.586Z" fill="#1C2B6B"/>
<path d="M200.693 206.649H114.079C110.689 206.649 107.921 203.881 107.921 200.492V186.344C107.921 182.954 110.689 180.187 114.079 180.187H200.693C204.083 180.187 206.85 182.954 206.85 186.344V200.492C206.816 203.881 204.083 206.649 200.693 206.649Z" fill="url(#paint8_linear_5_635)"/>
<path d="M164.823 206.649H116.708V204.227C116.708 202.429 118.16 200.976 119.959 200.976H161.571C163.37 200.976 164.823 202.429 164.823 204.227V206.649Z" fill="url(#paint9_linear_5_635)"/>
<path d="M120.582 190.564C120.582 191.636 119.717 192.501 118.645 192.501C117.572 192.501 116.708 191.636 116.708 190.564C116.708 189.492 117.572 188.627 118.645 188.627C119.717 188.627 120.582 189.492 120.582 190.564Z" fill="#20D357"/>
<path d="M126.324 190.564C126.324 191.636 125.459 192.501 124.387 192.501C123.314 192.501 122.449 191.636 122.449 190.564C122.449 189.492 123.314 188.627 124.387 188.627C125.459 188.627 126.324 189.492 126.324 190.564Z" fill="#FFAC00"/>
<path d="M132.066 190.564C132.066 191.636 131.201 192.501 130.129 192.501C129.056 192.501 128.192 191.636 128.192 190.564C128.192 189.492 129.056 188.627 130.129 188.627C131.201 188.627 132.066 189.492 132.066 190.564Z" fill="#E64D4E"/>
<path d="M199.737 194.561C201.943 193.647 202.991 191.118 202.077 188.912C201.163 186.705 198.634 185.658 196.428 186.572C194.222 187.485 193.174 190.015 194.088 192.221C195.002 194.427 197.531 195.475 199.737 194.561Z" fill="#FFAC00"/>
<path d="M190.939 192.121H173.056C172.537 192.121 172.087 191.706 172.087 191.152V189.941C172.087 189.423 172.502 188.973 173.056 188.973H190.939C191.458 188.973 191.907 189.388 191.907 189.941V191.152C191.873 191.671 191.458 192.121 190.939 192.121Z" fill="#FFAC00"/>
<path d="M198.03 206.649H116.742V211.284H198.03V206.649Z" fill="#1C2B6B"/>
<path d="M261.919 162.062H249.674C247.598 162.062 245.903 160.367 245.903 158.291V146.046C245.903 143.971 247.598 142.276 249.674 142.276H261.919C263.994 142.276 265.689 143.971 265.689 146.046V158.291C265.689 160.367 263.994 162.062 261.919 162.062Z" fill="url(#paint10_linear_5_635)"/>
<path d="M260.921 157.305C263.757 154.469 263.757 149.869 260.921 147.032C258.084 144.196 253.485 144.196 250.648 147.032C247.811 149.869 247.811 154.469 250.648 157.305C253.485 160.142 258.084 160.142 260.921 157.305Z" fill="#1C2B6B"/>
<path d="M254.724 152.169C254.724 152.895 254.136 153.483 253.41 153.483C252.683 153.483 252.095 152.895 252.095 152.169C252.095 151.442 252.683 150.854 253.41 150.854C254.136 150.889 254.724 151.442 254.724 152.169Z" fill="#0B1228"/>
<path d="M259.463 152.169C259.463 152.895 258.875 153.483 258.148 153.483C257.422 153.483 256.834 152.895 256.834 152.169C256.834 151.442 257.422 150.854 258.148 150.854C258.875 150.889 259.463 151.442 259.463 152.169Z" fill="#0B1228"/>
<path d="M337.43 203.536H326.707C324.354 203.536 322.452 201.633 322.452 199.281C322.452 196.929 324.354 195.026 326.707 195.026H337.43C346.077 195.026 353.134 187.97 353.134 179.322V155.766C353.134 153.414 355.036 151.511 357.388 151.511C359.741 151.511 361.643 153.414 361.643 155.766V179.322C361.643 192.64 350.782 203.536 337.43 203.536Z" fill="url(#paint11_linear_5_635)"/>
<path d="M292.047 208.274H334.559V207.929C334.559 199.973 328.056 193.435 320.065 193.435H306.506C298.55 193.435 292.013 199.938 292.013 207.929V208.274H292.047Z" fill="url(#paint12_radial_5_635)"/>
<path d="M296.959 208.275H326.465V193.401C326.465 185.306 319.823 178.665 311.729 178.665C303.635 178.665 296.993 185.306 296.993 193.401V208.275H296.959Z" fill="url(#paint13_linear_5_635)"/>
<path d="M338.71 130.238C340.543 130.238 342.03 131.726 342.03 133.559V162.027H321.899V147.084C321.899 137.779 329.439 130.238 338.71 130.238Z" fill="#F2DAD4"/>
<path d="M290.041 130.238C288.207 130.238 286.72 131.726 286.72 133.559V162.027H306.852V147.084C306.852 137.779 299.346 130.238 290.041 130.238Z" fill="#E64D4E"/>
<path d="M299.172 152.169H294.157C293.707 152.169 293.327 151.788 293.327 151.338V138.886C293.327 138.436 293.707 138.056 294.157 138.056C297.374 138.056 300.003 140.685 300.003 143.902V151.338C300.003 151.823 299.622 152.169 299.172 152.169Z" fill="url(#paint14_linear_5_635)"/>
<path d="M338.71 130.238C340.543 130.238 342.03 131.726 342.03 133.559V162.027H321.899V147.084C321.899 137.779 329.439 130.238 338.71 130.238Z" fill="#E64D4E"/>
<path d="M329.578 152.169H334.593C335.043 152.169 335.423 151.788 335.423 151.338V138.886C335.423 138.436 335.043 138.056 334.593 138.056C331.376 138.056 328.747 140.685 328.747 143.902V151.338C328.782 151.823 329.128 152.169 329.578 152.169Z" fill="url(#paint15_linear_5_635)"/>
<path d="M307.302 184.165H321.449C332.829 184.165 342.031 174.964 342.031 163.584C342.031 152.203 332.829 143.002 321.449 143.002H307.302C295.921 143.002 286.72 152.203 286.72 163.584C286.72 174.929 295.921 184.165 307.302 184.165Z" fill="#E64D4E"/>
<path d="M308.304 184.165H320.134C323.801 184.165 326.776 181.19 326.776 177.523C326.776 173.857 323.801 170.882 320.134 170.882H308.304C304.638 170.882 301.663 173.857 301.663 177.523C301.663 181.19 304.638 184.165 308.304 184.165Z" fill="#E28D91"/>
<path d="M309.896 177.731C310.38 177.108 311.279 177.005 311.902 177.489C312.282 177.8 312.767 178.008 313.32 178.112V176.209C313.009 176.036 312.732 175.794 312.525 175.448L311.556 173.753C310.795 172.404 311.764 170.744 313.32 170.744H315.257C316.814 170.744 317.782 172.439 317.021 173.753L316.053 175.448C315.845 175.794 315.569 176.071 315.257 176.209V178.146C315.811 178.042 316.295 177.835 316.71 177.558C317.333 177.108 318.232 177.212 318.682 177.869C319.131 178.492 319.028 179.391 318.37 179.841C317.263 180.671 315.914 181.086 314.358 181.086C312.767 181.086 311.348 180.602 310.207 179.737C309.515 179.253 309.411 178.354 309.896 177.731Z" fill="#192B59"/>
<path d="M306.471 208.274H316.433C316.433 205.542 314.22 203.293 311.452 203.293C308.685 203.293 306.471 205.507 306.471 208.274Z" fill="#192B59"/>
<path d="M293.88 208.274H303.842C303.842 205.542 301.629 203.293 298.861 203.293C296.094 203.293 293.88 205.507 293.88 208.274Z" fill="#192B59"/>
<path d="M326.326 169.36C328.198 169.36 329.716 167.842 329.716 165.97C329.716 164.098 328.198 162.58 326.326 162.58C324.454 162.58 322.936 164.098 322.936 165.97C322.936 167.842 324.454 169.36 326.326 169.36Z" fill="#192B59"/>
<path d="M302.148 169.36C304.02 169.36 305.538 167.842 305.538 165.97C305.538 164.098 304.02 162.58 302.148 162.58C300.275 162.58 298.758 164.098 298.758 165.97C298.758 167.842 300.275 169.36 302.148 169.36Z" fill="#192B59"/>
<defs>
<linearGradient id="paint0_linear_5_635" x1="257.857" y1="202.811" x2="266.193" y2="202.811" gradientUnits="userSpaceOnUse">
<stop stop-color="#4E9CFF"/>
<stop offset="0.193" stop-color="#4190F5"/>
<stop offset="0.7095" stop-color="#2274DD"/>
<stop offset="1" stop-color="#176AD4"/>
</linearGradient>
<linearGradient id="paint1_linear_5_635" x1="265.201" y1="202.811" x2="270.13" y2="202.811" gradientUnits="userSpaceOnUse">
<stop stop-color="#4E9CFF"/>
<stop offset="0.193" stop-color="#4190F5"/>
<stop offset="0.7095" stop-color="#2274DD"/>
<stop offset="1" stop-color="#176AD4"/>
</linearGradient>
<linearGradient id="paint2_linear_5_635" x1="107.919" y1="100.241" x2="206.83" y2="100.241" gradientUnits="userSpaceOnUse">
<stop stop-color="#4E9CFF"/>
<stop offset="0.193" stop-color="#4190F5"/>
<stop offset="0.7095" stop-color="#2274DD"/>
<stop offset="1" stop-color="#176AD4"/>
</linearGradient>
<linearGradient id="paint3_linear_5_635" x1="140.78" y1="115.392" x2="140.78" y2="107.557" gradientUnits="userSpaceOnUse">
<stop stop-color="#E5E5E5"/>
<stop offset="0.4764" stop-color="#F4F4F4"/>
<stop offset="1" stop-color="white"/>
</linearGradient>
<linearGradient id="paint4_linear_5_635" x1="107.919" y1="131.303" x2="206.83" y2="131.303" gradientUnits="userSpaceOnUse">
<stop stop-color="#4E9CFF"/>
<stop offset="0.193" stop-color="#4190F5"/>
<stop offset="0.7095" stop-color="#2274DD"/>
<stop offset="1" stop-color="#176AD4"/>
</linearGradient>
<linearGradient id="paint5_linear_5_635" x1="140.78" y1="146.455" x2="140.78" y2="138.619" gradientUnits="userSpaceOnUse">
<stop stop-color="#E5E5E5"/>
<stop offset="0.4764" stop-color="#F4F4F4"/>
<stop offset="1" stop-color="white"/>
</linearGradient>
<linearGradient id="paint6_linear_5_635" x1="107.919" y1="162.366" x2="206.83" y2="162.366" gradientUnits="userSpaceOnUse">
<stop stop-color="#4E9CFF"/>
<stop offset="0.193" stop-color="#4190F5"/>
<stop offset="0.7095" stop-color="#2274DD"/>
<stop offset="1" stop-color="#176AD4"/>
</linearGradient>
<linearGradient id="paint7_linear_5_635" x1="140.78" y1="177.517" x2="140.78" y2="169.682" gradientUnits="userSpaceOnUse">
<stop stop-color="#E5E5E5"/>
<stop offset="0.4764" stop-color="#F4F4F4"/>
<stop offset="1" stop-color="white"/>
</linearGradient>
<linearGradient id="paint8_linear_5_635" x1="107.919" y1="193.428" x2="206.83" y2="193.428" gradientUnits="userSpaceOnUse">
<stop stop-color="#4E9CFF"/>
<stop offset="0.193" stop-color="#4190F5"/>
<stop offset="0.7095" stop-color="#2274DD"/>
<stop offset="1" stop-color="#176AD4"/>
</linearGradient>
<linearGradient id="paint9_linear_5_635" x1="140.78" y1="208.58" x2="140.78" y2="200.744" gradientUnits="userSpaceOnUse">
<stop stop-color="#E5E5E5"/>
<stop offset="0.4764" stop-color="#F4F4F4"/>
<stop offset="1" stop-color="white"/>
</linearGradient>
<linearGradient id="paint10_linear_5_635" x1="250.577" y1="147.967" x2="266.293" y2="160.651" gradientUnits="userSpaceOnUse">
<stop stop-color="#4E9CFF"/>
<stop offset="0.193" stop-color="#4190F5"/>
<stop offset="0.7095" stop-color="#2274DD"/>
<stop offset="1" stop-color="#176AD4"/>
</linearGradient>
<linearGradient id="paint11_linear_5_635" x1="322.434" y1="177.498" x2="361.65" y2="177.498" gradientUnits="userSpaceOnUse">
<stop stop-color="#A50404"/>
<stop offset="1" stop-color="#E64D4E"/>
</linearGradient>
<radialGradient id="paint12_radial_5_635" cx="0" cy="0" r="1" gradientUnits="userSpaceOnUse" gradientTransform="translate(311.418 201.228) rotate(180) scale(22.3198 12.7402)">
<stop offset="0.2058" stop-color="#A50404"/>
<stop offset="1" stop-color="#E64D4E"/>
</radialGradient>
<linearGradient id="paint13_linear_5_635" x1="312.113" y1="167.942" x2="311.661" y2="204.707" gradientUnits="userSpaceOnUse">
<stop stop-color="#A50404"/>
<stop offset="0.8177" stop-color="#E64D4E"/>
</linearGradient>
<linearGradient id="paint14_linear_5_635" x1="299.534" y1="155.069" x2="292.474" y2="135.727" gradientUnits="userSpaceOnUse">
<stop stop-color="#A50404"/>
<stop offset="1" stop-color="#E64D4E"/>
</linearGradient>
<linearGradient id="paint15_linear_5_635" x1="331.726" y1="150.048" x2="333.66" y2="136.8" gradientUnits="userSpaceOnUse">
<stop stop-color="#A50404"/>
<stop offset="1" stop-color="#E64D4E"/>
</linearGradient>
</defs>
</svg>
