<svg width="40" height="40" viewBox="0 0 40 40" fill="none" xmlns="http://www.w3.org/2000/svg">
<g clip-path="url(#clip0_3223_1703)">
<path d="M18.8882 22.9593C18.9037 23.1108 18.9749 23.2512 19.0879 23.3533C19.2009 23.4554 19.3477 23.512 19.5 23.5122C19.5213 23.5123 19.5427 23.5113 19.5639 23.5092C19.6444 23.5009 19.7225 23.4768 19.7937 23.4383C19.8648 23.3998 19.9277 23.3477 19.9787 23.2849C20.0298 23.2221 20.0679 23.1498 20.091 23.0723C20.1141 22.9947 20.1216 22.9134 20.1133 22.8329L19.8295 20.0841C19.8127 19.9216 19.7321 19.7724 19.6053 19.6693C19.4785 19.5662 19.316 19.5177 19.1534 19.5345C18.9909 19.5513 18.8417 19.6319 18.7386 19.7587C18.6356 19.8855 18.5871 20.048 18.6038 20.2105L18.8882 22.9593Z" fill="white"/>
<path d="M22.7446 23.5092C22.7658 23.5113 22.7872 23.5123 22.8085 23.5122C22.9608 23.5119 23.1075 23.4552 23.2205 23.3531C23.3335 23.251 23.4047 23.1108 23.4203 22.9593L23.7041 20.2105C23.7124 20.1301 23.7048 20.0487 23.6817 19.9712C23.6586 19.8937 23.6204 19.8215 23.5693 19.7587C23.5183 19.6959 23.4554 19.6438 23.3842 19.6053C23.3131 19.5669 23.235 19.5428 23.1545 19.5345C23.0741 19.5262 22.9927 19.5338 22.9152 19.557C22.8377 19.5801 22.7655 19.6183 22.7027 19.6693C22.6399 19.7203 22.5878 19.7832 22.5494 19.8544C22.5109 19.9256 22.4868 20.0036 22.4785 20.0841L22.1947 22.8329C22.1863 22.9134 22.1939 22.9948 22.217 23.0724C22.2402 23.1499 22.2783 23.2222 22.3294 23.285C22.3805 23.3478 22.4434 23.4 22.5147 23.4384C22.5859 23.4769 22.664 23.5009 22.7446 23.5092Z" fill="white"/>
<path d="M17.9734 26.1855C17.5962 26.1855 17.2275 26.2974 16.9139 26.5069C16.6003 26.7165 16.3559 27.0143 16.2116 27.3628C16.0672 27.7112 16.0295 28.0947 16.103 28.4646C16.1766 28.8345 16.3583 29.1743 16.625 29.441C16.8916 29.7077 17.2314 29.8893 17.6014 29.9629C17.9713 30.0365 18.3547 29.9987 18.7032 29.8544C19.0516 29.71 19.3495 29.4656 19.559 29.152C19.7685 28.8384 19.8804 28.4697 19.8804 28.0925C19.8798 27.5869 19.6788 27.1022 19.3212 26.7447C18.9637 26.3872 18.479 26.1861 17.9734 26.1855ZM17.9734 28.7673C17.84 28.7673 17.7095 28.7277 17.5986 28.6536C17.4876 28.5795 17.4011 28.4741 17.3501 28.3509C17.299 28.2276 17.2856 28.092 17.3116 27.9611C17.3376 27.8302 17.4018 27.71 17.4961 27.6156C17.5904 27.5212 17.7106 27.4569 17.8414 27.4308C17.9723 27.4047 18.108 27.418 18.2313 27.469C18.3546 27.52 18.46 27.6064 18.5342 27.7173C18.6084 27.8282 18.6481 27.9586 18.6482 28.092C18.648 28.271 18.5769 28.4426 18.4504 28.5692C18.3239 28.6958 18.1524 28.767 17.9734 28.7673Z" fill="white"/>
<path d="M24.3343 26.1855C23.9571 26.1852 23.5882 26.2968 23.2744 26.5062C22.9606 26.7156 22.7159 27.0133 22.5714 27.3617C22.4268 27.7101 22.3888 28.0936 22.4622 28.4636C22.5356 28.8337 22.7172 29.1736 22.9838 29.4404C23.2504 29.7073 23.5902 29.8891 23.9602 29.9628C24.3301 30.0365 24.7136 29.9988 25.0622 29.8545C25.4107 29.7102 25.7087 29.4658 25.9183 29.1522C26.1279 28.8385 26.2398 28.4698 26.2398 28.0925C26.2392 27.5872 26.0383 27.1027 25.6812 26.7452C25.324 26.3878 24.8396 26.1865 24.3343 26.1855ZM24.3343 28.7673C24.2009 28.7673 24.0704 28.7277 23.9595 28.6536C23.8485 28.5795 23.762 28.4741 23.7109 28.3509C23.6599 28.2276 23.6465 28.092 23.6725 27.9611C23.6985 27.8302 23.7627 27.71 23.857 27.6156C23.9513 27.5212 24.0715 27.4569 24.2023 27.4308C24.3332 27.4047 24.4689 27.418 24.5922 27.469C24.7155 27.52 24.8209 27.6064 24.8951 27.7173C24.9693 27.8282 25.009 27.9586 25.0091 28.092C25.0089 28.271 24.9378 28.4426 24.8113 28.5692C24.6848 28.6958 24.5133 28.767 24.3343 28.7673Z" fill="white"/>
<path d="M28.0189 17.4791C27.9614 17.4047 27.8875 17.3444 27.803 17.303C27.7185 17.2615 27.6256 17.24 27.5315 17.24H15.2529L14.7371 15.2579C14.7028 15.1259 14.6256 15.009 14.5178 14.9256C14.4099 14.8421 14.2774 14.7969 14.141 14.7969H11.6161C11.4527 14.7969 11.296 14.8618 11.1805 14.9773C11.0649 15.0929 11 15.2496 11 15.413C11 15.5764 11.0649 15.7331 11.1805 15.8486C11.296 15.9642 11.4527 16.0291 11.6161 16.0291H13.6648L14.1755 17.994C14.1781 18.0062 14.1816 18.0183 14.1852 18.0305L16.0866 25.3417C16.1209 25.4737 16.198 25.5905 16.3059 25.674C16.4137 25.7574 16.5463 25.8027 16.6826 25.8027H25.6251C25.7614 25.8027 25.8939 25.7574 26.0018 25.674C26.1097 25.5905 26.1868 25.4737 26.2211 25.3417L28.1281 18.0112C28.1517 17.9201 28.1542 17.8248 28.1352 17.7325C28.1163 17.6403 28.0765 17.5536 28.0189 17.4791ZM25.1488 24.5709H17.1614L15.5733 18.4722H26.7349L25.1488 24.5709Z" fill="white"/>
<path d="M20.7202 16.1434C20.7774 16.2006 20.8453 16.246 20.92 16.277C20.9948 16.308 21.0749 16.3239 21.1558 16.3239C21.2367 16.3239 21.3168 16.308 21.3916 16.277C21.4663 16.246 21.5342 16.2006 21.5914 16.1434L23.5857 14.1491C23.7013 14.0335 23.7662 13.8768 23.7662 13.7134C23.7662 13.5501 23.7013 13.3934 23.5857 13.2778C23.4702 13.1623 23.3135 13.0974 23.1501 13.0974C22.9867 13.0974 22.83 13.1623 22.7145 13.2778L21.7727 14.2196V10.6149C21.7725 10.5338 21.7564 10.4537 21.7253 10.3789C21.6941 10.3041 21.6485 10.2362 21.591 10.1791C21.5336 10.122 21.4655 10.0768 21.3905 10.0461C21.3156 10.0153 21.2353 9.99967 21.1543 10C20.9909 10 20.8343 10.0649 20.7188 10.1804C20.6033 10.2959 20.5384 10.4525 20.5384 10.6159V14.2237L19.5966 13.2819C19.4811 13.1664 19.3244 13.1014 19.161 13.1014C18.9976 13.1014 18.8409 13.1664 18.7254 13.2819C18.6098 13.3974 18.5449 13.5541 18.5449 13.7175C18.5449 13.8809 18.6098 14.0376 18.7254 14.1531L20.7202 16.1434Z" fill="white"/>
</g>
<defs>
<clipPath id="clip0_3223_1703">
<rect width="17.1471" height="20" fill="white" transform="translate(11 10)"/>
</clipPath>
</defs>
</svg>
