<svg xmlns="http://www.w3.org/2000/svg" width="43.938" height="43.938" viewBox="0 0 43.938 43.938">
  <path id="Icon_awesome-whatsapp" data-name="Icon awesome-whatsapp" d="M37.357,8.635A21.78,21.78,0,0,0,3.089,34.909L0,46.188l11.543-3.031a21.706,21.706,0,0,0,10.406,2.648h.01A21.982,21.982,0,0,0,43.938,24.032a21.858,21.858,0,0,0-6.581-15.4Zm-15.4,33.5a18.065,18.065,0,0,1-9.219-2.521l-.657-.392L5.237,41.019,7.061,34.34l-.432-.687a18.132,18.132,0,1,1,33.63-9.621,18.3,18.3,0,0,1-18.3,18.1Zm9.925-13.554c-.539-.275-3.217-1.589-3.717-1.765s-.863-.275-1.226.275-1.4,1.765-1.726,2.138-.637.412-1.177.137c-3.2-1.6-5.3-2.854-7.4-6.473-.559-.961.559-.892,1.6-2.972a1.008,1.008,0,0,0-.049-.951c-.137-.275-1.226-2.952-1.677-4.041-.441-1.059-.892-.912-1.226-.932-.314-.02-.677-.02-1.04-.02a2.015,2.015,0,0,0-1.452.677,6.113,6.113,0,0,0-1.9,4.541c0,2.677,1.952,5.267,2.216,5.629s3.835,5.855,9.3,8.219c3.452,1.491,4.806,1.618,6.532,1.363,1.049-.157,3.217-1.314,3.668-2.589a4.55,4.55,0,0,0,.314-2.589C32.786,28.985,32.424,28.848,31.884,28.583Z" transform="translate(0 -2.25)" fill="#fff"/>
</svg>
