<svg width="512" height="379" viewBox="0 0 512 379" fill="none" xmlns="http://www.w3.org/2000/svg">
<path d="M511.997 335.144C341.331 404.333 170.666 265.955 0 335.144C0 239.049 0 142.953 0 46.8579C170.666 -22.3311 341.331 116.047 511.997 46.8579C511.997 142.952 511.997 239.049 511.997 335.144Z" fill="#FFF7F7"/>
<path d="M512 239.051C512 271.085 512 303.108 512 335.143C341.335 404.332 170.669 265.954 0.00292969 335.143C0.00292969 303.109 0.00292969 271.086 0.00292969 239.051C170.669 169.862 341.335 308.24 512 239.051Z" fill="#006934"/>
<path d="M512 46.8556C512 78.8896 512 110.913 512 142.948C341.335 212.137 170.669 73.7586 0.00292969 142.948C0.00292969 110.914 0.00292969 78.8906 0.00292969 46.8556C170.669 -22.3324 341.335 116.045 512 46.8556Z" fill="#F15B25"/>
<path d="M255.713 229.442C276.944 229.442 294.155 212.231 294.155 191C294.155 169.769 276.944 152.559 255.713 152.559C234.482 152.559 217.271 169.769 217.271 191C217.271 212.231 234.482 229.442 255.713 229.442Z" fill="#2C2C6F"/>
<path d="M255.713 224.249C274.074 224.249 288.959 209.364 288.959 191.003C288.959 172.641 274.074 157.756 255.713 157.756C237.351 157.756 222.466 172.641 222.466 191.003C222.466 209.364 237.351 224.249 255.713 224.249Z" fill="white"/>
<path d="M255.713 197.65C259.385 197.65 262.362 194.673 262.362 191.001C262.362 187.329 259.385 184.352 255.713 184.352C252.04 184.352 249.063 187.329 249.063 191.001C249.063 194.673 252.04 197.65 255.713 197.65Z" fill="#2C2C6F"/>
<path d="M255.712 157.758L256.958 177.764L255.712 187.67L254.465 177.764L255.712 157.758Z" fill="#2C2C6F"/>
<path d="M259.861 159.484C260.657 159.589 261.388 159.028 261.493 158.232C261.598 157.436 261.037 156.705 260.24 156.6C259.444 156.495 258.713 157.056 258.608 157.852C258.504 158.649 259.064 159.379 259.861 159.484Z" fill="#2C2C6F"/>
<path d="M255.712 224.25L254.465 204.243L255.712 194.338L256.958 204.243L255.712 224.25Z" fill="#2C2C6F"/>
<path d="M251.562 222.524C250.765 222.419 250.035 222.979 249.93 223.776C249.825 224.572 250.385 225.303 251.182 225.408C251.978 225.513 252.709 224.952 252.814 224.156C252.919 223.359 252.358 222.628 251.562 222.524Z" fill="#2C2C6F"/>
<path d="M264.317 158.891L260.343 178.539L256.575 187.784L257.934 177.893L264.317 158.891Z" fill="#2C2C6F"/>
<path d="M267.878 161.631C268.62 161.938 269.471 161.586 269.778 160.844C270.086 160.102 269.733 159.251 268.991 158.943C268.249 158.636 267.398 158.988 267.091 159.731C266.783 160.473 267.136 161.324 267.878 161.631Z" fill="#2C2C6F"/>
<path d="M247.107 223.117L251.081 203.469L254.849 194.224L253.489 204.115L247.107 223.117Z" fill="#2C2C6F"/>
<path d="M243.546 220.375C242.804 220.067 241.953 220.42 241.646 221.162C241.338 221.904 241.691 222.755 242.433 223.063C243.175 223.37 244.026 223.017 244.333 222.275C244.641 221.533 244.288 220.682 243.546 220.375Z" fill="#2C2C6F"/>
<path d="M272.334 162.209L263.411 180.159L257.378 188.114L261.251 178.912L272.334 162.209Z" fill="#2C2C6F"/>
<path d="M275.064 165.781C275.701 166.27 276.615 166.15 277.104 165.513C277.593 164.875 277.472 163.962 276.835 163.473C276.198 162.984 275.285 163.105 274.796 163.742C274.307 164.379 274.427 165.292 275.064 165.781Z" fill="#2C2C6F"/>
<path d="M239.088 219.797L248.012 201.847L254.044 193.892L250.171 203.094L239.088 219.797Z" fill="#2C2C6F"/>
<path d="M236.358 216.225C235.721 215.736 234.808 215.856 234.319 216.493C233.83 217.13 233.95 218.043 234.587 218.532C235.225 219.022 236.138 218.901 236.627 218.264C237.116 217.627 236.996 216.714 236.358 216.225Z" fill="#2C2C6F"/>
<path d="M279.219 167.495L265.954 182.523L258.068 188.646L264.191 180.76L279.219 167.495Z" fill="#2C2C6F"/>
<path d="M280.933 171.65C281.422 172.287 282.335 172.407 282.972 171.918C283.609 171.429 283.729 170.516 283.24 169.879C282.751 169.241 281.838 169.121 281.201 169.61C280.564 170.099 280.443 171.012 280.933 171.65Z" fill="#2C2C6F"/>
<path d="M232.202 214.511L245.467 199.483L253.353 193.36L247.23 201.246L232.202 214.511Z" fill="#2C2C6F"/>
<path d="M230.488 210.356C229.999 209.719 229.086 209.599 228.449 210.088C227.812 210.577 227.691 211.49 228.18 212.127C228.669 212.765 229.583 212.885 230.22 212.396C230.857 211.907 230.977 210.994 230.488 210.356Z" fill="#2C2C6F"/>
<path d="M284.507 174.377L267.804 185.46L258.602 189.333L266.557 183.3L284.507 174.377Z" fill="#2C2C6F"/>
<path d="M285.086 178.834C285.394 179.576 286.245 179.929 286.987 179.621C287.729 179.314 288.081 178.463 287.774 177.721C287.466 176.979 286.616 176.626 285.873 176.934C285.131 177.241 284.779 178.092 285.086 178.834Z" fill="#2C2C6F"/>
<path d="M226.923 207.621L243.625 196.538L252.827 192.665L244.872 198.698L226.923 207.621Z" fill="#2C2C6F"/>
<path d="M226.343 203.164C226.036 202.422 225.185 202.069 224.442 202.377C223.7 202.684 223.348 203.535 223.655 204.277C223.963 205.019 224.814 205.372 225.556 205.064C226.298 204.757 226.65 203.906 226.343 203.164Z" fill="#2C2C6F"/>
<path d="M287.826 182.4L268.824 188.782L258.933 190.141L268.179 186.373L287.826 182.4Z" fill="#2C2C6F"/>
<path d="M287.232 186.855C287.337 187.651 288.068 188.212 288.864 188.107C289.661 188.002 290.221 187.272 290.117 186.475C290.012 185.679 289.281 185.118 288.485 185.223C287.688 185.328 287.128 186.059 287.232 186.855Z" fill="#2C2C6F"/>
<path d="M223.6 199.6L242.602 193.218L252.493 191.859L243.248 195.627L223.6 199.6Z" fill="#2C2C6F"/>
<path d="M224.194 195.145C224.089 194.349 223.358 193.788 222.562 193.893C221.765 193.998 221.205 194.728 221.31 195.525C221.415 196.321 222.145 196.882 222.942 196.777C223.738 196.672 224.299 195.941 224.194 195.145Z" fill="#2C2C6F"/>
<path d="M288.96 190.999L268.953 192.245L259.048 190.999L268.953 189.752L288.96 190.999Z" fill="#2C2C6F"/>
<path d="M287.234 195.148C287.129 195.945 287.689 196.675 288.486 196.78C289.282 196.885 290.013 196.324 290.118 195.528C290.223 194.732 289.662 194.001 288.866 193.896C288.069 193.791 287.338 194.352 287.234 195.148Z" fill="#2C2C6F"/>
<path d="M222.468 190.999L242.474 189.753L252.38 190.999L242.474 192.246L222.468 190.999Z" fill="#2C2C6F"/>
<path d="M224.194 186.85C224.299 186.053 223.738 185.323 222.942 185.218C222.145 185.113 221.415 185.674 221.31 186.47C221.205 187.266 221.766 187.997 222.562 188.102C223.359 188.207 224.089 187.646 224.194 186.85Z" fill="#2C2C6F"/>
<path d="M287.828 199.601L268.181 195.627L258.935 191.859L268.826 193.218L287.828 199.601Z" fill="#2C2C6F"/>
<path d="M285.086 203.164C284.778 203.906 285.131 204.757 285.873 205.065C286.615 205.372 287.466 205.02 287.773 204.277C288.081 203.535 287.728 202.684 286.986 202.377C286.244 202.07 285.393 202.422 285.086 203.164Z" fill="#2C2C6F"/>
<path d="M223.6 182.393L243.248 186.367L252.493 190.135L242.602 188.776L223.6 182.393Z" fill="#2C2C6F"/>
<path d="M226.342 178.83C226.65 178.088 226.297 177.237 225.555 176.93C224.813 176.622 223.962 176.975 223.655 177.717C223.347 178.459 223.7 179.31 224.442 179.617C225.184 179.925 226.035 179.572 226.342 178.83Z" fill="#2C2C6F"/>
<path d="M284.507 207.623L266.557 198.699L258.602 192.667L267.804 196.54L284.507 207.623Z" fill="#2C2C6F"/>
<path d="M280.936 210.354C280.447 210.991 280.567 211.904 281.204 212.393C281.842 212.882 282.755 212.762 283.244 212.125C283.733 211.487 283.613 210.574 282.975 210.085C282.338 209.596 281.425 209.716 280.936 210.354Z" fill="#2C2C6F"/>
<path d="M226.921 174.375L244.87 183.299L252.826 189.332L243.624 185.458L226.921 174.375Z" fill="#2C2C6F"/>
<path d="M230.491 171.644C230.98 171.007 230.86 170.094 230.223 169.605C229.585 169.116 228.672 169.236 228.183 169.873C227.694 170.511 227.815 171.424 228.452 171.913C229.089 172.402 230.002 172.282 230.491 171.644Z" fill="#2C2C6F"/>
<path d="M279.221 214.507L264.193 201.241L258.07 193.355L265.956 199.478L279.221 214.507Z" fill="#2C2C6F"/>
<path d="M275.066 216.22C274.429 216.709 274.309 217.622 274.798 218.26C275.287 218.897 276.2 219.017 276.837 218.528C277.475 218.039 277.595 217.126 277.106 216.489C276.617 215.851 275.704 215.731 275.066 216.22Z" fill="#2C2C6F"/>
<path d="M232.204 167.488L247.233 180.753L253.356 188.639L245.47 182.516L232.204 167.488Z" fill="#2C2C6F"/>
<path d="M236.359 165.774C236.996 165.285 237.117 164.372 236.627 163.735C236.138 163.097 235.225 162.977 234.588 163.466C233.951 163.955 233.831 164.868 234.32 165.506C234.809 166.143 235.722 166.263 236.359 165.774Z" fill="#2C2C6F"/>
<path d="M272.334 219.791L261.251 203.088L257.378 193.887L263.411 201.842L272.334 219.791Z" fill="#2C2C6F"/>
<path d="M267.877 220.373C267.135 220.68 266.783 221.531 267.09 222.273C267.398 223.016 268.248 223.368 268.991 223.061C269.733 222.753 270.085 221.902 269.778 221.16C269.47 220.418 268.62 220.065 267.877 220.373Z" fill="#2C2C6F"/>
<path d="M239.09 162.207L250.173 178.91L254.046 188.112L248.014 180.156L239.09 162.207Z" fill="#2C2C6F"/>
<path d="M243.547 161.625C244.289 161.318 244.642 160.467 244.334 159.725C244.027 158.983 243.176 158.63 242.434 158.938C241.691 159.245 241.339 160.096 241.646 160.838C241.954 161.58 242.805 161.933 243.547 161.625Z" fill="#2C2C6F"/>
<path d="M264.316 223.108L257.934 204.106L256.574 194.215L260.342 203.46L264.316 223.108Z" fill="#2C2C6F"/>
<path d="M259.862 222.515C259.065 222.619 258.505 223.35 258.61 224.147C258.714 224.943 259.445 225.504 260.241 225.399C261.038 225.294 261.599 224.563 261.494 223.767C261.389 222.97 260.658 222.41 259.862 222.515Z" fill="#2C2C6F"/>
<path d="M247.108 158.884L253.49 177.887L254.85 187.777L251.082 178.532L247.108 158.884Z" fill="#2C2C6F"/>
<path d="M251.563 159.478C252.359 159.373 252.92 158.642 252.815 157.846C252.71 157.049 251.979 156.488 251.183 156.593C250.386 156.698 249.826 157.429 249.931 158.225C250.035 159.022 250.766 159.582 251.563 159.478Z" fill="#2C2C6F"/>
</svg>
