<svg width="10" height="16" viewBox="0 0 10 16" fill="none" xmlns="http://www.w3.org/2000/svg">
<path d="M0.954825 7.42869L7.43538 0.900636C7.59645 0.749025 7.79444 0.666748 7.99821 0.666748C8.20198 0.666748 8.39998 0.749025 8.56105 0.900636L9.03805 1.38145C9.1104 1.44766 9.1691 1.53337 9.20953 1.63184C9.24996 1.73031 9.271 1.83883 9.271 1.94886C9.271 2.05889 9.24996 2.16742 9.20953 2.26588C9.1691 2.36435 9.1104 2.45006 9.03805 2.51627L3.59733 7.9978L9.04508 13.4845C9.11735 13.5507 9.17598 13.6365 9.21635 13.7349C9.25672 13.8334 9.27772 13.9419 9.27772 14.0519C9.27772 14.1619 9.25672 14.2704 9.21635 14.3688C9.17598 14.4673 9.11735 14.553 9.04508 14.6193L8.56808 15.0995C8.40701 15.2511 8.20902 15.3334 8.00525 15.3334C7.80147 15.3334 7.60348 15.2511 7.44241 15.0995L0.954825 8.56749C0.882513 8.50074 0.823886 8.41459 0.783527 8.31577C0.743167 8.21694 0.722168 8.10812 0.722168 7.9978C0.722168 7.88749 0.743167 7.77867 0.783527 7.67984C0.823886 7.58102 0.882513 7.49543 0.954825 7.42869Z" fill="black"/>
</svg>
