<svg xmlns="http://www.w3.org/2000/svg" width="12.283" height="15.183" viewBox="0 0 12.283 15.183">
  <g id="place_1_" data-name="place (1)" transform="translate(-48.886)">
    <g id="Group_1683" data-name="Group 1683" transform="translate(48.886)">
      <g id="Group_1682" data-name="Group 1682">
        <path id="Path_1727" data-name="Path 1727" d="M60.067,2.64a6.13,6.13,0,0,0-10.079,0,6.131,6.131,0,0,0-.714,5.649,4.828,4.828,0,0,0,.89,1.469L54.624,15a.53.53,0,0,0,.808,0L59.89,9.759a4.833,4.833,0,0,0,.89-1.467A6.132,6.132,0,0,0,60.067,2.64Zm-.282,5.28a3.787,3.787,0,0,1-.7,1.147l0,0-4.055,4.763L50.97,9.067a3.789,3.789,0,0,1-.7-1.15,5.072,5.072,0,0,1,.593-4.673,5.068,5.068,0,0,1,8.332,0A5.072,5.072,0,0,1,59.785,7.92Z" transform="translate(-48.886)" fill="#707070"/>
      </g>
    </g>
    <g id="Group_1685" data-name="Group 1685" transform="translate(52.055 3.15)">
      <g id="Group_1684" data-name="Group 1684">
        <path id="Path_1728" data-name="Path 1728" d="M158.727,106.219a2.973,2.973,0,1,0,2.973,2.973A2.976,2.976,0,0,0,158.727,106.219Zm0,4.884a1.911,1.911,0,1,1,1.911-1.911A1.913,1.913,0,0,1,158.727,111.1Z" transform="translate(-155.754 -106.219)" fill="#707070"/>
      </g>
    </g>
  </g>
</svg>
