<svg xmlns="http://www.w3.org/2000/svg" width="29.243" height="24.75" viewBox="0 0 29.243 24.75">
  <g id="Icon_ionic-ios-log-out" data-name="Icon ionic-ios-log-out" transform="translate(-3.375 -5.625)">
    <path id="Path_1637" data-name="Path 1637" d="M21.938,26.156a.987.987,0,0,0-.984.984,1.269,1.269,0,0,1-1.266,1.266H6.609a1.269,1.269,0,0,1-1.266-1.266V8.859A1.269,1.269,0,0,1,6.609,7.594H19.688a1.269,1.269,0,0,1,1.266,1.266.984.984,0,0,0,1.969,0,3.235,3.235,0,0,0-3.234-3.234H6.609A3.235,3.235,0,0,0,3.375,8.859V27.141a3.235,3.235,0,0,0,3.234,3.234H19.688a3.235,3.235,0,0,0,3.234-3.234A.987.987,0,0,0,21.938,26.156Z" fill="#ff6f12"/>
    <path id="Path_1638" data-name="Path 1638" d="M26.22,11.116a.978.978,0,0,0-.7-.288.961.961,0,0,0-.7.288.98.98,0,0,0,0,1.392l4.584,4.514H11.391a.984.984,0,0,0,0,1.969H29.433L24.961,23.5a.993.993,0,0,0,0,1.392l.007.007a1.017,1.017,0,0,0,.689.274.95.95,0,0,0,.7-.288l5.808-5.794a1.381,1.381,0,0,0,0-2.053Z" fill="#ff6f12"/>
  </g>
</svg>
