<svg xmlns="http://www.w3.org/2000/svg" width="13.655" height="17.304" viewBox="0 0 13.655 17.304">
  <g id="profile" transform="translate(-53.978)">
    <g id="Group_1625" data-name="Group 1625" transform="translate(56.453)">
      <g id="Group_1624" data-name="Group 1624">
        <path id="Path_1719" data-name="Path 1719" d="M131.564,0a4.353,4.353,0,1,0,4.353,4.353A4.357,4.357,0,0,0,131.564,0Zm0,7.425a3.072,3.072,0,1,1,3.072-3.072A3.076,3.076,0,0,1,131.564,7.425Z" transform="translate(-127.211)" fill="#f5faff"/>
      </g>
    </g>
    <g id="Group_1627" data-name="Group 1627" transform="translate(53.978 10.241)">
      <g id="Group_1626" data-name="Group 1626">
        <path id="Path_1720" data-name="Path 1720" d="M60.806,303.033a6.874,6.874,0,0,0-6.828,7.062h1.28a5.552,5.552,0,1,1,11.095,0h1.28A6.874,6.874,0,0,0,60.806,303.033Z" transform="translate(-53.978 -303.033)" fill="#f5faff"/>
      </g>
    </g>
  </g>
</svg>
