<svg xmlns="http://www.w3.org/2000/svg" viewBox="0 0 537.45 210.9"><defs><style>.cls-1,.cls-2,.cls-3{fill:#fff;}.cls-1{opacity:0;}.cls-2{font-size:34px;font-family:ProductSans-Black, Product Sans Black;font-weight:800;}</style></defs><g id="Layer_2" data-name="Layer 2"><g id="Layer_1-2" data-name="Layer 1"><rect class="cls-1" width="537.45" height="210.9"/><text class="cls-2" transform="translate(451.38 154.06)">.qa</text><path class="cls-3" d="M252.46,126.64a22.16,22.16,0,0,1-8.91-1.83,23.44,23.44,0,0,1-7.31-5,23.71,23.71,0,0,1-4.94-7.26,21.7,21.7,0,0,1-1.83-8.87,22,22,0,0,1,1.83-8.91,23.22,23.22,0,0,1,12.25-12.25,22,22,0,0,1,8.91-1.83,21.7,21.7,0,0,1,8.87,1.83,23.43,23.43,0,0,1,12.21,12.25,22,22,0,0,1,1.83,8.91,21.7,21.7,0,0,1-1.83,8.87,23.74,23.74,0,0,1-5,7.26,23.44,23.44,0,0,1-7.26,5A21.87,21.87,0,0,1,252.46,126.64Zm0-38a14.25,14.25,0,0,0-5.83,1.2,15.59,15.59,0,0,0-8,8,14.7,14.7,0,0,0,0,11.68,15.42,15.42,0,0,0,3.25,4.76,14.88,14.88,0,0,0,4.77,3.22,15.38,15.38,0,0,0,11.67,0,15,15,0,0,0,4.77-3.22,14.82,14.82,0,0,0,4.37-10.6,14.34,14.34,0,0,0-1.21-5.84A16,16,0,0,0,263,93.13a14.93,14.93,0,0,0-4.76-3.26A14.45,14.45,0,0,0,252.46,88.67Z"/><path class="cls-3" d="M294,83.41a16.48,16.48,0,0,1,9-2.67A16.22,16.22,0,0,1,309.41,82a16.6,16.6,0,0,1,8.87,8.87,16.22,16.22,0,0,1,1.29,6.42v25.4a4,4,0,0,1-3.92,3.92,3.88,3.88,0,0,1-2.85-1.16,3.77,3.77,0,0,1-1.16-2.76V97.32A8.35,8.35,0,0,0,311,94a8.83,8.83,0,0,0-4.63-4.63,8.35,8.35,0,0,0-3.35-.67,8.64,8.64,0,0,0-3.38.67,8.17,8.17,0,0,0-2.77,1.87A9,9,0,0,0,295,94a8.35,8.35,0,0,0-.67,3.35,2.81,2.81,0,0,1-.18.8v24.6a4,4,0,0,1-3.92,3.92,3.88,3.88,0,0,1-2.85-1.16,3.77,3.77,0,0,1-1.16-2.76V84.13a3.95,3.95,0,0,1,4-4A3.45,3.45,0,0,1,294,83.41Z"/><path class="cls-3" d="M370.46,126.64a3.88,3.88,0,0,1-2.85-1.16,3.77,3.77,0,0,1-1.16-2.76V121a23.47,23.47,0,0,1-6.95,4.14,22.57,22.57,0,0,1-16.94-.35,23.28,23.28,0,0,1-7.3-5,23.56,23.56,0,0,1-4.95-7.26,21.7,21.7,0,0,1-1.83-8.87,22,22,0,0,1,1.83-8.91,23.32,23.32,0,0,1,12.25-12.25,22,22,0,0,1,8.92-1.83,22.23,22.23,0,0,1,8,1.47,23.68,23.68,0,0,1,6.95,4.14V84.66a3.73,3.73,0,0,1,1.16-2.76,3.88,3.88,0,0,1,2.85-1.16,4,4,0,0,1,3.92,3.92v38.06a4,4,0,0,1-3.92,3.92Zm-19-38a14.26,14.26,0,0,0-5.84,1.2,15.59,15.59,0,0,0-8,8,14.7,14.7,0,0,0,0,11.68,15.42,15.42,0,0,0,3.25,4.76,15,15,0,1,0,21.21-21.2,15.79,15.79,0,0,0-4.77-3.26A14.28,14.28,0,0,0,351.48,88.67Z"/><path class="cls-3" d="M394.43,74.68a5.33,5.33,0,0,1-5.26-5.26,4.86,4.86,0,0,1,1.56-3.7,5.44,5.44,0,0,1,7.44,0,4.94,4.94,0,0,1,1.52,3.7,5.33,5.33,0,0,1-5.26,5.26Zm0,52a4,4,0,0,1-3.92-3.92V84.66a3.73,3.73,0,0,1,1.16-2.76,3.77,3.77,0,0,1,2.76-1.16,4,4,0,0,1,2.81,1.16,3.7,3.7,0,0,1,1.2,2.76v38.06a3.73,3.73,0,0,1-1.2,2.76A4,4,0,0,1,394.43,126.64Z"/><path class="cls-3" d="M445.41,126.64H412.52a4,4,0,0,1-3.92-3.92,3.93,3.93,0,0,1,1-2.59l27.18-31.46H412.52a4,4,0,0,1-3.92-3.92,3.88,3.88,0,0,1,1.16-2.85,3.77,3.77,0,0,1,2.76-1.16h32.89a3.91,3.91,0,0,1,2.85,1.16,3.77,3.77,0,0,1,1.16,2.76,4,4,0,0,1-1,2.67L421.25,118.7h24.16a4,4,0,0,1,4,4,3.8,3.8,0,0,1-1.16,2.76A3.91,3.91,0,0,1,445.41,126.64Z"/><path class="cls-3" d="M496.38,126.64a3.88,3.88,0,0,1-2.85-1.16,3.8,3.8,0,0,1-1.16-2.76V121a23.47,23.47,0,0,1-6.95,4.14,22.54,22.54,0,0,1-16.93-.35,23.32,23.32,0,0,1-7.31-5,23.74,23.74,0,0,1-4.95-7.26,21.86,21.86,0,0,1-1.82-8.87,22.15,22.15,0,0,1,1.82-8.91,23.61,23.61,0,0,1,4.95-7.31,23.29,23.29,0,0,1,7.31-4.94,22,22,0,0,1,8.91-1.83,22.23,22.23,0,0,1,8,1.47,23.68,23.68,0,0,1,6.95,4.14V84.66a3.77,3.77,0,0,1,1.16-2.76,3.88,3.88,0,0,1,2.85-1.16,3.81,3.81,0,0,1,2.77,1.16,3.76,3.76,0,0,1,1.15,2.76v38.06a3.94,3.94,0,0,1-3.92,3.92Zm-19-38a14.29,14.29,0,0,0-5.84,1.2,15.59,15.59,0,0,0-8,8,14.81,14.81,0,0,0,0,11.68,15.59,15.59,0,0,0,3.25,4.76,15,15,0,0,0,4.77,3.22A15,15,0,0,0,488,93.13a15.62,15.62,0,0,0-4.76-3.26A14.33,14.33,0,0,0,477.4,88.67Z"/><path class="cls-3" d="M91.34,141.4c-1,0-1.93,0-2.9-.09a45,45,0,0,1-7-88.87,8.11,8.11,0,0,1,9.81,8h0a8.22,8.22,0,0,1-6.51,8A28.78,28.78,0,0,0,62.64,98.22,29,29,0,0,0,89.45,125a28.51,28.51,0,0,0,21.35-7.59A29.71,29.71,0,0,0,120,95.58V73.33A26.79,26.79,0,0,1,135.4,49.11a8,8,0,0,1,11.39,7.32h0a8.18,8.18,0,0,1-4.48,7.45,10.48,10.48,0,0,0-6,9.45V95.49a46.17,46.17,0,0,1-14.56,34A44.58,44.58,0,0,1,91.34,141.4Z"/><circle class="cls-3" cx="76.63" cy="154.06" r="8.18"/><circle class="cls-3" cx="107.69" cy="154.06" r="8.18"/><line class="cls-3" x1="188.13" y1="59.41" x2="188.13" y2="151.17"/></g></g></svg>