<svg width="415" height="335" viewBox="0 0 415 335" fill="none" xmlns="http://www.w3.org/2000/svg">
<path d="M326.305 260.605C326.222 260.44 326.085 260.357 325.892 260.302C325.728 260.247 325.535 260.275 325.398 260.385L323.2 261.676L321.909 259.478C321.827 259.313 321.69 259.231 321.497 259.176C321.333 259.121 321.14 259.149 321.003 259.259C320.838 259.341 320.756 259.478 320.701 259.671C320.646 259.835 320.673 260.028 320.783 260.165L322.074 262.363L319.877 263.654C319.712 263.736 319.629 263.873 319.574 264.066C319.52 264.231 319.547 264.423 319.657 264.56C319.739 264.725 319.877 264.807 320.069 264.862C320.234 264.917 320.426 264.89 320.563 264.78L322.761 263.489L324.052 265.686C324.189 265.934 324.491 266.044 324.739 265.989C324.821 265.961 324.876 265.961 324.958 265.906C325.261 265.714 325.371 265.329 325.178 265L323.887 262.802L326.085 261.511C326.387 261.346 326.497 260.934 326.305 260.605Z" fill="#DEDEDE"/>
<path d="M331.853 275.108C330.26 275.108 328.969 273.817 328.969 272.224C328.969 270.631 330.26 269.34 331.853 269.34C333.447 269.34 334.738 270.631 334.738 272.224C334.738 273.817 333.447 275.108 331.853 275.108ZM331.853 270.878C331.112 270.878 330.507 271.482 330.507 272.224C330.507 272.966 331.112 273.57 331.853 273.57C332.595 273.57 333.199 272.966 333.199 272.224C333.199 271.482 332.595 270.878 331.853 270.878Z" fill="#DEDEDE"/>
<path d="M41.719 317.247C40.1257 317.247 38.8347 315.956 38.8347 314.363C38.8347 312.769 40.1257 311.478 41.719 311.478C43.3122 311.478 44.6033 312.769 44.6033 314.363C44.6033 315.956 43.2847 317.247 41.719 317.247ZM41.719 313.044C40.9773 313.044 40.3729 313.648 40.3729 314.39C40.3729 315.132 40.9773 315.736 41.719 315.736C42.4606 315.736 43.065 315.132 43.065 314.39C43.0375 313.648 42.4332 313.044 41.719 313.044Z" fill="#DEDEDE"/>
<path d="M359.817 8.35078C358.224 8.35078 356.933 7.05971 356.933 5.46647C356.933 3.87323 358.224 2.58215 359.817 2.58215C361.411 2.58215 362.702 3.87323 362.702 5.46647C362.702 7.05971 361.411 8.35078 359.817 8.35078ZM359.817 4.14793C359.076 4.14793 358.471 4.75227 358.471 5.49395C358.471 6.23563 359.076 6.83995 359.817 6.83995C360.559 6.83995 361.163 6.23563 361.163 5.49395C361.163 4.75227 360.559 4.14793 359.817 4.14793Z" fill="#DEDEDE"/>
<path d="M408.988 81.1179C408.823 81.2003 408.713 81.3376 408.658 81.5025C408.604 81.6673 408.604 81.8596 408.686 81.9969L409.812 84.2769L407.532 85.4031C407.367 85.4855 407.258 85.6229 407.203 85.7877C407.148 85.9525 407.148 86.1448 407.23 86.2822C407.312 86.447 407.45 86.5569 407.615 86.6118C407.78 86.6667 407.972 86.6667 408.109 86.5843L410.389 85.4581L411.515 87.7381C411.598 87.9029 411.735 88.0128 411.9 88.0677C412.065 88.1226 412.257 88.1226 412.394 88.0402C412.559 87.9578 412.669 87.8205 412.724 87.6556C412.779 87.4908 412.779 87.2985 412.697 87.1612L411.57 84.8812L413.85 83.755C414.098 83.6176 414.235 83.3429 414.207 83.0957C414.207 83.0133 414.18 82.9583 414.152 82.8759C413.988 82.5463 413.603 82.4089 413.273 82.5738L410.993 83.7L409.867 81.42C409.702 81.0904 409.318 80.9531 408.988 81.1179Z" fill="#DEDEDE"/>
<path d="M367.481 135.782C365.888 135.782 364.597 134.491 364.597 132.898C364.597 131.305 365.888 130.014 367.481 130.014C369.075 130.014 370.366 131.305 370.366 132.898C370.366 134.491 369.075 135.782 367.481 135.782ZM367.481 131.58C366.74 131.58 366.135 132.184 366.135 132.926C366.135 133.667 366.74 134.272 367.481 134.272C368.223 134.272 368.827 133.667 368.827 132.926C368.827 132.156 368.223 131.58 367.481 131.58Z" fill="#DEDEDE"/>
<path d="M1.17377 175.833C1.03642 175.943 0.981465 176.108 0.953996 176.3C0.953996 176.465 1.00896 176.657 1.11884 176.767L2.84941 178.608L1.00896 180.338C0.871607 180.448 0.816654 180.613 0.789185 180.805C0.789185 180.97 0.844117 181.162 0.953996 181.272C1.06387 181.41 1.22871 181.464 1.421 181.492C1.58582 181.492 1.77809 181.437 1.88797 181.327L3.72846 179.597L5.45902 181.437C5.5689 181.574 5.73374 181.629 5.92603 181.657C6.09085 181.657 6.28312 181.602 6.393 181.492C6.53035 181.382 6.5853 181.217 6.61277 181.025C6.61277 180.86 6.5578 180.668 6.44792 180.558L4.71736 178.718L6.55781 176.987C6.77757 176.795 6.8325 176.492 6.72262 176.245C6.69515 176.19 6.64024 176.108 6.61277 176.053C6.36554 175.778 5.95349 175.778 5.67879 176.025L3.83831 177.756L2.10774 175.916C1.86051 175.586 1.44846 175.586 1.17377 175.833Z" fill="#DEDEDE"/>
<path d="M29.495 207.396C27.9017 207.396 26.6107 206.105 26.6107 204.512C26.6107 202.918 27.9017 201.627 29.495 201.627C31.0882 201.627 32.3793 202.918 32.3793 204.512C32.3793 206.105 31.0607 207.396 29.495 207.396ZM29.495 203.193C28.7533 203.193 28.149 203.797 28.149 204.539C28.149 205.281 28.7533 205.885 29.495 205.885C30.2367 205.885 30.841 205.281 30.841 204.539C30.841 203.797 30.2092 203.193 29.495 203.193Z" fill="#DEDEDE"/>
<path d="M78.9403 297.716C78.6382 297.716 78.3635 297.469 78.3635 297.167C78.336 296.837 78.5832 296.562 78.9129 296.562C80.8357 296.452 82.7861 296.26 84.709 295.985C85.0386 295.93 85.3133 296.15 85.3682 296.48C85.4232 296.809 85.2034 297.084 84.8738 297.139C82.9234 297.414 80.9456 297.606 78.9678 297.716H78.9403ZM70.7269 297.689H70.6994C68.7491 297.579 66.7438 297.359 64.8209 297.057C64.4913 297.002 64.2716 296.7 64.3265 296.397C64.3814 296.068 64.6836 295.848 64.9858 295.903C66.9086 296.178 68.859 296.397 70.7819 296.507C71.1115 296.535 71.3587 296.809 71.3313 297.139C71.2763 297.441 71.0291 297.689 70.7269 297.689ZM92.84 295.518C92.5927 295.518 92.3456 295.354 92.2631 295.079C92.1807 294.777 92.373 294.447 92.6752 294.365C94.5431 293.87 96.411 293.293 98.2515 292.662C98.5536 292.552 98.8833 292.717 98.9932 293.019C99.1031 293.321 98.9383 293.65 98.6361 293.76C96.7956 294.42 94.8727 294.996 92.9773 295.491C92.9498 295.491 92.8949 295.518 92.84 295.518ZM56.8273 295.381C56.7723 295.381 56.7174 295.381 56.6625 295.354C54.7671 294.832 52.8716 294.227 51.0312 293.541C50.729 293.431 50.5642 293.101 50.6741 292.799C50.7839 292.497 51.1136 292.332 51.4158 292.442C53.2288 293.101 55.0967 293.705 56.9646 294.2C57.2668 294.282 57.4591 294.612 57.3767 294.914C57.3217 295.189 57.0745 295.381 56.8273 295.381ZM106.025 290.574C105.806 290.574 105.613 290.464 105.503 290.244C105.366 289.942 105.476 289.612 105.778 289.448C107.509 288.596 109.239 287.635 110.888 286.646C111.162 286.481 111.519 286.563 111.684 286.838C111.849 287.113 111.767 287.47 111.492 287.635C109.816 288.651 108.058 289.612 106.3 290.491C106.218 290.546 106.135 290.574 106.025 290.574ZM43.6693 290.299C43.5869 290.299 43.477 290.272 43.3946 290.244C41.6365 289.365 39.906 288.376 38.2303 287.332C37.9556 287.168 37.8732 286.811 38.038 286.536C38.2028 286.261 38.56 286.179 38.8347 286.344C40.4828 287.36 42.1859 288.321 43.9165 289.2C44.1912 289.338 44.3286 289.695 44.1638 289.997C44.1088 290.189 43.8891 290.299 43.6693 290.299ZM117.947 283.075C117.782 283.075 117.59 282.992 117.48 282.855C117.288 282.608 117.315 282.223 117.59 282.031C119.101 280.85 120.612 279.559 122.013 278.24C122.26 278.02 122.617 278.048 122.837 278.267C123.057 278.515 123.029 278.872 122.809 279.092C121.353 280.438 119.843 281.729 118.304 282.937C118.194 283.047 118.085 283.075 117.947 283.075ZM31.8299 282.69C31.6925 282.69 31.5827 282.635 31.4728 282.553C29.9345 281.317 28.4237 280.026 26.9952 278.68C26.748 278.46 26.748 278.075 26.9678 277.855C27.1875 277.608 27.5721 277.608 27.7919 277.828C29.1928 279.146 30.6762 280.438 32.187 281.646C32.4342 281.839 32.4892 282.223 32.2694 282.47C32.1595 282.635 31.9947 282.69 31.8299 282.69ZM128.111 273.323C127.974 273.323 127.836 273.268 127.726 273.186C127.479 272.966 127.452 272.609 127.671 272.361C128.935 270.878 130.144 269.34 131.27 267.774C131.462 267.499 131.819 267.444 132.094 267.637C132.369 267.829 132.424 268.186 132.231 268.461C131.078 270.054 129.869 271.62 128.578 273.131C128.441 273.268 128.276 273.323 128.111 273.323ZM21.7485 272.883C21.5837 272.883 21.4189 272.801 21.309 272.664C20.0454 271.153 18.8367 269.587 17.7105 267.966C17.5182 267.692 17.6006 267.335 17.8478 267.142C18.1225 266.95 18.4796 267.032 18.6719 267.28C19.7707 268.873 20.9794 270.411 22.2155 271.895C22.4353 272.142 22.3804 272.499 22.1331 272.719C21.9958 272.828 21.8584 272.883 21.7485 272.883ZM136.105 261.731C136.022 261.731 135.912 261.703 135.83 261.648C135.555 261.484 135.445 261.126 135.61 260.852C136.544 259.149 137.423 257.391 138.192 255.633C138.33 255.33 138.659 255.193 138.962 255.33C139.264 255.468 139.401 255.797 139.264 256.099C138.467 257.885 137.588 259.671 136.627 261.401C136.517 261.621 136.297 261.731 136.105 261.731ZM13.8373 261.236C13.6175 261.236 13.4252 261.126 13.3153 260.934C12.3814 259.204 11.5024 257.418 10.7332 255.605C10.5959 255.303 10.7332 254.973 11.0354 254.836C11.3376 254.699 11.6672 254.836 11.8045 255.138C12.5737 256.924 13.4252 258.682 14.3592 260.385C14.524 260.659 14.4141 261.017 14.112 261.181C14.0296 261.209 13.9197 261.236 13.8373 261.236ZM141.626 248.765C141.571 248.765 141.516 248.765 141.461 248.738C141.159 248.655 140.967 248.326 141.077 247.996C141.654 246.155 142.148 244.26 142.56 242.365C142.642 242.062 142.945 241.843 143.247 241.925C143.549 242.008 143.769 242.31 143.686 242.612C143.274 244.535 142.752 246.458 142.175 248.353C142.093 248.628 141.873 248.765 141.626 248.765ZM8.45323 248.216C8.206 248.216 7.95878 248.051 7.90384 247.804C7.35445 245.936 6.85998 243.985 6.44793 242.062C6.39299 241.733 6.58531 241.431 6.88747 241.376C7.21711 241.321 7.51928 241.513 7.57422 241.815C7.98626 243.711 8.45323 245.606 9.00262 247.474C9.08503 247.776 8.92021 248.106 8.61804 248.188C8.5631 248.216 8.50817 248.216 8.45323 248.216ZM144.4 234.975C144.373 234.975 144.373 234.975 144.346 234.975C144.016 234.948 143.796 234.646 143.824 234.344C144.016 232.421 144.126 230.47 144.153 228.52C144.153 228.19 144.428 227.943 144.758 227.943C145.087 227.943 145.334 228.218 145.334 228.547C145.307 230.525 145.197 232.503 145.005 234.453C144.95 234.728 144.703 234.975 144.4 234.975ZM5.78869 234.398C5.48652 234.398 5.23927 234.179 5.2118 233.877C5.04698 231.926 4.9371 229.921 4.9371 227.971C4.9371 227.641 5.18436 227.394 5.51399 227.394C5.84363 227.394 6.09085 227.641 6.09085 227.971C6.09085 229.893 6.20073 231.871 6.36554 233.794C6.39301 234.124 6.14578 234.398 5.84361 234.426C5.81615 234.398 5.81616 234.398 5.78869 234.398ZM144.318 220.883C144.016 220.883 143.769 220.664 143.741 220.361C143.549 218.439 143.247 216.516 142.89 214.593L142.862 214.51C142.807 214.181 143 213.879 143.329 213.824C143.659 213.769 143.961 213.961 144.016 214.291L144.043 214.373C144.428 216.323 144.703 218.274 144.922 220.224C144.95 220.554 144.73 220.828 144.4 220.856C144.373 220.883 144.346 220.883 144.318 220.883ZM5.9535 220.307C5.92603 220.307 5.89854 220.307 5.89854 220.307C5.56891 220.279 5.34917 219.977 5.37664 219.647C5.5964 217.697 5.89855 215.719 6.28312 213.796C6.33806 213.467 6.6677 213.274 6.96986 213.329C7.2995 213.384 7.49181 213.714 7.43687 214.016C7.05229 215.911 6.75011 217.862 6.53036 219.785C6.50289 220.087 6.2282 220.307 5.9535 220.307ZM141.406 207.039C141.159 207.039 140.939 206.874 140.857 206.627C140.28 204.786 139.593 202.946 138.852 201.16C138.742 200.858 138.879 200.528 139.181 200.391C139.483 200.281 139.813 200.419 139.95 200.721C140.692 202.534 141.379 204.402 141.983 206.297C142.093 206.599 141.901 206.929 141.599 207.039C141.544 207.011 141.489 207.039 141.406 207.039ZM8.9477 206.544C8.89276 206.544 8.8378 206.544 8.75539 206.517C8.45322 206.407 8.2884 206.077 8.37081 205.775C8.97514 203.907 9.68938 202.039 10.4585 200.226C10.5959 199.924 10.9255 199.787 11.2277 199.924C11.5298 200.061 11.6672 200.391 11.5298 200.693C10.7607 202.479 10.0739 204.319 9.46959 206.16C9.44212 206.379 9.19492 206.544 8.9477 206.544ZM135.803 194.101C135.61 194.101 135.39 193.991 135.281 193.798C134.347 192.123 133.303 190.447 132.204 188.854C132.012 188.579 132.094 188.222 132.369 188.03C132.644 187.837 133.001 187.92 133.193 188.195C134.292 189.815 135.335 191.518 136.297 193.221C136.462 193.496 136.352 193.853 136.077 194.018C135.995 194.1 135.912 194.101 135.803 194.101ZM14.6888 193.688C14.5789 193.688 14.4965 193.661 14.3867 193.606C14.112 193.441 14.0021 193.084 14.1669 192.809C15.1558 191.106 16.1997 189.403 17.3259 187.782C17.5182 187.508 17.8753 187.453 18.15 187.645C18.4247 187.837 18.4797 188.195 18.2874 188.469C17.1886 190.062 16.1447 191.711 15.1833 193.414C15.0734 193.579 14.8811 193.688 14.6888 193.688ZM127.699 182.618C127.534 182.618 127.369 182.563 127.259 182.426C125.996 180.97 124.65 179.542 123.249 178.196C123.029 177.976 123.002 177.591 123.249 177.371C123.469 177.152 123.853 177.124 124.073 177.371C125.474 178.745 126.847 180.201 128.138 181.684C128.358 181.931 128.331 182.289 128.084 182.508C127.974 182.563 127.836 182.618 127.699 182.618ZM22.8748 182.234C22.7374 182.234 22.6001 182.179 22.4902 182.096C22.243 181.876 22.2155 181.519 22.4353 181.272C23.7264 179.789 25.0998 178.36 26.5283 176.987C26.748 176.767 27.1326 176.767 27.3524 177.014C27.5721 177.234 27.5721 177.619 27.3249 177.838C25.9239 179.184 24.5779 180.585 23.2868 182.041C23.177 182.151 23.0396 182.234 22.8748 182.234ZM117.453 172.949C117.315 172.949 117.206 172.921 117.096 172.839C115.557 171.658 113.964 170.532 112.316 169.488C112.041 169.323 111.959 168.938 112.151 168.691C112.316 168.416 112.673 168.334 112.948 168.526C114.596 169.598 116.244 170.724 117.81 171.932C118.057 172.125 118.112 172.509 117.92 172.757C117.81 172.894 117.618 172.949 117.453 172.949ZM33.1759 172.647C33.0111 172.647 32.8188 172.564 32.7089 172.427C32.5167 172.18 32.5716 171.795 32.8188 171.603C34.3846 170.422 36.0328 169.295 37.6809 168.224C37.9556 168.059 38.3127 168.142 38.4776 168.416C38.6424 168.691 38.56 169.048 38.2853 169.213C36.6371 170.257 35.0438 171.356 33.5055 172.537C33.4231 172.592 33.3133 172.647 33.1759 172.647ZM105.476 165.56C105.394 165.56 105.311 165.532 105.229 165.505C103.498 164.653 101.685 163.884 99.8722 163.17C99.5701 163.06 99.4327 162.703 99.5426 162.401C99.6525 162.098 100.01 161.961 100.312 162.071C102.152 162.785 103.965 163.582 105.751 164.433C106.053 164.571 106.163 164.928 106.025 165.202C105.888 165.45 105.668 165.56 105.476 165.56ZM45.2076 165.34C44.9879 165.34 44.7681 165.23 44.6857 165.01C44.5484 164.708 44.6582 164.378 44.9604 164.241C46.7459 163.389 48.5589 162.62 50.4269 161.934C50.729 161.824 51.0586 161.961 51.1685 162.263C51.2784 162.565 51.1411 162.895 50.8389 163.005C49.0259 163.692 47.2129 164.461 45.4823 165.285C45.3724 165.312 45.29 165.34 45.2076 165.34ZM92.2356 160.725C92.1807 160.725 92.1258 160.725 92.0983 160.697C90.2304 160.23 88.3075 159.818 86.3846 159.489C86.055 159.434 85.8627 159.132 85.8901 158.829C85.9451 158.5 86.2473 158.308 86.5494 158.335C88.4998 158.665 90.4501 159.077 92.3455 159.544C92.6477 159.626 92.84 159.928 92.7575 160.258C92.7301 160.56 92.5103 160.725 92.2356 160.725ZM58.4754 160.615C58.2007 160.615 57.981 160.423 57.8986 160.175C57.8162 159.873 58.0085 159.544 58.3381 159.461C59.4918 159.187 60.7005 158.912 61.8817 158.692C62.6234 158.555 63.3925 158.417 64.1617 158.28C64.4913 158.225 64.7935 158.445 64.8209 158.775C64.8759 159.104 64.6561 159.406 64.3265 159.434C63.5848 159.544 62.8156 159.681 62.074 159.818C60.9202 160.038 59.739 160.285 58.6128 160.588C58.5853 160.615 58.5304 160.615 58.4754 160.615ZM78.3085 158.665C78.3085 158.665 78.2811 158.665 78.3085 158.665C77.2647 158.61 76.2208 158.582 75.2045 158.582C74.298 158.582 73.364 158.61 72.4575 158.637C72.1279 158.665 71.8532 158.39 71.8532 158.088C71.8532 157.758 72.1004 157.483 72.4026 157.483C73.3365 157.456 74.2705 157.429 75.177 157.429C76.2208 157.429 77.2647 157.456 78.3085 157.511C78.6382 157.538 78.8854 157.786 78.8579 158.115C78.8854 158.417 78.6107 158.665 78.3085 158.665Z" fill="#DEDEDE"/>
<path d="M289.083 244.59C288.754 244.617 288.424 244.645 288.067 244.645C287.737 244.672 287.462 244.425 287.462 244.095C287.435 243.766 287.682 243.491 288.012 243.491C289.935 243.381 291.858 243.216 293.753 243.024C294.083 242.997 294.357 243.216 294.385 243.546C294.412 243.876 294.192 244.15 293.863 244.178C292.297 244.37 290.676 244.507 289.083 244.59ZM279.963 244.837C279.936 244.837 279.936 244.837 279.908 244.837C277.985 244.809 276.008 244.755 274.085 244.645C273.755 244.617 273.508 244.342 273.535 244.04C273.563 243.711 273.837 243.463 274.14 243.491C276.063 243.601 277.985 243.656 279.908 243.683C280.238 243.683 280.485 243.958 280.485 244.26C280.513 244.59 280.265 244.837 279.963 244.837ZM301.884 243.079C301.582 243.106 301.335 242.887 301.28 242.584C301.225 242.255 301.444 241.953 301.747 241.898C303.642 241.568 305.537 241.211 307.405 240.799C307.708 240.717 308.037 240.936 308.092 241.238C308.175 241.541 307.955 241.87 307.653 241.925C305.757 242.337 303.834 242.722 301.939 243.051C301.939 243.079 301.911 243.079 301.884 243.079ZM266.091 243.903C266.064 243.903 266.009 243.903 265.981 243.903C264.058 243.656 262.135 243.381 260.213 243.051C259.883 242.996 259.691 242.694 259.746 242.365C259.801 242.035 260.103 241.843 260.432 241.898C262.328 242.227 264.251 242.502 266.146 242.749C266.476 242.777 266.695 243.079 266.64 243.409C266.585 243.683 266.366 243.903 266.091 243.903ZM315.454 239.975C315.179 240.002 314.932 239.81 314.85 239.563C314.767 239.261 314.932 238.931 315.262 238.849C317.102 238.327 318.943 237.722 320.756 237.118C321.058 237.008 321.387 237.173 321.497 237.475C321.607 237.777 321.442 238.107 321.14 238.217C319.3 238.849 317.432 239.425 315.591 239.975C315.536 239.975 315.481 239.975 315.454 239.975ZM252.384 241.376C252.329 241.376 252.274 241.376 252.219 241.348C250.351 240.881 248.456 240.387 246.588 239.837C246.285 239.755 246.093 239.425 246.203 239.123C246.285 238.821 246.615 238.629 246.917 238.739C248.758 239.288 250.626 239.783 252.494 240.25C252.796 240.332 252.988 240.634 252.933 240.964C252.851 241.184 252.631 241.376 252.384 241.376ZM328.557 235.332C328.31 235.36 328.09 235.223 327.98 234.975C327.843 234.673 328.008 234.344 328.282 234.206C330.04 233.465 331.826 232.668 333.556 231.844C333.859 231.706 334.188 231.816 334.326 232.118C334.463 232.421 334.353 232.75 334.051 232.888C332.32 233.712 330.507 234.508 328.722 235.278C328.694 235.332 328.639 235.332 328.557 235.332ZM239.088 237.31C239.006 237.31 238.924 237.31 238.841 237.283C237.028 236.624 235.215 235.882 233.43 235.113C233.127 234.975 232.99 234.646 233.127 234.344C233.265 234.041 233.594 233.904 233.897 234.041C235.655 234.783 237.468 235.525 239.253 236.184C239.555 236.294 239.72 236.624 239.61 236.926C239.5 237.145 239.308 237.283 239.088 237.31ZM341.056 229.234C340.836 229.262 340.616 229.152 340.506 228.932C340.342 228.657 340.451 228.3 340.726 228.135C342.402 227.201 344.05 226.213 345.671 225.196C345.945 225.031 346.302 225.114 346.467 225.388C346.632 225.663 346.55 226.02 346.275 226.185C344.627 227.201 342.951 228.218 341.275 229.152C341.221 229.207 341.138 229.234 341.056 229.234ZM226.315 231.734C226.205 231.734 226.123 231.734 226.013 231.679C224.282 230.8 222.552 229.866 220.876 228.932C220.601 228.767 220.491 228.41 220.656 228.135C220.821 227.861 221.178 227.751 221.453 227.916C223.128 228.85 224.832 229.784 226.535 230.635C226.809 230.773 226.947 231.13 226.782 231.432C226.7 231.597 226.535 231.706 226.315 231.734ZM352.73 221.735C352.538 221.735 352.346 221.653 352.208 221.488C352.016 221.213 352.071 220.856 352.346 220.664C353.884 219.537 355.45 218.356 356.933 217.175C357.18 216.983 357.565 217.01 357.757 217.257C357.95 217.505 357.922 217.889 357.675 218.082C356.164 219.29 354.598 220.471 353.032 221.598C352.95 221.708 352.84 221.735 352.73 221.735ZM214.283 224.729C214.173 224.729 214.036 224.702 213.926 224.647C212.305 223.575 210.712 222.477 209.146 221.323C208.899 221.131 208.817 220.774 209.009 220.499C209.201 220.252 209.559 220.169 209.833 220.362C211.372 221.488 212.965 222.587 214.585 223.658C214.86 223.823 214.943 224.207 214.75 224.454C214.64 224.647 214.476 224.729 214.283 224.729ZM363.526 212.972C363.361 212.972 363.169 212.917 363.059 212.78C362.839 212.533 362.867 212.176 363.086 211.956C364.487 210.665 365.888 209.319 367.234 207.973C367.454 207.753 367.839 207.753 368.058 207.973C368.278 208.192 368.278 208.577 368.058 208.797C366.685 210.17 365.284 211.516 363.856 212.835C363.773 212.89 363.636 212.945 363.526 212.972ZM203.131 216.433C202.993 216.433 202.828 216.406 202.719 216.296C201.235 215.06 199.752 213.769 198.351 212.45C198.104 212.23 198.104 211.873 198.323 211.626C198.543 211.379 198.9 211.379 199.148 211.599C200.548 212.89 202.004 214.181 203.488 215.417C203.735 215.637 203.762 215.994 203.57 216.241C203.433 216.351 203.295 216.433 203.131 216.433ZM373.223 203.001C373.085 203.001 372.92 202.973 372.811 202.863C372.563 202.644 372.536 202.286 372.756 202.039C374.019 200.583 375.255 199.1 376.437 197.589C376.629 197.342 377.013 197.287 377.261 197.479C377.508 197.672 377.563 198.056 377.371 198.303C376.162 199.814 374.926 201.325 373.662 202.781C373.525 202.918 373.36 203.001 373.223 203.001ZM192.994 206.929C192.83 206.929 192.665 206.874 192.527 206.737C191.209 205.336 189.89 203.88 188.627 202.424C188.407 202.177 188.434 201.819 188.682 201.6C188.929 201.38 189.286 201.407 189.506 201.655C190.769 203.111 192.06 204.539 193.379 205.912C193.599 206.16 193.599 206.517 193.351 206.737C193.242 206.846 193.132 206.901 192.994 206.929ZM381.738 192.013C381.601 192.013 381.491 191.985 381.381 191.903C381.106 191.711 381.052 191.354 381.244 191.079C382.343 189.513 383.386 187.865 384.403 186.244C384.568 185.969 384.925 185.887 385.199 186.052C385.474 186.217 385.557 186.574 385.392 186.849C384.375 188.497 383.304 190.145 382.205 191.738C382.068 191.903 381.903 192.013 381.738 192.013ZM183.984 196.326C183.792 196.326 183.6 196.271 183.49 196.106C182.336 194.568 181.182 192.974 180.084 191.381C179.891 191.106 179.974 190.749 180.248 190.557C180.523 190.365 180.88 190.447 181.072 190.722C182.144 192.315 183.27 193.881 184.424 195.392C184.616 195.639 184.561 196.023 184.314 196.216C184.204 196.271 184.094 196.326 183.984 196.326ZM388.963 180.118C388.853 180.118 388.743 180.091 388.661 180.064C388.386 179.899 388.276 179.569 388.413 179.267C389.32 177.564 390.199 175.833 390.996 174.103C391.133 173.8 391.49 173.691 391.765 173.828C392.067 173.965 392.177 174.322 392.039 174.597C391.215 176.355 390.336 178.086 389.43 179.816C389.347 179.981 389.155 180.091 388.963 180.118ZM176.265 184.761C176.046 184.788 175.826 184.678 175.716 184.486C174.727 182.811 173.793 181.107 172.887 179.404C172.749 179.13 172.859 178.772 173.134 178.608C173.408 178.47 173.766 178.58 173.93 178.855C174.809 180.558 175.771 182.234 176.732 183.882C176.897 184.157 176.815 184.514 176.513 184.678C176.458 184.733 176.375 184.761 176.265 184.761ZM394.786 167.482C394.704 167.482 394.622 167.482 394.539 167.455C394.237 167.345 394.1 166.988 394.209 166.686C394.924 164.9 395.583 163.087 396.187 161.247C396.297 160.945 396.627 160.78 396.929 160.89C397.231 161 397.396 161.329 397.286 161.631C396.654 163.472 395.995 165.312 395.281 167.098C395.198 167.318 395.006 167.455 394.786 167.482ZM169.92 172.4C169.673 172.427 169.453 172.29 169.343 172.042C168.546 170.284 167.805 168.471 167.118 166.658C167.008 166.356 167.145 166.027 167.448 165.889C167.75 165.779 168.079 165.917 168.217 166.219C168.903 168.004 169.645 169.79 170.414 171.548C170.552 171.85 170.414 172.18 170.112 172.317C170.057 172.4 170.002 172.4 169.92 172.4ZM399.127 154.242C399.072 154.242 398.989 154.242 398.934 154.215C398.632 154.132 398.44 153.803 398.522 153.5C399.017 151.632 399.456 149.765 399.868 147.869C399.923 147.567 400.253 147.347 400.555 147.43C400.857 147.485 401.077 147.814 400.994 148.116C400.582 150.012 400.143 151.907 399.621 153.803C399.594 154.05 399.374 154.215 399.127 154.242ZM165.03 159.379C164.756 159.406 164.508 159.242 164.426 158.967C163.849 157.126 163.3 155.231 162.833 153.363C162.75 153.061 162.943 152.731 163.245 152.649C163.547 152.566 163.877 152.759 163.959 153.061C164.453 154.901 164.975 156.769 165.552 158.61C165.635 158.912 165.47 159.242 165.168 159.351C165.113 159.379 165.085 159.379 165.03 159.379ZM401.928 140.617C401.901 140.617 401.846 140.617 401.819 140.617C401.489 140.562 401.269 140.287 401.324 139.958C401.599 138.062 401.846 136.14 402.011 134.217C402.038 133.887 402.34 133.667 402.643 133.695C402.972 133.722 403.192 134.024 403.165 134.327C402.972 136.249 402.753 138.2 402.478 140.123C402.423 140.397 402.203 140.59 401.928 140.617ZM161.651 145.891C161.349 145.919 161.102 145.699 161.047 145.424C160.69 143.529 160.36 141.606 160.086 139.683C160.031 139.354 160.251 139.079 160.58 139.024C160.91 138.969 161.184 139.189 161.239 139.518C161.514 141.414 161.816 143.337 162.173 145.205C162.228 145.534 162.036 145.836 161.706 145.891C161.706 145.891 161.679 145.891 161.651 145.891ZM403.137 126.745C403.11 126.745 403.11 126.745 403.082 126.745C402.753 126.745 402.505 126.47 402.505 126.141C402.56 124.218 402.56 122.295 402.533 120.372C402.533 120.042 402.78 119.795 403.11 119.768C403.439 119.768 403.686 120.015 403.714 120.345C403.741 122.267 403.741 124.245 403.687 126.168C403.659 126.498 403.412 126.717 403.137 126.745ZM159.838 132.102C159.509 132.129 159.234 131.882 159.207 131.552C159.179 131.085 159.152 130.646 159.124 130.179C159.042 128.695 158.959 127.212 158.904 125.729C158.904 125.399 159.152 125.152 159.481 125.124C159.811 125.124 160.086 125.371 160.086 125.701C160.141 127.157 160.196 128.64 160.278 130.124C160.305 130.563 160.333 131.03 160.36 131.47C160.388 131.799 160.168 132.074 159.838 132.102ZM402.753 112.845C402.423 112.873 402.148 112.626 402.121 112.323C401.956 110.428 401.764 108.478 401.489 106.582L401.461 106.39C401.406 106.06 401.654 105.786 401.956 105.731C402.286 105.676 402.56 105.923 402.615 106.225L402.643 106.417C402.89 108.34 403.11 110.291 403.274 112.213C403.329 112.543 403.082 112.818 402.753 112.845ZM159.564 118.202C159.536 118.202 159.536 118.202 159.509 118.202C159.179 118.202 158.932 117.927 158.959 117.598C159.042 115.675 159.152 113.697 159.317 111.774C159.344 111.444 159.619 111.225 159.948 111.252C160.278 111.28 160.498 111.554 160.47 111.884C160.305 113.779 160.196 115.73 160.113 117.652C160.113 117.955 159.866 118.174 159.564 118.202ZM400.747 98.8907C400.473 98.9182 400.198 98.7259 400.143 98.4237C399.758 96.5558 399.346 94.6604 398.879 92.7925C398.797 92.4903 398.989 92.1607 399.291 92.0783C399.594 91.9958 399.923 92.1881 400.006 92.4903C400.473 94.3582 400.912 96.2811 401.297 98.1765C401.352 98.5061 401.159 98.8083 400.83 98.8633C400.802 98.8907 400.775 98.8907 400.747 98.8907ZM160.882 104.357C160.827 104.357 160.8 104.357 160.745 104.357C160.415 104.302 160.196 104 160.251 103.698C160.553 101.775 160.882 99.8522 161.267 97.9568C161.322 97.6271 161.651 97.4348 161.954 97.4898C162.283 97.5447 162.476 97.8743 162.421 98.1765C162.036 100.044 161.706 101.967 161.404 103.863C161.404 104.137 161.157 104.33 160.882 104.357ZM397.259 85.4306C397.011 85.4581 396.737 85.2933 396.654 85.0186C396.077 83.2056 395.418 81.3651 394.759 79.5796C394.649 79.2774 394.786 78.9478 395.088 78.8379C395.391 78.728 395.72 78.8654 395.83 79.1675C396.517 80.9805 397.149 82.821 397.753 84.6615C397.863 84.9636 397.671 85.2932 397.368 85.4031C397.341 85.4306 397.286 85.4306 397.259 85.4306ZM163.822 90.7322C163.767 90.7322 163.684 90.7322 163.629 90.7048C163.327 90.6224 163.135 90.2927 163.217 89.9906C163.739 88.1226 164.289 86.2547 164.893 84.4142C165.003 84.1121 165.332 83.9472 165.635 84.0296C165.937 84.1395 166.102 84.4692 166.019 84.7713C165.415 86.5843 164.865 88.4523 164.343 90.2927C164.261 90.54 164.041 90.7048 163.822 90.7322ZM392.232 72.4649C391.984 72.4924 391.765 72.355 391.655 72.1353C390.858 70.4047 390.007 68.6467 389.128 66.9435C388.99 66.6688 389.1 66.3117 389.375 66.1469C389.649 66.0096 390.007 66.1194 390.171 66.3941C391.05 68.1247 391.902 69.8828 392.699 71.6408C392.836 71.943 392.699 72.2726 392.396 72.41C392.369 72.4375 392.287 72.4649 392.232 72.4649ZM168.272 77.5468C168.189 77.5468 168.107 77.5468 168.024 77.4919C167.722 77.382 167.585 77.0249 167.695 76.7227C168.409 74.9372 169.206 73.1242 170.002 71.3661C170.14 71.064 170.497 70.9541 170.771 71.0914C171.074 71.2288 171.183 71.5859 171.046 71.8606C170.249 73.5912 169.48 75.3767 168.766 77.1622C168.684 77.382 168.491 77.5193 168.272 77.5468ZM385.749 60.1585C385.529 60.1585 385.337 60.0761 385.199 59.8838C384.211 58.2357 383.167 56.6149 382.123 55.0217C381.931 54.747 382.013 54.3899 382.288 54.1976C382.562 54.0053 382.919 54.0877 383.112 54.3624C384.183 55.9557 385.227 57.6313 386.243 59.2795C386.408 59.5542 386.326 59.9113 386.051 60.0761C385.941 60.1311 385.831 60.1585 385.749 60.1585ZM174.205 64.9382C174.095 64.9382 173.985 64.9108 173.875 64.8558C173.601 64.691 173.491 64.3339 173.628 64.0592C174.562 62.3561 175.524 60.653 176.54 59.0048C176.705 58.7301 177.062 58.6477 177.337 58.8125C177.611 58.9773 177.694 59.3344 177.529 59.6091C176.54 61.2573 175.579 62.933 174.645 64.6086C174.59 64.8284 174.397 64.9382 174.205 64.9382ZM377.92 48.7037C377.728 48.7037 377.535 48.6487 377.425 48.4839C376.244 46.9731 375.036 45.4623 373.8 44.0064C373.58 43.7592 373.607 43.402 373.854 43.1823C374.102 42.9625 374.459 42.99 374.679 43.2372C375.942 44.7206 377.151 46.2314 378.332 47.7697C378.524 48.0169 378.469 48.4015 378.222 48.5938C378.14 48.6487 378.03 48.6762 377.92 48.7037ZM181.54 53.1263C181.402 53.1263 181.292 53.0988 181.155 53.0164C180.88 52.8241 180.825 52.467 181.018 52.1923C182.116 50.5991 183.298 49.0333 184.479 47.495C184.671 47.2478 185.056 47.1929 185.303 47.3851C185.55 47.5774 185.605 47.962 185.413 48.2092C184.231 49.7201 183.078 51.2858 181.979 52.8516C181.869 53.0164 181.704 53.0988 181.54 53.1263ZM368.8 38.1828C368.635 38.1828 368.47 38.1279 368.333 38.018C366.987 36.6445 365.614 35.2985 364.213 33.98C363.965 33.7602 363.965 33.3756 364.185 33.1559C364.405 32.9086 364.762 32.9086 365.009 33.1284C366.41 34.4469 367.811 35.8204 369.157 37.2214C369.377 37.4411 369.377 37.8257 369.157 38.0455C369.075 38.1279 368.937 38.1828 368.8 38.1828ZM190.137 42.1934C190 42.1934 189.835 42.1659 189.725 42.056C189.478 41.8363 189.451 41.4792 189.67 41.2319C190.962 39.776 192.28 38.3476 193.626 36.9741C193.846 36.7544 194.23 36.7269 194.45 36.9741C194.67 37.1939 194.697 37.5785 194.45 37.7982C193.104 39.1717 191.786 40.6001 190.522 42.0286C190.44 42.111 190.302 42.1934 190.137 42.1934ZM358.581 28.7882C358.444 28.7882 358.279 28.7607 358.169 28.6508C356.686 27.4422 355.148 26.2335 353.609 25.1072C353.362 24.915 353.307 24.5579 353.499 24.2832C353.692 24.0359 354.049 23.981 354.324 24.1733C355.889 25.327 357.428 26.5357 358.911 27.7718C359.158 27.9641 359.186 28.3487 358.993 28.5959C358.884 28.7058 358.719 28.7607 358.581 28.7882ZM199.944 32.3318C199.779 32.3318 199.587 32.2768 199.477 32.1395C199.257 31.8923 199.285 31.5352 199.532 31.3154C200.961 30.0243 202.444 28.7607 203.955 27.5246C204.202 27.3323 204.586 27.3598 204.779 27.607C204.971 27.8542 204.944 28.2388 204.696 28.4311C203.213 29.6397 201.73 30.9034 200.329 32.1944C200.191 32.2768 200.054 32.3318 199.944 32.3318ZM347.319 20.5748C347.209 20.5748 347.072 20.5473 346.962 20.4923C345.341 19.4485 343.693 18.4321 342.045 17.4707C341.77 17.3059 341.66 16.9488 341.825 16.6741C341.99 16.3994 342.347 16.2895 342.621 16.4543C344.297 17.4157 345.973 18.4596 347.594 19.5034C347.868 19.6683 347.951 20.0528 347.758 20.3001C347.676 20.4923 347.511 20.5748 347.319 20.5748ZM210.795 23.6514C210.602 23.6514 210.41 23.569 210.273 23.4041C210.08 23.1294 210.135 22.7723 210.41 22.5801C211.976 21.4538 213.597 20.355 215.217 19.3112C215.492 19.1463 215.849 19.2287 216.014 19.476C216.179 19.7507 216.096 20.1078 215.849 20.2726C214.228 21.3164 212.635 22.3878 211.069 23.4865C210.987 23.5964 210.877 23.6239 210.795 23.6514ZM335.232 13.7073C335.122 13.7073 335.04 13.7074 334.93 13.6524C333.199 12.8009 331.441 11.9768 329.683 11.2076C329.381 11.0703 329.244 10.7406 329.381 10.4385C329.518 10.1363 329.848 9.99894 330.15 10.1363C331.936 10.9054 333.694 11.7295 335.424 12.6086C335.727 12.7459 335.836 13.103 335.699 13.4052C335.617 13.5975 335.424 13.7073 335.232 13.7073ZM222.552 16.262C222.332 16.2895 222.112 16.1521 222.002 15.9599C221.837 15.6852 221.947 15.3281 222.222 15.1632C223.925 14.2293 225.656 13.3228 227.386 12.4712C227.688 12.3339 228.018 12.4437 228.155 12.7459C228.293 13.0481 228.183 13.3777 227.881 13.5151C226.15 14.3666 224.447 15.2456 222.771 16.1796C222.716 16.2071 222.634 16.2346 222.552 16.262ZM322.404 8.26836C322.321 8.26836 322.239 8.26836 322.157 8.24089C320.344 7.58162 318.503 6.97728 316.663 6.42789C316.36 6.34548 316.168 6.01586 316.278 5.68622C316.361 5.38405 316.69 5.19176 317.02 5.30164C318.86 5.8785 320.728 6.48284 322.569 7.14211C322.871 7.25199 323.036 7.58163 322.926 7.88379C322.843 8.10355 322.651 8.26836 322.404 8.26836ZM235.078 10.2462C234.831 10.2736 234.583 10.1363 234.501 9.88907C234.391 9.58691 234.528 9.25727 234.831 9.11993C236.616 8.37825 238.457 7.69149 240.27 7.03222C240.572 6.92234 240.901 7.08716 241.011 7.38933C241.121 7.69149 240.956 8.02113 240.654 8.13101C238.841 8.76281 237.028 9.44955 235.27 10.1912C235.215 10.2187 235.16 10.2462 235.078 10.2462ZM309.054 4.3402C308.999 4.3402 308.944 4.34021 308.889 4.31274C307.021 3.87322 305.125 3.48864 303.23 3.13153C302.9 3.07659 302.708 2.77442 302.763 2.44479C302.818 2.11515 303.12 1.92288 303.45 1.97782C305.345 2.33492 307.268 2.7195 309.163 3.15901C309.466 3.24142 309.685 3.54358 309.603 3.87321C309.521 4.14791 309.301 4.31273 309.054 4.3402ZM248.236 5.71368C247.961 5.74115 247.714 5.54887 247.631 5.30164C247.549 4.99947 247.714 4.66984 248.043 4.58743C249.911 4.06551 251.807 3.57105 253.675 3.15901C253.977 3.0766 254.307 3.29635 254.389 3.59852C254.471 3.90068 254.252 4.23033 253.949 4.31274C252.082 4.75225 250.214 5.21922 248.346 5.74115C248.318 5.71368 248.291 5.71368 248.236 5.71368ZM295.346 1.95034C295.319 1.95034 295.264 1.95034 295.236 1.95034C293.341 1.73058 291.391 1.56577 289.495 1.42842C289.166 1.40096 288.918 1.12625 288.946 0.79661C288.973 0.466974 289.248 0.219747 289.578 0.247217C291.5 0.384565 293.451 0.54939 295.374 0.769147C295.703 0.796616 295.923 1.09879 295.896 1.42842C295.841 1.70312 295.621 1.92287 295.346 1.95034ZM261.833 2.74696C261.531 2.77443 261.256 2.55468 261.229 2.25251C261.174 1.92288 261.394 1.62071 261.723 1.59324C262.905 1.40095 264.113 1.23612 265.322 1.07131C266.036 0.988897 266.778 0.879019 267.492 0.79661C267.822 0.76914 268.096 0.988904 268.151 1.31854C268.179 1.64818 267.959 1.92288 267.629 1.97782C266.915 2.06023 266.201 2.14264 265.487 2.25251C264.306 2.41733 263.097 2.58214 261.916 2.77443C261.861 2.71949 261.833 2.74696 261.833 2.74696ZM281.447 1.15373H281.419C279.496 1.15373 277.573 1.20867 275.65 1.29108C275.321 1.31855 275.046 1.04385 275.046 0.741684C275.019 0.412048 275.266 0.137348 275.596 0.137348C277.518 0.0549393 279.496 0 281.419 0C281.749 0 281.996 0.27469 281.996 0.576856C281.996 0.879022 281.776 1.12626 281.447 1.15373Z" fill="#DEDEDE"/>
<path d="M300.675 72.6572V273.79H300.126L284.908 258.984L269.69 273.79H268.096L252.878 258.984L237.633 273.79H236.067L220.876 259.011L205.685 273.79H204.12L188.901 258.984L173.683 273.79H172.09L156.872 258.984L141.654 273.79H140.06L124.87 259.011L109.679 273.79H108.69V16.7839H244.775L300.675 72.6572Z" fill="#F2F2F2"/>
<path d="M300.675 72.6572H244.775V16.7839L300.675 72.6572Z" fill="#DEDEDE"/>
<path d="M160.333 177.289V169.762H140.033C137.478 169.762 135.555 169.186 134.264 168.032C132.973 166.878 132.341 165.285 132.341 163.307C132.341 162.785 132.424 162.263 132.616 161.741C132.808 161.219 133.083 160.67 133.468 160.093C133.852 159.516 134.237 158.967 134.649 158.417C135.061 157.868 135.555 157.209 136.132 156.44L157.558 127.761C158.959 125.866 160.113 124.52 161.02 123.668C161.926 122.817 162.997 122.405 164.289 122.405C168.381 122.405 170.442 124.74 170.442 129.437V160.725H172.172C174.26 160.725 175.908 161 177.172 161.576C178.435 162.153 179.04 163.389 179.04 165.285C179.04 166.851 178.518 167.977 177.501 168.691C176.485 169.405 174.947 169.762 172.887 169.762H170.414V177.289C170.414 179.377 169.947 180.915 169.041 181.931C168.134 182.948 166.898 183.442 165.36 183.442C163.849 183.442 162.64 182.92 161.706 181.877C160.772 180.833 160.333 179.322 160.333 177.289ZM142.945 160.725H160.333V137.238L142.945 160.725Z" fill="#262F5F"/>
<path d="M225.848 153.363C225.848 157.786 225.573 161.576 225.051 164.763C224.502 167.949 223.513 170.834 222.057 173.416C220.217 176.602 217.854 179.047 214.943 180.778C212.031 182.508 208.789 183.36 205.246 183.36C201.153 183.36 197.472 182.206 194.23 179.871C190.989 177.564 188.544 174.35 186.896 170.257C186.072 168.032 185.44 165.56 185.056 162.84C184.671 160.121 184.479 157.209 184.479 154.05C184.479 149.984 184.698 146.303 185.138 143.062C185.577 139.793 186.237 136.991 187.171 134.656C188.764 130.783 191.071 127.816 194.093 125.783C197.115 123.751 200.741 122.734 204.944 122.734C207.718 122.734 210.245 123.174 212.498 124.08C214.75 124.987 216.756 126.305 218.459 128.036C220.162 129.767 221.618 131.937 222.799 134.491C224.832 138.914 225.848 145.205 225.848 153.363ZM214.778 152.539C214.778 147.594 214.476 143.556 213.899 140.425C213.294 137.293 212.305 134.903 210.905 133.31C209.504 131.717 207.553 130.893 205.081 130.893C201.51 130.893 199.038 132.678 197.664 136.277C196.263 139.875 195.576 145.397 195.576 152.869C195.576 157.95 195.879 162.098 196.455 165.312C197.06 168.554 198.049 170.999 199.45 172.647C200.851 174.295 202.746 175.146 205.163 175.146C207.636 175.146 209.586 174.295 210.987 172.564C212.388 170.834 213.377 168.361 213.926 165.175C214.476 161.961 214.778 157.758 214.778 152.539Z" fill="#262F5F"/>
<path d="M258.757 177.289V169.762H238.457C235.902 169.762 233.979 169.186 232.688 168.032C231.397 166.878 230.765 165.285 230.765 163.307C230.765 162.785 230.847 162.263 231.04 161.741C231.232 161.219 231.507 160.67 231.891 160.093C232.276 159.516 232.66 158.967 233.072 158.417C233.485 157.868 233.979 157.209 234.556 156.44L255.982 127.761C257.383 125.866 258.537 124.52 259.443 123.668C260.35 122.817 261.421 122.405 262.685 122.405C266.778 122.405 268.838 124.74 268.838 129.437V160.725H270.569C272.656 160.725 274.304 161 275.568 161.576C276.832 162.153 277.436 163.389 277.436 165.285C277.436 166.851 276.914 167.977 275.898 168.691C274.881 169.405 273.343 169.762 271.283 169.762H268.811V177.289C268.811 179.377 268.344 180.915 267.437 181.931C266.531 182.948 265.294 183.442 263.756 183.442C262.245 183.442 261.037 182.92 260.103 181.877C259.169 180.833 258.757 179.322 258.757 177.289ZM241.368 160.725H258.757V137.238L241.368 160.725Z" fill="#262F5F"/>
<path d="M203.186 332.822C200.548 335.459 196.263 335.459 193.599 332.822L152.477 291.7L147.257 286.481C151.048 283.981 154.317 280.712 156.844 276.894L203.186 323.235C205.823 325.9 205.823 330.185 203.186 332.822Z" fill="#9C9C9C"/>
<path d="M158.932 278.982L169.645 289.695C167.145 293.486 163.876 296.755 160.058 299.282L154.564 293.788L149.345 288.569C153.136 286.041 156.405 282.8 158.932 278.982Z" fill="#5E5E5E"/>
<path d="M169.59 256.676C169.508 254.946 169.343 253.243 169.041 251.567C167.42 242.063 162.53 233.684 155.581 227.614C148.411 221.378 139.044 217.587 128.798 217.587C106.245 217.587 87.9503 235.882 87.9503 258.434C87.9503 260 88.0328 261.539 88.1976 263.049C88.7195 267.802 90.093 272.307 92.0983 276.427C95.0101 282.333 99.2953 287.442 104.569 291.316C105.421 291.947 106.3 292.552 107.207 293.101C113.47 297.002 120.859 299.254 128.798 299.254C137.643 299.254 145.801 296.452 152.504 291.673C156.212 289.036 159.454 285.794 162.091 282.086C164.728 278.377 166.788 274.202 168.079 269.697C169.123 266.098 169.673 262.308 169.673 258.407C169.645 257.858 169.618 257.253 169.59 256.676ZM128.798 292.002C121.463 292.002 114.651 289.64 109.129 285.629C103.773 281.756 99.5975 276.317 97.2626 269.972C95.9441 266.373 95.2298 262.472 95.2298 258.407C95.2298 256.869 95.3397 255.385 95.532 253.902C97.2076 241.458 105.696 231.157 117.123 226.927C120.749 225.581 124.705 224.839 128.798 224.839C130.281 224.839 131.737 224.921 133.165 225.114C139.978 225.993 146.131 228.932 151.021 233.245C157.971 239.398 162.338 248.381 162.338 258.407C162.338 258.929 162.338 259.423 162.311 259.945C162.201 262.418 161.816 264.807 161.212 267.115C160.278 270.631 158.767 273.927 156.817 276.894C154.317 280.685 151.048 283.954 147.23 286.481C146.296 287.085 145.334 287.662 144.346 288.184C142.23 289.31 139.95 290.189 137.588 290.821C134.814 291.618 131.847 292.002 128.798 292.002Z" fill="#B8B8B8"/>
<path d="M103.361 262.115C101.63 262.115 100.229 260.714 100.229 258.984C100.229 251.21 103.251 243.903 108.745 238.382C114.239 232.888 121.546 229.866 129.347 229.866C131.078 229.866 132.479 231.267 132.479 232.998C132.479 234.728 131.078 236.129 129.347 236.129C123.249 236.129 117.508 238.519 113.195 242.832C108.882 247.144 106.492 252.886 106.492 258.984C106.492 260.714 105.091 262.115 103.361 262.115Z" fill="white"/>
</svg>
