<svg xmlns="http://www.w3.org/2000/svg" width="34.737" height="40.517" viewBox="0 0 34.737 40.517">
  <g id="add-to-cart" transform="translate(-17.365)">
    <path id="Path_1576" data-name="Path 1576" d="M110.486,122.98a1.248,1.248,0,0,0,1.24,1.12,1.267,1.267,0,0,0,.13-.007,1.248,1.248,0,0,0,1.113-1.37l-.575-5.569a1.248,1.248,0,0,0-2.483.257Z" transform="translate(-77.141 -96.728)" fill="#fff"/>
    <path id="Path_1577" data-name="Path 1577" d="M154.728,124.094a1.267,1.267,0,0,0,.13.007,1.248,1.248,0,0,0,1.24-1.12l.575-5.569a1.248,1.248,0,0,0-2.483-.257l-.575,5.569A1.248,1.248,0,0,0,154.728,124.094Z" transform="translate(-113.573 -96.729)" fill="#fff"/>
    <path id="Path_1578" data-name="Path 1578" d="M82.914,197.064a3.863,3.863,0,1,0,3.863,3.863A3.867,3.867,0,0,0,82.914,197.064Zm0,5.231a1.367,1.367,0,1,1,1.367-1.368A1.369,1.369,0,0,1,82.914,202.295Z" transform="translate(-51.422 -164.274)" fill="#fff"/>
    <path id="Path_1579" data-name="Path 1579" d="M160.354,197.064a3.863,3.863,0,1,0,3.863,3.863A3.867,3.867,0,0,0,160.354,197.064Zm0,5.231a1.367,1.367,0,1,1,1.367-1.368A1.369,1.369,0,0,1,160.354,202.295Z" transform="translate(-115.976 -164.274)" fill="#fff"/>
    <path id="Path_1580" data-name="Path 1580" d="M51.842,63.826a1.248,1.248,0,0,0-.987-.485H25.98l-1.044-4.017a1.248,1.248,0,0,0-1.208-.934H18.613a1.248,1.248,0,1,0,0,2.5h4.15l1.035,3.98c.006.025.012.05.019.074l3.852,14.813a1.248,1.248,0,0,0,1.208.934H46.993a1.248,1.248,0,0,0,1.208-.934L52.063,64.9A1.249,1.249,0,0,0,51.842,63.826ZM46.028,78.192H29.842L26.629,65.838H49.241Z" transform="translate(0 -48.675)" fill="#fff"/>
    <path id="Path_1581" data-name="Path 1581" d="M113.618,12.451a1.248,1.248,0,0,0,1.765,0l4.04-4.04a1.248,1.248,0,0,0-1.765-1.765L115.75,8.554V1.248A1.248,1.248,0,0,0,114.5,0h0a1.248,1.248,0,0,0-1.248,1.248V8.557l-1.908-1.908a1.248,1.248,0,0,0-1.765,1.765Z" transform="translate(-76.567)" fill="#fff"/>
  </g>
</svg>
