<svg xmlns="http://www.w3.org/2000/svg" width="150.679" height="190.038" viewBox="0 0 150.679 190.038">
  <g id="order_empty_1_" data-name="order empty (1)" transform="translate(-53.02)">
    <path id="Path_1618" data-name="Path 1618" d="M203.609,156.714,195.122,49.775a13.365,13.365,0,0,0-13.265-12.287H165.095v-.753a36.734,36.734,0,1,0-73.468,0v.753H74.864A13.361,13.361,0,0,0,61.6,49.76L53.11,156.728a30.943,30.943,0,0,0,30.852,33.31h88.8a30.943,30.943,0,0,0,30.851-33.324ZM102.757,36.734a25.6,25.6,0,0,1,51.206,0v.753H102.757Zm84.535,135.824a19.608,19.608,0,0,1-14.535,6.349H83.963a19.811,19.811,0,0,1-19.754-21.312L72.7,50.625a2.182,2.182,0,0,1,2.167-2.007H91.627V62.328a5.566,5.566,0,1,0,11.131,0V48.619h51.206V62.328a5.566,5.566,0,1,0,11.131,0V48.619h16.763a2.186,2.186,0,0,1,2.168,2.021l8.487,106.939A19.612,19.612,0,0,1,187.293,172.558Z" transform="translate(0)" fill="#c7c7c7"/>
    <path id="Path_1619" data-name="Path 1619" d="M221.14,267.207l16.88-16.88a5.565,5.565,0,1,0-7.87-7.871l-16.88,16.88-16.88-16.88a5.566,5.566,0,0,0-7.871,7.871l16.88,16.88-16.88,16.88a5.565,5.565,0,1,0,7.87,7.871l16.88-16.88,16.88,16.88a5.565,5.565,0,0,0,7.87-7.871Z" transform="translate(-84.181 -151.439)" fill="#c7c7c7"/>
  </g>
</svg>
