<svg xmlns="http://www.w3.org/2000/svg" width="29.876" height="32.57" viewBox="0 0 29.876 32.57">
  <g id="order" opacity="0.4">
    <g id="Group_1318" data-name="Group 1318" transform="translate(0)">
      <g id="Group_1317" data-name="Group 1317">
        <path id="Path_1605" data-name="Path 1605" d="M62.8,8.989l-.025-.042a1.52,1.52,0,0,0-.121-.2L57.883.915A1.957,1.957,0,0,0,56.213,0H39.788a1.956,1.956,0,0,0-1.672.917l-4.85,7.989a.929.929,0,0,0-.1.224,1.541,1.541,0,0,0-.106.561V30.326a2.309,2.309,0,0,0,2.364,2.245H60.573a2.309,2.309,0,0,0,2.364-2.245V9.616c0-.028,0-.055,0-.083A.911.911,0,0,0,62.8,8.989ZM49.04,1.909h7.126l3.754,6.163H49.04Zm-9.205,0h7.194V8.072H36.093ZM60.927,30.326a.345.345,0,0,1-.353.336H35.426a.345.345,0,0,1-.353-.336V9.981H60.927Z" transform="translate(-33.062 0)" fill="#ff6f12"/>
      </g>
    </g>
    <g id="Group_1320" data-name="Group 1320" transform="translate(8.655 15.198)">
      <g id="Group_1319" data-name="Group 1319">
        <path id="Path_1606" data-name="Path 1606" d="M193.7,265.921a.988.988,0,0,0-1.4,0l-4.412,4.412-1.7-1.7a.988.988,0,1,0-1.4,1.4l2.4,2.4a.988.988,0,0,0,1.4,0l5.111-5.111A.988.988,0,0,0,193.7,265.921Z" transform="translate(-182.941 -264.458)" fill="#ff6f12"/>
      </g>
    </g>
  </g>
</svg>
