<svg xmlns="http://www.w3.org/2000/svg" width="364.164" height="414.466" viewBox="0 0 364.164 414.466">
  <g id="Group_1557" data-name="Group 1557" transform="translate(-152 -511.529)">
    <g id="Group_1457" data-name="Group 1457" transform="translate(-2008.568 -960.197)">
      <text id="_.in" data-name=".in" transform="translate(2524.563 1878.192)" fill="#ff6f12" font-size="36" font-family="Helvetica"><tspan x="-38.021" y="0">.in</tspan></text>
      <g id="Group_1453" data-name="Group 1453" transform="translate(2160.568 1758.583)">
        <path id="Path_1652" data-name="Path 1652" d="M2191.483,1637.021a29.721,29.721,0,0,1-11.982-2.455,31.56,31.56,0,0,1-16.479-16.419,29.266,29.266,0,0,1-2.455-11.924,29.657,29.657,0,0,1,2.455-11.979,31.392,31.392,0,0,1,16.479-16.479,29.574,29.574,0,0,1,11.982-2.455,29.182,29.182,0,0,1,11.925,2.455,31.545,31.545,0,0,1,16.416,16.479,29.667,29.667,0,0,1,2.458,11.979,29.276,29.276,0,0,1-2.458,11.924,31.716,31.716,0,0,1-16.416,16.419A29.326,29.326,0,0,1,2191.483,1637.021Zm0-51.048a19.124,19.124,0,0,0-7.849,1.617,20.906,20.906,0,0,0-10.783,10.783,19.855,19.855,0,0,0,0,15.7,20.948,20.948,0,0,0,4.373,6.406,20.159,20.159,0,0,0,6.41,4.319,20.6,20.6,0,0,0,15.7,0,20.2,20.2,0,0,0,10.726-10.726,19.859,19.859,0,0,0,1.558-7.853,19.2,19.2,0,0,0-1.618-7.85,21.522,21.522,0,0,0-4.317-6.41,20.042,20.042,0,0,0-6.409-4.374A19.258,19.258,0,0,0,2191.483,1585.974Z" transform="translate(-2160.568 -1553.136)" fill="#ff6f12"/>
        <path id="Path_1653" data-name="Path 1653" d="M2196.335,1579.466a22.238,22.238,0,0,1,20.731-1.858,22.305,22.305,0,0,1,11.921,11.918,21.778,21.778,0,0,1,1.739,8.633v34.153a5.318,5.318,0,0,1-5.271,5.271,5.215,5.215,0,0,1-3.834-1.557,5.066,5.066,0,0,1-1.558-3.714v-34.153a11.263,11.263,0,0,0-.9-4.494,11.83,11.83,0,0,0-6.231-6.229,11.185,11.185,0,0,0-4.494-.9,11.6,11.6,0,0,0-4.551.9,10.869,10.869,0,0,0-3.716,2.512,12.331,12.331,0,0,0-2.455,3.717,11.263,11.263,0,0,0-.9,4.494,3.855,3.855,0,0,1-.238,1.081v33.072a5.322,5.322,0,0,1-5.274,5.271,5.216,5.216,0,0,1-3.834-1.557,5.079,5.079,0,0,1-1.558-3.714v-51.885a5.319,5.319,0,0,1,5.392-5.395Q2195.617,1575.032,2196.335,1579.466Z" transform="translate(-2109.579 -1553.698)" fill="#ff6f12"/>
        <path id="Path_1654" data-name="Path 1654" d="M2261.209,1637.021a5.216,5.216,0,0,1-3.835-1.557,5.081,5.081,0,0,1-1.56-3.714v-2.283a31.548,31.548,0,0,1-9.343,5.575,30.439,30.439,0,0,1-22.771-.476,31.541,31.541,0,0,1-16.476-16.419,29.22,29.22,0,0,1-2.458-11.924,29.61,29.61,0,0,1,2.458-11.979,31.373,31.373,0,0,1,16.476-16.479,29.578,29.578,0,0,1,11.985-2.455,29.974,29.974,0,0,1,10.787,1.97,31.947,31.947,0,0,1,9.343,5.576v-2.274a5.073,5.073,0,0,1,1.56-3.717,5.225,5.225,0,0,1,3.835-1.554,5.317,5.317,0,0,1,5.274,5.271v51.168a5.322,5.322,0,0,1-5.274,5.271Zm-25.524-51.048a19.127,19.127,0,0,0-7.849,1.617,20.906,20.906,0,0,0-10.786,10.783,19.866,19.866,0,0,0,0,15.7,20.994,20.994,0,0,0,4.374,6.406,20.13,20.13,0,0,0,6.412,4.319,20.6,20.6,0,0,0,15.7,0,20.177,20.177,0,0,0,10.723-10.726,20.565,20.565,0,0,0,0-15.7,20.105,20.105,0,0,0-4.313-6.41,21.057,21.057,0,0,0-6.41-4.374A19.144,19.144,0,0,0,2235.685,1585.974Z" transform="translate(-2071.638 -1553.136)" fill="#63af31"/>
        <path id="Path_1655" data-name="Path 1655" d="M2238.927,1581.973a7.158,7.158,0,0,1-7.066-7.069,6.555,6.555,0,0,1,2.093-4.976,7.317,7.317,0,0,1,10.009,0A6.656,6.656,0,0,1,2246,1574.9a7.165,7.165,0,0,1-7.072,7.069Zm0,69.861a5.318,5.318,0,0,1-5.271-5.271v-51.168a5.313,5.313,0,0,1,5.271-5.271,5.29,5.29,0,0,1,3.777,1.554,4.981,4.981,0,0,1,1.618,3.717v51.168a4.988,4.988,0,0,1-1.618,3.714A5.281,5.281,0,0,1,2238.927,1651.834Z" transform="translate(-2017.124 -1567.949)" fill="#ff6f12"/>
        <path id="Path_1656" data-name="Path 1656" d="M2290.024,1637.021H2245.8a5.318,5.318,0,0,1-5.271-5.271,5.227,5.227,0,0,1,1.319-3.476l36.548-42.3h-32.6a5.313,5.313,0,0,1-5.271-5.271,5.221,5.221,0,0,1,1.558-3.837,5.083,5.083,0,0,1,3.713-1.554h44.22a5.229,5.229,0,0,1,3.834,1.554,5.085,5.085,0,0,1,1.56,3.717,5.416,5.416,0,0,1-1.319,3.593l-36.551,42.181h32.477a5.323,5.323,0,0,1,5.394,5.395,5.093,5.093,0,0,1-1.56,3.714A5.22,5.22,0,0,1,2290.024,1637.021Z" transform="translate(-1999.676 -1553.136)" fill="#63af31"/>
        <path id="Path_1657" data-name="Path 1657" d="M2317.422,1637.021a5.216,5.216,0,0,1-3.834-1.557,5.079,5.079,0,0,1-1.558-3.714v-2.283a31.509,31.509,0,0,1-9.347,5.575,30.429,30.429,0,0,1-22.768-.476,31.564,31.564,0,0,1-16.479-16.419,29.258,29.258,0,0,1-2.455-11.924,29.649,29.649,0,0,1,2.455-11.979,31.4,31.4,0,0,1,16.479-16.479,29.573,29.573,0,0,1,11.982-2.455,29.953,29.953,0,0,1,10.785,1.97,31.907,31.907,0,0,1,9.347,5.576v-2.274a5.071,5.071,0,0,1,1.558-3.717,5.224,5.224,0,0,1,3.834-1.554,5.311,5.311,0,0,1,5.274,5.271v51.168a5.316,5.316,0,0,1-5.274,5.271Zm-25.523-51.048a19.1,19.1,0,0,0-7.847,1.617,20.9,20.9,0,0,0-10.786,10.783,19.861,19.861,0,0,0,0,15.7,20.948,20.948,0,0,0,4.373,6.406,20.145,20.145,0,0,0,6.413,4.319,20.591,20.591,0,0,0,15.7,0,20.178,20.178,0,0,0,10.726-10.726,20.577,20.577,0,0,0,0-15.7,20.188,20.188,0,0,0-4.314-6.41,21.037,21.037,0,0,0-6.412-4.374A19.137,19.137,0,0,0,2291.9,1585.974Z" transform="translate(-1958.532 -1553.136)" fill="#ff6f12"/>
      </g>
      <g id="Group_1455" data-name="Group 1455" transform="translate(2297.95 1663.144)">
        <circle id="Ellipse_140" data-name="Ellipse 140" cx="15.934" cy="15.934" r="15.934" fill="#63af31"/>
      </g>
      <g id="Group_1456" data-name="Group 1456" transform="translate(2358.423 1663.144)">
        <circle id="Ellipse_141" data-name="Ellipse 141" cx="15.934" cy="15.934" r="15.934" fill="#63af31"/>
      </g>
    </g>
    <path id="Path_1659" data-name="Path 1659" d="M1314.127,399.772a71.07,71.07,0,1,0,85.54,69.588v-44.4a35.984,35.984,0,0,1,23-33.5" transform="translate(-990.251 140.821)" fill="none" stroke="#ff6f12" stroke-linecap="round" stroke-miterlimit="10" stroke-width="32"/>
  </g>
</svg>
