<svg width="1979" height="1950" viewBox="0 0 1979 1950" fill="none" xmlns="http://www.w3.org/2000/svg">
<path d="M773.965 177.134C745.432 188.468 743.432 189.534 739.165 195.934C733.699 204.201 733.699 208.868 739.965 241.534C746.499 275.934 748.632 281.401 757.832 287.534C768.499 294.868 772.099 294.201 811.565 278.468L845.299 265.001L843.299 260.201C840.365 253.134 831.699 245.668 824.499 244.201C816.899 242.601 812.499 243.534 792.232 251.801C781.165 256.334 775.699 257.934 775.299 256.868C774.899 255.534 768.365 221.534 767.565 216.201C767.432 215.001 773.165 212.068 783.299 207.934C798.765 201.801 799.299 201.668 800.365 204.201C800.899 205.801 801.165 207.134 801.032 207.268C800.765 207.401 795.565 209.534 789.299 211.934C783.032 214.334 777.432 216.868 776.765 217.401C775.832 218.201 780.499 246.868 781.965 248.868C782.632 249.934 822.365 232.734 825.032 230.334C829.565 226.201 833.299 217.668 833.299 211.401C833.299 208.601 831.965 200.868 830.499 194.334C828.232 184.468 826.765 181.268 822.765 176.868C812.099 165.001 804.365 165.001 773.965 177.134Z" fill="#E60D3F"/>
<path d="M691.965 210.202C682.498 213.269 647.965 227.535 645.298 229.402C643.432 230.602 639.832 232.069 637.165 232.469C628.765 233.935 593.032 249.135 588.898 253.002C584.098 257.402 580.098 265.802 579.965 271.135C579.965 274.735 597.165 361.135 598.232 362.469C599.032 363.535 610.898 358.202 614.898 354.869C619.832 350.735 623.832 342.335 623.965 336.202C623.965 333.802 621.565 320.069 618.632 305.802C615.698 291.402 613.298 278.735 613.298 277.402C613.298 274.735 635.832 265.669 637.165 267.802C637.698 268.602 641.298 285.002 645.165 304.202C649.165 323.535 652.765 339.802 653.298 340.469C655.298 342.602 669.698 334.202 673.698 328.335C679.698 319.935 679.698 314.069 673.432 283.669C670.365 269.135 667.965 256.602 667.965 255.535C667.965 253.535 692.098 243.402 693.298 245.002C693.832 245.535 697.432 261.802 701.298 281.269C705.165 300.735 708.765 317.002 709.165 317.535C710.632 319.269 719.965 315.535 725.165 311.135C731.432 305.669 734.632 299.269 734.632 291.935C734.632 284.735 723.032 228.735 720.632 223.935C715.565 214.069 701.032 207.135 691.965 210.202Z" fill="#E60D3F"/>
<path d="M524.898 275.802C509.032 282.202 494.365 288.869 492.498 290.736C488.098 294.736 484.098 303.269 483.965 308.602C483.965 315.802 488.232 334.202 491.165 339.402C492.898 342.602 496.365 345.936 499.965 347.936C508.632 352.602 516.498 352.202 531.165 346.202C537.698 343.536 543.298 341.402 543.432 341.669C543.565 341.802 543.965 344.336 544.232 347.269L544.632 352.469L531.298 357.669C515.298 363.802 510.498 367.269 506.632 375.402C504.098 380.602 503.698 382.869 504.365 390.202C504.898 395.002 505.432 399.136 505.698 399.402C505.965 399.669 519.565 394.469 536.098 387.936C568.765 374.869 572.898 372.069 576.098 361.269C577.565 356.469 577.432 353.536 575.432 342.202C572.498 324.602 569.698 318.469 562.632 313.802C553.832 307.936 545.965 307.936 530.898 313.936C524.098 316.736 518.232 318.602 517.965 318.336C517.565 318.069 517.165 316.336 517.032 314.602C516.632 311.802 517.965 311.002 530.232 306.069C537.698 303.002 545.565 299.269 547.698 297.669C552.632 294.069 557.298 284.602 557.298 278.469C557.298 272.336 555.832 263.936 554.765 264.069C554.365 264.069 540.898 269.402 524.898 275.802Z" fill="#E60D3F"/>
<path d="M456.765 303.002C440.898 309.269 436.632 314.469 431.965 333.135L430.498 339.002L425.565 334.202C419.832 328.602 412.632 325.269 406.098 325.269C401.698 325.269 387.298 329.935 384.632 332.202C383.832 332.869 390.898 340.869 402.365 352.335L421.432 371.402L414.098 404.735C410.098 423.002 407.165 438.202 407.432 438.469C408.098 439.135 425.298 432.202 430.232 429.135C436.365 425.269 439.698 419.135 442.498 405.935C443.965 399.535 445.432 394.069 445.832 393.669C446.232 393.135 450.098 396.202 454.365 400.202C466.098 411.402 472.765 412.735 487.965 407.135L497.565 403.535L476.232 382.069L454.765 360.602L461.965 331.269C465.965 315.135 469.165 301.135 469.298 300.202C469.298 298.069 468.898 298.069 456.765 303.002Z" fill="#E60D3F"/>
<path d="M245.964 347.135C238.231 350.735 234.231 354.602 231.297 361.535C228.364 368.735 228.764 373.002 234.764 401.935C237.697 416.335 239.964 428.602 239.697 429.269C239.431 429.935 225.964 417.535 209.697 401.669L179.964 373.002L171.431 377.002C161.031 381.802 155.831 388.602 155.031 398.335C154.631 402.735 158.097 422.469 167.297 466.602C174.364 500.602 180.231 528.602 180.364 528.869C181.031 529.535 195.297 522.335 197.831 520.202C202.497 515.802 205.564 507.935 205.431 500.069C205.297 495.935 202.097 477.535 198.097 459.269C194.231 440.869 191.297 425.669 191.431 425.402C191.697 425.135 205.297 437.935 221.831 453.935C250.231 481.535 251.697 483.269 252.631 489.002C254.364 500.469 254.231 500.335 263.697 495.669C275.164 490.202 279.964 483.002 279.831 471.402C279.831 461.935 255.831 345.002 253.964 344.469C253.164 344.202 249.697 345.535 245.964 347.135Z" fill="#E60D3F"/>
<path d="M323.964 355.402C295.697 366.735 291.43 369.802 288.497 381.269C286.764 387.935 286.897 389.802 292.097 415.802C299.297 452.735 300.23 455.669 306.23 461.535C317.83 472.735 322.63 472.335 362.897 456.469C380.764 449.402 395.83 443.135 396.63 442.469C399.03 440.202 391.83 429.135 385.43 425.002C380.764 422.069 377.83 421.269 372.364 421.269C365.564 421.269 361.164 422.602 335.164 433.002L328.364 435.802L324.097 414.335C321.697 402.602 320.23 392.469 320.897 391.935C322.764 390.069 351.83 378.869 352.497 379.669C352.897 380.069 353.297 381.402 353.297 382.735C353.297 384.335 349.83 386.335 340.63 389.935C330.63 393.802 327.964 395.269 328.497 397.002C328.897 398.335 330.23 404.602 331.43 411.269C332.63 417.802 334.097 423.935 334.497 424.735C335.43 426.602 369.83 413.669 375.83 409.135C380.23 405.935 384.63 398.469 385.697 392.202C386.764 386.869 382.497 365.935 379.03 359.002C377.564 356.202 373.697 352.069 370.097 349.535C359.83 342.602 353.964 343.402 323.964 355.402Z" fill="#E60D3F"/>
<path d="M1645.36 279.935C1621.36 289.402 1616.69 291.802 1612.42 296.335C1603.49 305.802 1603.36 308.469 1610.69 345.535C1615.62 370.869 1617.76 379.002 1620.42 383.002C1624.82 389.802 1634.42 395.135 1642.16 395.135C1652.69 395.135 1652.56 396.602 1644.96 358.202C1641.09 339.269 1637.89 322.469 1637.76 320.735C1637.36 317.935 1638.82 317.002 1650.69 312.202C1666.69 305.802 1671.49 302.469 1675.22 294.735C1678.82 287.269 1678.56 269.935 1674.69 269.002C1674.02 268.869 1660.82 273.802 1645.36 279.935Z" fill="#E8073B"/>
<path d="M1527.35 326.468C1510.15 333.401 1495.22 339.401 1494.29 339.801C1492.95 340.201 1493.09 341.534 1494.69 345.401C1497.49 352.068 1501.49 356.334 1508.02 359.268C1516.55 363.268 1522.95 362.468 1541.62 355.268C1551.09 351.534 1559.49 348.468 1560.55 348.201C1562.02 347.934 1563.49 353.001 1566.82 369.134C1569.22 380.868 1570.82 390.734 1570.55 391.134C1570.15 391.401 1562.69 394.468 1554.02 397.934C1538.29 404.068 1536.69 404.201 1536.69 399.134C1536.69 398.601 1542.42 395.801 1549.35 393.001C1556.29 390.334 1562.02 387.401 1562.02 386.601C1561.89 385.801 1560.55 378.868 1558.82 371.134C1556.55 361.001 1555.22 357.268 1553.89 357.534C1548.82 358.601 1520.02 370.468 1516.29 373.001C1510.95 376.601 1506.29 383.401 1505.22 389.668C1504.55 392.734 1505.22 399.401 1507.09 408.334C1510.29 424.201 1513.75 429.934 1523.35 434.734C1532.55 439.534 1537.22 438.734 1564.42 428.068C1592.69 417.134 1599.09 412.601 1602.02 401.801C1603.62 396.334 1603.09 393.001 1597.49 363.801C1594.15 346.201 1590.29 329.801 1588.95 327.134C1587.62 324.601 1583.62 320.468 1580.15 318.068C1569.35 310.868 1564.55 311.534 1527.35 326.468Z" fill="#E8073B"/>
<path d="M1432.02 364.735C1408.56 374.069 1388.82 381.935 1388.02 382.202C1385.76 383.135 1392.29 394.602 1396.96 398.202C1406.42 405.269 1415.49 405.935 1428.16 400.469C1431.62 399.002 1434.56 397.935 1434.69 398.069C1434.82 398.335 1430.29 418.202 1424.56 442.469C1418.82 466.602 1414.42 486.602 1414.69 486.869C1415.22 487.402 1500.56 453.935 1502.29 452.602C1504.16 451.002 1496.96 439.669 1491.62 435.935C1483.76 430.335 1474.82 429.802 1463.09 434.335C1458.02 436.202 1454.02 437.402 1454.02 437.002C1454.02 436.602 1458.82 416.735 1464.69 392.869C1470.56 368.869 1475.22 348.869 1475.09 348.469C1474.82 348.069 1455.49 355.269 1432.02 364.735Z" fill="#E8073B"/>
<path d="M1356.02 395.001C1352.29 395.935 1290.02 420.335 1288.82 421.268C1287.76 422.201 1293.09 432.468 1296.56 435.668C1301.09 440.068 1308.69 443.135 1314.82 443.135C1317.49 443.135 1327.76 439.935 1338.42 435.801C1350.16 431.135 1357.49 428.868 1358.02 429.801C1359.76 432.601 1366.29 471.401 1365.22 472.335C1363.49 473.801 1336.29 484.468 1334.29 484.468C1333.22 484.468 1332.69 483.268 1332.96 481.535C1333.22 479.401 1335.36 477.801 1341.36 475.401C1345.76 473.668 1351.22 471.401 1353.49 470.468L1357.76 468.735L1354.69 453.935C1353.09 445.668 1351.36 438.735 1351.09 438.335C1350.29 437.668 1319.62 449.535 1312.42 453.268C1306.02 456.601 1300.69 466.335 1300.69 474.735C1300.69 482.735 1304.02 499.268 1306.69 504.468C1310.82 512.335 1321.62 519.135 1330.16 519.135C1334.56 519.135 1379.36 502.068 1387.09 497.535C1393.62 493.535 1398.02 485.001 1398.02 476.201C1398.02 465.001 1386.96 412.201 1383.36 406.468C1378.16 398.068 1365.22 392.601 1356.02 395.001Z" fill="#E8073B"/>
<path d="M1211.36 413.001C1200.42 416.201 1181.76 424.334 1177.22 427.801C1166.82 435.668 1162.96 448.868 1166.02 466.468L1167.76 476.468L1171.89 469.534C1176.82 461.268 1180.56 458.868 1203.49 449.801C1216.42 444.734 1221.36 443.401 1224.56 443.934C1231.89 445.401 1237.36 456.601 1233.49 462.334C1232.16 464.468 1224.29 468.201 1208.42 474.468C1190.42 481.534 1184.29 484.601 1180.42 488.468C1172.69 496.201 1172.69 498.468 1181.09 539.401C1185.22 559.268 1188.96 575.801 1189.22 576.201C1190.42 577.401 1201.36 572.334 1205.09 568.734C1210.56 563.534 1214.02 556.068 1214.02 549.534C1213.89 546.334 1212.42 536.868 1210.69 528.468C1208.96 520.068 1207.62 513.134 1207.76 513.001C1213.09 510.068 1247.22 497.801 1249.89 497.801C1254.82 497.801 1258.02 501.934 1258.02 508.201C1258.02 514.334 1253.89 517.934 1242.02 522.468C1236.56 524.601 1229.49 527.268 1226.56 528.601L1221.09 530.868L1222.69 539.668C1224.42 548.601 1223.62 556.334 1220.56 561.934C1219.89 563.401 1219.49 564.468 1219.89 564.468C1221.76 564.468 1268.42 545.401 1272.16 543.001C1278.69 539.001 1286.69 529.401 1288.42 523.401C1294.42 503.668 1285.22 475.001 1270.69 468.068L1265.36 465.401L1265.22 455.934C1264.96 431.801 1248.16 413.001 1225.76 411.668C1221.09 411.401 1214.69 412.068 1211.36 413.001Z" fill="#E8073B"/>
<mask id="mask0_2327_1684" style="mask-type:alpha" maskUnits="userSpaceOnUse" x="177" y="329" width="1621" height="1500">
<path d="M870.871 341.862C830.204 357.329 745.671 389.329 532.871 469.862C500.204 482.262 429.804 508.929 376.204 529.195C322.738 549.462 268.071 569.995 255.004 574.929L231.138 583.862L222.604 594.529C179.804 648.129 167.004 693.195 184.738 728.395C195.538 749.595 222.471 769.062 256.871 780.395C271.138 785.062 291.538 789.729 297.538 789.862C299.671 789.862 311.671 785.862 324.204 781.062C353.271 769.595 363.004 765.862 440.204 735.862C475.404 722.262 507.804 709.595 512.204 707.862C516.604 706.129 546.071 694.795 577.538 682.529C609.138 670.262 641.804 657.595 650.204 654.262C733.404 621.729 784.071 602.662 792.471 600.395C805.004 597.329 816.471 597.062 820.604 599.995L823.671 602.129L822.871 639.595C822.604 660.262 821.938 717.995 821.538 767.862C820.338 932.795 818.204 1172.66 816.871 1307.86C815.671 1424.53 815.804 1443.2 817.538 1457.33C822.071 1493.86 833.538 1519.2 854.471 1538.53C875.404 1557.86 901.938 1567.46 934.871 1567.33C949.671 1567.33 951.671 1567.06 961.538 1563.2C967.404 1560.8 980.604 1555.73 990.871 1551.86C1001.14 1548 1027.8 1537.73 1050.2 1529.2C1106.87 1507.46 1219.94 1464.13 1320.2 1425.73C1343 1417.06 1382.87 1401.86 1408.87 1391.86C1434.87 1381.86 1474.87 1366.66 1497.54 1357.86C1520.34 1349.2 1561.14 1333.6 1588.2 1323.2C1615.4 1312.8 1652.6 1298.53 1670.87 1291.6C1727.27 1270.26 1740.6 1262.66 1763.54 1239.33C1777.94 1224.66 1784.87 1214.53 1793.14 1196.26L1797.54 1186.53L1797.14 879.195C1796.74 630.795 1796.2 569.329 1794.87 558.529C1787.8 506.795 1764.87 476.795 1724.47 467.195C1705.4 462.662 1675.67 463.995 1653 470.662C1649 471.729 1569.54 501.195 1476.34 535.995C1383.14 570.795 1294.34 603.995 1279 609.595L1251.14 619.862L1244.74 633.195C1231.27 661.462 1225.94 682.262 1225.8 706.529C1225.67 724.662 1227.67 734.395 1234.74 749.195C1242.34 765.329 1254.47 778.662 1272.2 790.529C1286.2 799.729 1296.2 804.662 1311.4 809.729C1333.14 817.062 1328.07 818.129 1387.54 794.129C1416.47 782.395 1466.6 762.262 1498.87 749.195C1531.14 736.262 1559.14 724.662 1561.14 723.729C1565.94 721.329 1575.54 721.329 1579.14 723.862C1580.74 724.929 1583.27 727.995 1584.87 730.529C1587.67 735.062 1587.67 736.395 1587.67 778.129C1587.54 816.662 1586.74 877.062 1584.07 1048.13L1583.27 1100.4L1576.34 1103.06C1572.6 1104.4 1523.4 1123.46 1466.87 1145.2C1335.67 1195.73 1229.14 1236.8 1180.87 1255.46C1159.94 1263.46 1129.94 1275.06 1114.2 1281.2C1081.14 1294 1072.34 1296.53 1061 1296.53C1051.8 1296.53 1045.54 1294.4 1041.27 1289.73C1033.94 1281.73 1034.47 1299.46 1033.54 1003.06C1031.94 442.262 1031.8 428.795 1029.67 418.395C1025.4 398.129 1015.54 377.729 1004.07 364.929C984.471 343.462 949.004 329.729 913.671 329.995C901.671 330.129 901.138 330.262 870.871 341.862Z" fill="url(#paint0_linear_2327_1684)"/>
<path d="M657.537 773.061C642.071 775.994 661.004 769.194 458.871 845.194C406.871 864.794 359.804 882.661 354.337 884.794C307.937 904.128 295.271 928.928 319.404 953.461C322.871 956.928 328.204 961.594 331.271 963.728C337.271 967.861 337.271 967.861 426.204 985.994C447.804 990.528 465.937 994.528 466.337 994.928C467.137 995.728 445.804 1041.73 377.671 1187.19C355.937 1233.73 355.271 1235.19 356.204 1240.66C356.737 1243.46 357.537 1246.13 358.071 1246.39C358.604 1246.79 369.137 1238.53 381.537 1227.99C394.071 1217.59 440.871 1178.53 485.537 1141.33C530.337 1103.99 568.071 1072.39 569.671 1070.93C572.471 1068.53 572.471 1068.53 606.071 1122.39C629.671 1160.53 641.271 1177.86 645.271 1181.33C659.271 1193.59 674.737 1196.26 689.271 1189.19C698.071 1184.79 714.871 1168.13 716.337 1162.26C717.271 1158.79 715.004 957.328 713.004 849.861C712.071 803.328 711.938 800.928 709.004 794.528C701.004 776.528 681.671 768.528 657.537 773.061Z" fill="url(#paint1_linear_2327_1684)"/>
<path d="M1622.2 1406.66C1612.07 1408.66 1597.94 1413.19 1589.67 1417.19C1577.27 1423.19 1568.87 1429.19 1557.8 1440.13C1535 1462.66 1523.54 1490.79 1523.54 1523.86C1523.54 1589.19 1575.27 1640.79 1640.74 1640.79C1686.34 1640.79 1726.07 1616.39 1746.2 1575.86C1755.14 1557.73 1758.6 1543.19 1758.47 1522.53C1758.34 1485.19 1741.8 1451.73 1712.6 1429.86C1691 1413.46 1672.2 1407.19 1644.2 1406.53C1633.94 1406.26 1624.07 1406.39 1622.2 1406.66Z" fill="url(#paint2_linear_2327_1684)"/>
<path d="M1149.54 1593.86C1122.34 1597.46 1098.74 1609.33 1079.54 1628.93C1041.54 1667.59 1035.4 1729.33 1065.14 1774.79C1088.34 1810.26 1127.4 1830.26 1169.54 1828.13C1222.6 1825.33 1264.74 1790.93 1278.34 1739.19C1280.6 1730.26 1281.27 1724.26 1281.27 1710.53C1281.14 1691.46 1279 1680.39 1271.8 1663.46C1256.47 1626.79 1219 1599.06 1178.2 1593.99C1165.67 1592.39 1161.27 1592.39 1149.54 1593.86Z" fill="url(#paint3_linear_2327_1684)"/>
</mask>
<g mask="url(#mask0_2327_1684)">
<path d="M1005.5 239.492L52 640.992L157.5 776.492L257.5 901.492L383 1047.49L293 1307.99L569 1162.49L684.5 1257.99L779.5 1122.49L739.5 1498.99L975.5 1659.49L1121 1950.49L1351.5 1749.99L1382 1498.99L1602.5 1699.49L1979 1498.99L1833.5 344.492L1251.5 595.492L1121 685.992L1005.5 239.492Z" fill="url(#paint4_linear_2327_1684)"/>
</g>
<defs>
<linearGradient id="paint0_linear_2327_1684" x1="987.269" y1="1567.33" x2="987.269" y2="329.991" gradientUnits="userSpaceOnUse">
<stop stop-color="#BC0732"/>
<stop offset="1" stop-color="#ED0B3F"/>
</linearGradient>
<linearGradient id="paint1_linear_2327_1684" x1="511.989" y1="1246.41" x2="511.989" y2="771.816" gradientUnits="userSpaceOnUse">
<stop stop-color="#BC0732"/>
<stop offset="1" stop-color="#ED0B3F"/>
</linearGradient>
<linearGradient id="paint2_linear_2327_1684" x1="875" y1="1729.49" x2="1944" y2="1378.49" gradientUnits="userSpaceOnUse">
<stop stop-color="#BC0732"/>
<stop offset="1" stop-color="#ED0B3F"/>
</linearGradient>
<linearGradient id="paint3_linear_2327_1684" x1="1954" y1="1378.49" x2="1046" y2="1827.99" gradientUnits="userSpaceOnUse">
<stop stop-color="#BC0732"/>
<stop offset="1" stop-color="#ED0B3F"/>
</linearGradient>
<linearGradient id="paint4_linear_2327_1684" x1="569" y1="310.492" x2="1730" y2="1222.49" gradientUnits="userSpaceOnUse">
<stop stop-color="#ED0B3F"/>
<stop offset="1" stop-color="#A9052B"/>
</linearGradient>
</defs>
</svg>
