<svg width="320" height="384" viewBox="0 0 320 330" fill="none" xmlns="http://www.w3.org/2000/svg">
<path d="M257.427 287.997H57.0888C53.2601 288.031 49.5645 286.593 46.7667 283.979C43.9689 281.365 42.283 277.776 42.058 273.953V132.751C35.6025 130.469 30.0194 126.23 26.0863 120.626C22.1532 115.021 20.0659 108.329 20.1151 101.482V93.8025C20.5481 87.2572 22.4213 80.8884 25.6008 75.151L61.3677 16.3442C61.86 15.5355 62.5532 14.868 63.3799 14.4065C64.2066 13.9451 65.1386 13.7055 66.0854 13.711H248.76C249.706 13.7055 250.638 13.9451 251.465 14.4065C252.292 14.868 252.985 15.5355 253.477 16.3442L288.805 74.4927C292.052 80.4459 293.962 87.0356 294.401 93.8025V101.482C294.542 108.404 292.498 115.193 288.559 120.886C284.619 126.578 278.985 130.884 272.458 133.19V273.953C272.233 277.776 270.547 281.365 267.749 283.979C264.951 286.593 261.256 288.031 257.427 287.997ZM53.0294 233.14V273.953C53.0294 275.38 55.2237 277.025 57.0888 277.025H257.427C259.292 277.025 261.487 275.38 261.487 273.953V134.397C256.376 134.228 251.376 132.871 246.882 130.433C242.387 127.995 238.523 124.544 235.594 120.353C232.716 124.653 228.823 128.177 224.259 130.614C219.695 133.051 214.601 134.326 209.427 134.326C204.253 134.326 199.159 133.051 194.595 130.614C190.031 128.177 186.138 124.653 183.26 120.353C180.378 124.63 176.49 128.133 171.937 130.555C167.384 132.978 162.305 134.244 157.148 134.244C151.991 134.244 146.913 132.978 142.36 130.555C137.807 128.133 133.918 124.63 131.036 120.353C128.145 124.653 124.242 128.175 119.669 130.611C115.097 133.047 109.995 134.32 104.815 134.32C99.6337 134.32 94.5323 133.047 89.9597 130.611C85.3871 128.175 81.4836 124.653 78.5928 120.353C75.7472 124.55 71.9461 128.012 67.502 130.453C63.0578 132.894 58.0977 134.246 53.0294 134.397V222.168H261.487V233.14H53.0294ZM51.6031 123.425H53.0294C57.4078 123.226 61.6166 121.674 65.0753 118.982C68.5339 116.289 71.0719 112.59 72.3391 108.394C72.744 107.024 73.5838 105.822 74.7318 104.971C75.8798 104.12 77.2735 103.666 78.7025 103.677C80.1315 103.666 81.5253 104.12 82.6733 104.971C83.8213 105.822 84.6611 107.024 85.066 108.394C86.3491 112.663 88.9738 116.405 92.5508 119.065C96.1277 121.725 100.467 123.161 104.924 123.161C109.382 123.161 113.721 121.725 117.298 119.065C120.875 116.405 123.499 112.663 124.783 108.394C125.29 107.137 126.161 106.059 127.286 105.301C128.41 104.542 129.735 104.136 131.091 104.136C132.447 104.136 133.773 104.542 134.897 105.301C136.021 106.059 136.892 107.137 137.4 108.394C138.648 112.681 141.253 116.446 144.824 119.125C148.395 121.805 152.739 123.253 157.203 123.253C161.667 123.253 166.011 121.805 169.582 119.125C173.153 116.446 175.758 112.681 177.007 108.394C177.411 107.024 178.251 105.822 179.399 104.971C180.547 104.12 181.941 103.666 183.37 103.677C184.813 103.673 186.218 104.143 187.367 105.015C188.517 105.887 189.349 107.113 189.733 108.504C190.911 112.855 193.489 116.696 197.069 119.435C200.648 122.174 205.03 123.658 209.537 123.658C214.044 123.658 218.426 122.174 222.005 119.435C225.584 116.696 228.162 112.855 229.34 108.504C229.72 107.131 230.535 105.918 231.662 105.048C232.79 104.178 234.17 103.696 235.594 103.677C237.023 103.666 238.417 104.12 239.565 104.971C240.713 105.822 241.553 107.024 241.957 108.394C243.698 113.568 247.303 117.907 252.071 120.564C256.838 123.222 262.425 124.007 267.74 122.767C272.314 121.407 276.32 118.594 279.151 114.753C281.982 110.913 283.484 106.254 283.429 101.482V93.8025C283.041 88.8111 281.621 83.9545 279.26 79.5396L245.688 24.6825H69.1574L35.146 80.6367C32.9201 84.7072 31.5394 89.1853 31.0865 93.8025V101.482C30.9044 106.407 32.3856 111.25 35.2914 115.231C38.1973 119.212 42.3585 122.098 47.1048 123.425C48.6003 123.579 50.1076 123.579 51.6031 123.425Z" fill="#C7C7C7"/>
<path d="M293.972 253.255C293.972 279.781 272.469 301.284 245.944 301.284C219.418 301.284 197.915 279.781 197.915 253.255C197.915 226.73 219.418 205.227 245.944 205.227C272.469 205.227 293.972 226.73 293.972 253.255Z" fill="white" stroke="#C7C7C7" stroke-width="10"/>
<path d="M229.485 235.883L263.314 269.711" stroke="#C7C7C7" stroke-width="7" stroke-linecap="round"/>
<path d="M263.313 235.883L229.485 269.711" stroke="#C7C7C7" stroke-width="7" stroke-linecap="round"/>
<path d="M58.28 379H56.44V364.68H58.68L65.64 375.82H65.72L65.64 373.06V364.68H67.48V379H65.56L58.28 367.32H58.2L58.28 370.08V379ZM69.4858 374.1C69.4858 372.593 69.9591 371.347 70.9058 370.36C71.8658 369.373 73.0724 368.88 74.5258 368.88C75.9791 368.88 77.1791 369.373 78.1258 370.36C79.0858 371.347 79.5658 372.593 79.5658 374.1C79.5658 375.62 79.0858 376.867 78.1258 377.84C77.1791 378.827 75.9791 379.32 74.5258 379.32C73.0724 379.32 71.8658 378.827 70.9058 377.84C69.9591 376.853 69.4858 375.607 69.4858 374.1ZM71.3258 374.1C71.3258 375.153 71.6324 376.007 72.2458 376.66C72.8591 377.313 73.6191 377.64 74.5258 377.64C75.4324 377.64 76.1924 377.313 76.8058 376.66C77.4191 376.007 77.7258 375.153 77.7258 374.1C77.7258 373.06 77.4191 372.213 76.8058 371.56C76.1791 370.893 75.4191 370.56 74.5258 370.56C73.6324 370.56 72.8724 370.893 72.2458 371.56C71.6324 372.213 71.3258 373.06 71.3258 374.1ZM93.1317 376.28C93.1317 377.133 92.7584 377.853 92.0117 378.44C91.2651 379.027 90.3251 379.32 89.1917 379.32C88.2051 379.32 87.3384 379.067 86.5917 378.56C85.8451 378.04 85.3117 377.36 84.9917 376.52L86.6317 375.82C86.8717 376.407 87.2184 376.867 87.6717 377.2C88.1384 377.52 88.6451 377.68 89.1917 377.68C89.7784 377.68 90.2651 377.553 90.6517 377.3C91.0517 377.047 91.2517 376.747 91.2517 376.4C91.2517 375.773 90.7717 375.313 89.8117 375.02L88.1317 374.6C86.2251 374.12 85.2717 373.2 85.2717 371.84C85.2717 370.947 85.6317 370.233 86.3517 369.7C87.0851 369.153 88.0184 368.88 89.1517 368.88C90.0184 368.88 90.7984 369.087 91.4917 369.5C92.1984 369.913 92.6917 370.467 92.9717 371.16L91.3317 371.84C91.1451 371.427 90.8384 371.107 90.4117 370.88C89.9984 370.64 89.5317 370.52 89.0117 370.52C88.5317 370.52 88.0984 370.64 87.7117 370.88C87.3384 371.12 87.1517 371.413 87.1517 371.76C87.1517 372.32 87.6784 372.72 88.7317 372.96L90.2117 373.34C92.1584 373.82 93.1317 374.8 93.1317 376.28ZM94.7333 364.68H96.5733V369.2L96.4933 370.56H96.5733C96.8533 370.08 97.2799 369.68 97.8533 369.36C98.4399 369.04 99.0466 368.88 99.6733 368.88C100.873 368.88 101.793 369.227 102.433 369.92C103.087 370.6 103.413 371.573 103.413 372.84V379H101.573V373.2C101.573 371.44 100.793 370.56 99.2333 370.56C98.4866 370.56 97.8533 370.873 97.3333 371.5C96.8266 372.113 96.5733 372.833 96.5733 373.66V379H94.7333V364.68ZM105.013 374.1C105.013 372.593 105.486 371.347 106.433 370.36C107.393 369.373 108.6 368.88 110.053 368.88C111.506 368.88 112.706 369.373 113.653 370.36C114.613 371.347 115.093 372.593 115.093 374.1C115.093 375.62 114.613 376.867 113.653 377.84C112.706 378.827 111.506 379.32 110.053 379.32C108.6 379.32 107.393 378.827 106.433 377.84C105.486 376.853 105.013 375.607 105.013 374.1ZM106.853 374.1C106.853 375.153 107.16 376.007 107.773 376.66C108.386 377.313 109.146 377.64 110.053 377.64C110.96 377.64 111.72 377.313 112.333 376.66C112.946 376.007 113.253 375.153 113.253 374.1C113.253 373.06 112.946 372.213 112.333 371.56C111.706 370.893 110.946 370.56 110.053 370.56C109.16 370.56 108.4 370.893 107.773 371.56C107.16 372.213 106.853 373.06 106.853 374.1ZM121.467 377.64C122.347 377.64 123.087 377.307 123.687 376.64C124.287 375.987 124.587 375.14 124.587 374.1C124.587 373.073 124.287 372.227 123.687 371.56C123.087 370.893 122.347 370.56 121.467 370.56C120.574 370.56 119.827 370.893 119.227 371.56C118.64 372.227 118.347 373.073 118.347 374.1C118.347 375.14 118.64 375.993 119.227 376.66C119.827 377.313 120.574 377.64 121.467 377.64ZM121.767 379.32C121.047 379.32 120.387 379.167 119.787 378.86C119.2 378.553 118.747 378.147 118.427 377.64H118.347L118.427 379V383.32H116.587V369.2H118.347V370.56H118.427C118.747 370.053 119.2 369.647 119.787 369.34C120.387 369.033 121.047 368.88 121.767 368.88C123.06 368.88 124.154 369.387 125.047 370.4C125.967 371.427 126.427 372.66 126.427 374.1C126.427 375.553 125.967 376.787 125.047 377.8C124.154 378.813 123.06 379.32 121.767 379.32ZM135.515 376.28C135.515 377.133 135.141 377.853 134.395 378.44C133.648 379.027 132.708 379.32 131.575 379.32C130.588 379.32 129.721 379.067 128.975 378.56C128.228 378.04 127.695 377.36 127.375 376.52L129.015 375.82C129.255 376.407 129.601 376.867 130.055 377.2C130.521 377.52 131.028 377.68 131.575 377.68C132.161 377.68 132.648 377.553 133.035 377.3C133.435 377.047 133.635 376.747 133.635 376.4C133.635 375.773 133.155 375.313 132.195 375.02L130.515 374.6C128.608 374.12 127.655 373.2 127.655 371.84C127.655 370.947 128.015 370.233 128.735 369.7C129.468 369.153 130.401 368.88 131.535 368.88C132.401 368.88 133.181 369.087 133.875 369.5C134.581 369.913 135.075 370.467 135.355 371.16L133.715 371.84C133.528 371.427 133.221 371.107 132.795 370.88C132.381 370.64 131.915 370.52 131.395 370.52C130.915 370.52 130.481 370.64 130.095 370.88C129.721 371.12 129.535 371.413 129.535 371.76C129.535 372.32 130.061 372.72 131.115 372.96L132.595 373.34C134.541 373.82 135.515 374.8 135.515 376.28ZM143.891 365.82C143.891 366.18 143.764 366.487 143.511 366.74C143.257 366.993 142.951 367.12 142.591 367.12C142.231 367.12 141.924 366.993 141.671 366.74C141.417 366.487 141.291 366.18 141.291 365.82C141.291 365.46 141.417 365.153 141.671 364.9C141.924 364.647 142.231 364.52 142.591 364.52C142.951 364.52 143.257 364.647 143.511 364.9C143.764 365.153 143.891 365.46 143.891 365.82ZM143.511 369.2V379H141.671V369.2H143.511ZM145.905 369.2H147.665V370.56H147.745C148.025 370.08 148.452 369.68 149.025 369.36C149.612 369.04 150.218 368.88 150.845 368.88C152.045 368.88 152.965 369.227 153.605 369.92C154.258 370.6 154.585 371.573 154.585 372.84V379H152.745V372.96C152.705 371.36 151.898 370.56 150.325 370.56C149.592 370.56 148.978 370.86 148.485 371.46C147.992 372.047 147.745 372.753 147.745 373.58V379H145.905V369.2ZM169.9 369.2L163.76 383.32H161.86L164.14 378.38L160.1 369.2H162.1L165.02 376.24H165.06L167.9 369.2H169.9ZM170.15 374.1C170.15 372.593 170.623 371.347 171.57 370.36C172.53 369.373 173.737 368.88 175.19 368.88C176.643 368.88 177.843 369.373 178.79 370.36C179.75 371.347 180.23 372.593 180.23 374.1C180.23 375.62 179.75 376.867 178.79 377.84C177.843 378.827 176.643 379.32 175.19 379.32C173.737 379.32 172.53 378.827 171.57 377.84C170.623 376.853 170.15 375.607 170.15 374.1ZM171.99 374.1C171.99 375.153 172.297 376.007 172.91 376.66C173.523 377.313 174.283 377.64 175.19 377.64C176.097 377.64 176.857 377.313 177.47 376.66C178.083 376.007 178.39 375.153 178.39 374.1C178.39 373.06 178.083 372.213 177.47 371.56C176.843 370.893 176.083 370.56 175.19 370.56C174.297 370.56 173.537 370.893 172.91 371.56C172.297 372.213 171.99 373.06 171.99 374.1ZM190.404 379H188.644V377.64H188.564C188.284 378.12 187.85 378.52 187.264 378.84C186.69 379.16 186.09 379.32 185.464 379.32C184.264 379.32 183.337 378.98 182.684 378.3C182.044 377.607 181.724 376.627 181.724 375.36V369.2H183.564V375.24C183.604 376.84 184.41 377.64 185.984 377.64C186.717 377.64 187.33 377.347 187.824 376.76C188.317 376.16 188.564 375.447 188.564 374.62V369.2H190.404V379ZM194.483 379H192.643V369.2H194.403V370.8H194.483C194.67 370.28 195.05 369.84 195.623 369.48C196.21 369.107 196.783 368.92 197.343 368.92C197.877 368.92 198.33 369 198.703 369.16L198.143 370.94C197.917 370.847 197.557 370.8 197.063 370.8C196.37 370.8 195.763 371.08 195.243 371.64C194.737 372.2 194.483 372.853 194.483 373.6V379ZM206.144 364.68V379H204.304V364.68H206.144ZM207.728 374.1C207.728 372.593 208.201 371.347 209.148 370.36C210.108 369.373 211.315 368.88 212.768 368.88C214.221 368.88 215.421 369.373 216.368 370.36C217.328 371.347 217.808 372.593 217.808 374.1C217.808 375.62 217.328 376.867 216.368 377.84C215.421 378.827 214.221 379.32 212.768 379.32C211.315 379.32 210.108 378.827 209.148 377.84C208.201 376.853 207.728 375.607 207.728 374.1ZM209.568 374.1C209.568 375.153 209.875 376.007 210.488 376.66C211.101 377.313 211.861 377.64 212.768 377.64C213.675 377.64 214.435 377.313 215.048 376.66C215.661 376.007 215.968 375.153 215.968 374.1C215.968 373.06 215.661 372.213 215.048 371.56C214.421 370.893 213.661 370.56 212.768 370.56C211.875 370.56 211.115 370.893 210.488 371.56C209.875 372.213 209.568 373.06 209.568 374.1ZM223.959 379.32C222.506 379.32 221.299 378.827 220.339 377.84C219.393 376.827 218.919 375.58 218.919 374.1C218.919 372.593 219.393 371.347 220.339 370.36C221.299 369.373 222.506 368.88 223.959 368.88C224.959 368.88 225.833 369.133 226.579 369.64C227.326 370.133 227.886 370.82 228.259 371.7L226.579 372.4C226.059 371.173 225.146 370.56 223.839 370.56C222.999 370.56 222.273 370.9 221.659 371.58C221.059 372.26 220.759 373.1 220.759 374.1C220.759 375.1 221.059 375.94 221.659 376.62C222.273 377.3 222.999 377.64 223.839 377.64C225.186 377.64 226.133 377.027 226.679 375.8L228.319 376.5C227.959 377.38 227.393 378.073 226.619 378.58C225.859 379.073 224.973 379.32 223.959 379.32ZM231.171 376C231.171 376.48 231.371 376.88 231.771 377.2C232.184 377.52 232.664 377.68 233.211 377.68C233.984 377.68 234.671 377.393 235.271 376.82C235.884 376.247 236.191 375.573 236.191 374.8C235.618 374.347 234.818 374.12 233.791 374.12C233.044 374.12 232.418 374.3 231.911 374.66C231.418 375.02 231.171 375.467 231.171 376ZM233.551 368.88C234.911 368.88 235.984 369.247 236.771 369.98C237.558 370.7 237.951 371.693 237.951 372.96V379H236.191V377.64H236.111C235.351 378.76 234.338 379.32 233.071 379.32C231.991 379.32 231.084 379 230.351 378.36C229.631 377.72 229.271 376.92 229.271 375.96C229.271 374.947 229.651 374.14 230.411 373.54C231.184 372.94 232.211 372.64 233.491 372.64C234.584 372.64 235.484 372.84 236.191 373.24V372.82C236.191 372.18 235.938 371.64 235.431 371.2C234.924 370.747 234.331 370.52 233.651 370.52C232.624 370.52 231.811 370.953 231.211 371.82L229.591 370.8C230.484 369.52 231.804 368.88 233.551 368.88ZM241.866 364.68V379H240.026V364.68H241.866ZM246.488 365.82C246.488 366.18 246.362 366.487 246.108 366.74C245.855 366.993 245.548 367.12 245.188 367.12C244.828 367.12 244.522 366.993 244.268 366.74C244.015 366.487 243.888 366.18 243.888 365.82C243.888 365.46 244.015 365.153 244.268 364.9C244.522 364.647 244.828 364.52 245.188 364.52C245.548 364.52 245.855 364.647 246.108 364.9C246.362 365.153 246.488 365.46 246.488 365.82ZM246.108 369.2V379H244.268V369.2H246.108ZM252.285 379.16C251.485 379.16 250.818 378.913 250.285 378.42C249.765 377.927 249.498 377.24 249.485 376.36V370.88H247.765V369.2H249.485V366.2H251.325V369.2H253.725V370.88H251.325V375.76C251.325 376.413 251.452 376.86 251.705 377.1C251.958 377.327 252.245 377.44 252.565 377.44C252.712 377.44 252.852 377.427 252.985 377.4C253.132 377.36 253.265 377.313 253.385 377.26L253.965 378.9C253.485 379.073 252.925 379.16 252.285 379.16ZM264.333 369.2L258.193 383.32H256.293L258.573 378.38L254.533 369.2H256.533L259.453 376.24H259.493L262.333 369.2H264.333Z" fill="#707070"/>
</svg>
