<svg xmlns="http://www.w3.org/2000/svg" width="32.91" height="34.298" viewBox="0 0 32.91 34.298">
  <g id="offer" opacity="0.4">
    <g id="Group_1309" data-name="Group 1309" transform="translate(0 0)">
      <g id="Group_1308" data-name="Group 1308">
        <path id="Path_1600" data-name="Path 1600" d="M41.682,17.591a1,1,0,0,1,0-.888l1.279-2.617a2.977,2.977,0,0,0-1.285-3.954L39.1,8.767a1,1,0,0,1-.522-.719l-.5-2.869a2.978,2.978,0,0,0-3.363-2.444l-2.884.408a1,1,0,0,1-.845-.275L28.893.844a2.977,2.977,0,0,0-4.157,0L22.642,2.869a1,1,0,0,1-.845.275l-2.884-.408A2.977,2.977,0,0,0,15.55,5.18l-.5,2.869a1,1,0,0,1-.522.719l-2.573,1.365a2.977,2.977,0,0,0-1.285,3.954L11.946,16.7a1,1,0,0,1,0,.888l-1.279,2.617a2.977,2.977,0,0,0,1.285,3.954l2.573,1.365a1,1,0,0,1,.522.719l.5,2.869a2.976,2.976,0,0,0,2.935,2.474,3.059,3.059,0,0,0,.428-.03l2.884-.408a1,1,0,0,1,.845.275l2.093,2.025a2.977,2.977,0,0,0,4.157,0l2.094-2.025a1.006,1.006,0,0,1,.845-.275l2.884.408a2.977,2.977,0,0,0,3.363-2.444l.5-2.869a1,1,0,0,1,.522-.719l2.573-1.365a2.977,2.977,0,0,0,1.285-3.954Zm-.933,4.823L38.177,23.78A2.971,2.971,0,0,0,36.633,25.9l-.5,2.869a1.007,1.007,0,0,1-1.138.827l-2.884-.408a2.97,2.97,0,0,0-2.5.811l-2.094,2.025a1.007,1.007,0,0,1-1.407,0L24.017,30a2.968,2.968,0,0,0-2.072-.842,3.036,3.036,0,0,0-.426.03l-2.884.408a1.008,1.008,0,0,1-1.138-.827l-.5-2.869a2.97,2.97,0,0,0-1.543-2.124l-2.573-1.365a1.007,1.007,0,0,1-.435-1.338l1.279-2.617a2.971,2.971,0,0,0,0-2.626l-1.279-2.617a1.007,1.007,0,0,1,.435-1.338l2.573-1.365A2.971,2.971,0,0,0,16.995,8.39l.5-2.869a1.007,1.007,0,0,1,1.138-.827L21.52,5.1a2.971,2.971,0,0,0,2.5-.811l2.094-2.025a1.007,1.007,0,0,1,1.407,0l2.093,2.025a2.97,2.97,0,0,0,2.5.811l2.884-.408a1.007,1.007,0,0,1,1.138.827l.5,2.869a2.97,2.97,0,0,0,1.543,2.124L40.75,11.88a1.007,1.007,0,0,1,.435,1.338l-1.279,2.617a2.971,2.971,0,0,0,0,2.626l1.279,2.617A1.007,1.007,0,0,1,40.75,22.415Z" transform="translate(-10.359 0.002)" fill="#ff6f12"/>
      </g>
    </g>
    <g id="Group_1311" data-name="Group 1311" transform="translate(8.938 9.632)">
      <g id="Group_1310" data-name="Group 1310">
        <path id="Path_1601" data-name="Path 1601" d="M158.535,144.081a.989.989,0,0,0-1.4,0l-13.055,13.055a.989.989,0,1,0,1.4,1.4l13.055-13.055A.989.989,0,0,0,158.535,144.081Z" transform="translate(-143.792 -143.792)" fill="#ff6f12"/>
      </g>
    </g>
    <g id="Group_1313" data-name="Group 1313" transform="translate(8.872 8.247)">
      <g id="Group_1312" data-name="Group 1312">
        <path id="Path_1602" data-name="Path 1602" d="M146.429,123.116a3.627,3.627,0,1,0,3.627,3.627A3.631,3.631,0,0,0,146.429,123.116Zm0,5.275a1.648,1.648,0,1,1,1.648-1.649A1.65,1.65,0,0,1,146.429,128.391Z" transform="translate(-142.802 -123.116)" fill="#ff6f12"/>
      </g>
    </g>
    <g id="Group_1315" data-name="Group 1315" transform="translate(16.785 18.798)">
      <g id="Group_1314" data-name="Group 1314">
        <path id="Path_1603" data-name="Path 1603" d="M264.549,280.61a3.627,3.627,0,1,0,3.627,3.627A3.631,3.631,0,0,0,264.549,280.61Zm0,5.275a1.648,1.648,0,1,1,1.648-1.648A1.65,1.65,0,0,1,264.549,285.885Z" transform="translate(-260.922 -280.61)" fill="#ff6f12"/>
      </g>
    </g>
  </g>
</svg>
