<svg xmlns="http://www.w3.org/2000/svg" width="18.092" height="19.633" viewBox="0 0 18.092 19.633">
  <g id="Group_1678" data-name="Group 1678" transform="translate(0.5 0.5)">
    <g id="Group_1317" data-name="Group 1317">
      <path id="Path_1605" data-name="Path 1605" d="M50.076,5.143l-.015-.024a.87.87,0,0,0-.069-.114L47.262.523A1.119,1.119,0,0,0,46.307,0h-9.4a1.119,1.119,0,0,0-.956.525L33.178,5.1a.532.532,0,0,0-.056.128.881.881,0,0,0-.061.321v11.8a1.321,1.321,0,0,0,1.353,1.284H48.8a1.321,1.321,0,0,0,1.353-1.284V5.5c0-.016,0-.032,0-.047A.521.521,0,0,0,50.076,5.143ZM42.2,1.092H46.28l2.148,3.526H42.2Zm-5.266,0h4.116V4.618H34.8ZM49,17.349a.2.2,0,0,1-.2.192H34.415a.2.2,0,0,1-.2-.192V5.71H49Z" transform="translate(-33.062 0)" fill="none" stroke="#707070" stroke-width="1"/>
    </g>
  </g>
</svg>
