<svg xmlns="http://www.w3.org/2000/svg" xmlns:xlink="http://www.w3.org/1999/xlink" width="189" height="189" viewBox="0 0 189 189">
  <defs>
    <clipPath id="clip-path">
      <rect id="Rectangle_316" data-name="Rectangle 316" width="189" height="189" transform="translate(0 -0.104)" fill="rgba(112,112,112,0.39)"/>
    </clipPath>
  </defs>
  <g id="cart_empty" data-name="cart empty" transform="translate(0 0.104)" clip-path="url(#clip-path)">
    <path id="Path_1616" data-name="Path 1616" d="M192.614,84.321a5.552,5.552,0,0,0-5.552,5.552v19.344a11.707,11.707,0,0,1-11.694,11.694H88.951a11.707,11.707,0,0,1-11.694-11.694V24.1A15.029,15.029,0,0,0,67.6,10.112L41.852.361a5.552,5.552,0,1,0-3.933,10.385L63.667,20.5a3.868,3.868,0,0,1,2.485,3.6V141.364A21.875,21.875,0,0,0,87.3,163.2a18.548,18.548,0,1,0,33.96.018H154.4a18.545,18.545,0,1,0,16.984-11.1c-.07,0-.139,0-.21.005-.035,0-.069-.005-.1-.005H88.006a10.762,10.762,0,0,1-10.749-10.749V128.778a22.657,22.657,0,0,0,11.694,3.237h86.416a22.825,22.825,0,0,0,22.8-22.8V89.872A5.552,5.552,0,0,0,192.614,84.321Zm-21.226,78.9a7.443,7.443,0,1,1-7.443,7.443A7.452,7.452,0,0,1,171.387,163.217Zm-67.109,0a7.443,7.443,0,1,1-7.443,7.443A7.453,7.453,0,0,1,104.278,163.217Z" transform="translate(-21.645 -0.312)" fill="rgba(112,112,112,0.39)"/>
    <path id="Path_1617" data-name="Path 1617" d="M264.417,117.251l16.839-16.839A5.552,5.552,0,0,0,273.4,92.56L256.565,109.4,239.726,92.56a5.552,5.552,0,0,0-7.852,7.852l16.839,16.839-16.839,16.839a5.552,5.552,0,1,0,7.853,7.852L256.565,125.1,273.4,141.943a5.552,5.552,0,1,0,7.852-7.852Z" transform="translate(-145.16 -57.641)" fill="rgba(112,112,112,0.39)"/>
  </g>
</svg>
