<svg id="add-to-cart" xmlns="http://www.w3.org/2000/svg" width="33.773" height="39.392" viewBox="0 0 33.773 39.392">
  <path id="Path_1576" data-name="Path 1576" d="M110.47,122.787a1.213,1.213,0,0,0,1.205,1.089,1.231,1.231,0,0,0,.126-.006,1.213,1.213,0,0,0,1.082-1.332l-.559-5.414a1.213,1.213,0,0,0-2.414.249Z" transform="translate(-94.934 -97.264)" fill="#fff"/>
  <path id="Path_1577" data-name="Path 1577" d="M154.7,123.871a1.236,1.236,0,0,0,.126.006,1.214,1.214,0,0,0,1.205-1.089l.559-5.414a1.213,1.213,0,0,0-2.414-.249l-.559,5.414A1.213,1.213,0,0,0,154.7,123.871Z" transform="translate(-131.567 -97.265)" fill="#fff"/>
  <path id="Path_1578" data-name="Path 1578" d="M82.807,197.064a3.756,3.756,0,1,0,3.756,3.756A3.76,3.76,0,0,0,82.807,197.064Zm0,5.085a1.329,1.329,0,1,1,1.329-1.33A1.331,1.331,0,0,1,82.807,202.149Z" transform="translate(-69.072 -165.184)" fill="#fff"/>
  <path id="Path_1579" data-name="Path 1579" d="M160.247,197.064A3.756,3.756,0,1,0,164,200.82,3.76,3.76,0,0,0,160.247,197.064Zm0,5.085a1.329,1.329,0,1,1,1.329-1.33A1.331,1.331,0,0,1,160.247,202.149Z" transform="translate(-133.984 -165.184)" fill="#fff"/>
  <path id="Path_1580" data-name="Path 1580" d="M50.885,63.675a1.213,1.213,0,0,0-.96-.471H25.741L24.725,59.3a1.213,1.213,0,0,0-1.174-.908H18.578a1.213,1.213,0,1,0,0,2.427h4.035l1.006,3.87c.005.024.012.048.019.072l3.745,14.4a1.213,1.213,0,0,0,1.174.908H46.17a1.213,1.213,0,0,0,1.174-.908L51.1,64.723A1.215,1.215,0,0,0,50.885,63.675ZM45.232,77.643H29.5L26.372,65.631H48.356Z" transform="translate(-17.365 -48.945)" fill="#fff"/>
  <path id="Path_1581" data-name="Path 1581" d="M113.5,12.1a1.213,1.213,0,0,0,1.716,0l3.928-3.928a1.213,1.213,0,0,0-1.716-1.716l-1.855,1.855v-7.1A1.213,1.213,0,0,0,114.355,0h0a1.213,1.213,0,0,0-1.213,1.213V8.319l-1.855-1.855a1.213,1.213,0,0,0-1.716,1.716Z" transform="translate(-94.356 0)" fill="#fff"/>
</svg>
