<svg xmlns="http://www.w3.org/2000/svg" width="16.257" height="14.415" viewBox="0 0 16.257 14.415">
  <g id="add-to-cart" transform="translate(0 -9.446)">
    <path id="Path_1578" data-name="Path 1578" d="M80.859,197.064a1.808,1.808,0,1,0,1.808,1.808A1.81,1.81,0,0,0,80.859,197.064Zm0,2.448a.64.64,0,1,1,.64-.64A.641.641,0,0,1,80.859,199.512Z" transform="translate(-74.247 -176.819)" fill="#707070"/>
    <path id="Path_1579" data-name="Path 1579" d="M158.3,197.064a1.808,1.808,0,1,0,1.808,1.808A1.81,1.81,0,0,0,158.3,197.064Zm0,2.448a.64.64,0,1,1,.64-.64A.641.641,0,0,1,158.3,199.512Z" transform="translate(-145.657 -176.819)" fill="#707070"/>
    <path id="Path_1580" data-name="Path 1580" d="M33.5,60.935a.584.584,0,0,0-.462-.227H21.4l-.489-1.88a.584.584,0,0,0-.565-.437H17.949a.584.584,0,1,0,0,1.168h1.942l.484,1.863c0,.012.006.023.009.035l1.8,6.932a.584.584,0,0,0,.565.437h8.478a.584.584,0,0,0,.565-.437l1.807-6.95A.585.585,0,0,0,33.5,60.935Zm-2.721,6.723H23.2l-1.5-5.782H32.283Z" transform="translate(-17.365 -48.945)" fill="#707070"/>
  </g>
</svg>
