<svg xmlns="http://www.w3.org/2000/svg" width="15.208" height="19.184" viewBox="0 0 15.208 19.184">
  <g id="bell_1_" data-name="bell (1)" transform="translate(-53.056)">
    <g id="Group_1633" data-name="Group 1633" transform="translate(54.273 2.672)">
      <g id="Group_1632" data-name="Group 1632" transform="translate(0)">
        <path id="Path_1723" data-name="Path 1723" d="M91.828,71.32a6.308,6.308,0,0,0-6.3,6.3v6.692h1.3V77.621a5,5,0,0,1,9.994,0v6.692h1.3V77.621A6.308,6.308,0,0,0,91.828,71.32Z" transform="translate(-85.527 -71.32)" fill="#f5faff"/>
      </g>
    </g>
    <g id="Group_1635" data-name="Group 1635" transform="translate(53.056 15.013)">
      <g id="Group_1634" data-name="Group 1634" transform="translate(0)">
        <path id="Path_1724" data-name="Path 1724" d="M67.613,400.67h-13.9a.652.652,0,1,0,0,1.3h13.9a.652.652,0,1,0,0-1.3Z" transform="translate(-53.056 -400.67)" fill="#f5faff"/>
      </g>
    </g>
    <g id="Group_1637" data-name="Group 1637" transform="translate(58.574)">
      <g id="Group_1636" data-name="Group 1636" transform="translate(0)">
        <path id="Path_1725" data-name="Path 1725" d="M202.335,0a2,2,0,1,0,2,2A2,2,0,0,0,202.335,0Zm0,2.694a.7.7,0,1,1,.7-.7A.7.7,0,0,1,202.335,2.694Z" transform="translate(-200.336)" fill="#f5faff"/>
      </g>
    </g>
    <g id="Group_1639" data-name="Group 1639" transform="translate(58.227 15.665)">
      <g id="Group_1638" data-name="Group 1638">
        <path id="Path_1726" data-name="Path 1726" d="M194.533,418.066v1.13a1.086,1.086,0,0,1-2.173,0v-1.13h-1.3v1.13a2.39,2.39,0,0,0,4.78,0v-1.13Z" transform="translate(-191.057 -418.066)" fill="#f5faff"/>
      </g>
    </g>
  </g>
</svg>
