<svg xmlns="http://www.w3.org/2000/svg" width="42" height="42" viewBox="0 0 42 42">
  <g id="telephone" transform="translate(0 0.004)">
    <circle id="Ellipse_813" data-name="Ellipse 813" cx="21" cy="21" r="21" transform="translate(0 -0.004)" fill="#2196f3"/>
    <path id="Path_37298" data-name="Path 37298" d="M134.376,128.2a14.532,14.532,0,0,1-6.436-1.472,1.318,1.318,0,0,0-1.764.611l-.948,1.961a18.535,18.535,0,0,1-6.836-6.836l1.964-.948a1.318,1.318,0,0,0,.611-1.764,14.482,14.482,0,0,1-1.474-6.436A1.317,1.317,0,0,0,118.176,112h-4.859A1.317,1.317,0,0,0,112,113.316a22.4,22.4,0,0,0,22.376,22.376,1.317,1.317,0,0,0,1.316-1.316v-4.859a1.317,1.317,0,0,0-1.316-1.317Z" transform="translate(-102.758 -102.787)" fill="#fafafa"/>
  </g>
</svg>
