<svg width="50" height="43" viewBox="0 0 50 43" fill="none" xmlns="http://www.w3.org/2000/svg">
<path d="M43.0313 29.6715H42.7683L39.8916 22.9618C40.3793 23.1756 40.905 23.2894 41.4375 23.2965C41.6488 23.2965 41.8515 23.2125 42.001 23.0631C42.1504 22.9137 42.2344 22.711 42.2344 22.4996V16.1246C42.2344 15.9133 42.1504 15.7106 42.001 15.5611C41.8515 15.4117 41.6488 15.3278 41.4375 15.3278C40.6077 15.3323 39.7999 15.5958 39.127 16.0815C38.4542 16.5672 37.9498 17.2509 37.6842 18.0371C37.4497 17.7097 37.1505 17.434 36.8051 17.227C36.4596 17.02 36.0754 16.8862 35.6761 16.8338C35.1699 16.7685 34.6559 16.8009 34.162 16.9295H33.4688C32.122 16.9295 31.5244 16.1326 30.5841 14.8337L30.1139 14.1723C30.5961 14.1477 31.0634 13.9965 31.4686 13.734C31.7761 13.5108 32.0364 13.2291 32.2347 12.905C32.433 12.5809 32.5653 12.2208 32.6241 11.8454C32.8831 11.6962 33.1096 11.4966 33.2902 11.2585C33.4709 11.0204 33.602 10.7485 33.6759 10.4588C33.7096 10.2304 33.6873 9.99721 33.611 9.77929C33.5346 9.56137 33.4065 9.36524 33.2377 9.20775C32.9123 8.65067 32.734 8.01993 32.7197 7.37494C32.9254 7.36262 33.1184 7.27107 33.2581 7.11951C33.3977 6.96796 33.4732 6.76818 33.4688 6.56213C33.4688 5.71752 33.3011 4.88132 32.9752 4.1021C32.6494 3.32288 32.172 2.61618 31.5707 2.02304C30.9694 1.42991 30.2562 0.962172 29.4726 0.647002C28.689 0.331832 27.8506 0.175513 27.0061 0.187126C25.3488 0.219751 23.7685 0.89264 22.5964 2.06475C21.4243 3.23686 20.7514 4.81718 20.7188 6.47447C20.7038 7.31939 20.8584 8.15874 21.1731 8.94297C21.4879 9.7272 21.9566 10.4404 22.5516 11.0406C22.7279 11.2158 22.9141 11.3808 23.1094 11.5346C20.0334 12.2837 18.4158 15.1684 17.587 17.6706C17.3512 17.4329 17.0706 17.2444 16.7615 17.1158C16.4524 16.9872 16.1209 16.9212 15.7861 16.9215H7.32328C6.8983 16.9208 6.47997 17.027 6.10678 17.2303C5.73359 17.4336 5.41752 17.7275 5.18766 18.0849C5.07247 18.2625 5.03253 18.4785 5.07662 18.6855C5.1207 18.8924 5.24521 19.0734 5.42273 19.1886C5.60026 19.3038 5.81628 19.3437 6.02326 19.2996C6.23024 19.2556 6.41122 19.1311 6.52641 18.9535C6.61227 18.8205 6.73032 18.7113 6.86963 18.6361C7.00893 18.5609 7.16497 18.5221 7.32328 18.5232H8.76563V20.9138C8.76563 21.1252 8.84958 21.3279 8.99903 21.4773C9.14847 21.6268 9.35116 21.7107 9.5625 21.7107H13.5469C13.7582 21.7107 13.9609 21.6268 14.1104 21.4773C14.2598 21.3279 14.3438 21.1252 14.3438 20.9138V18.5153H15.7861C15.9106 18.5153 16.0339 18.5398 16.149 18.5874C16.264 18.6351 16.3686 18.7049 16.4566 18.793C16.5447 18.8811 16.6145 18.9856 16.6622 19.1006C16.7098 19.2157 16.7344 19.339 16.7344 19.4635V25.5437C16.7323 25.7938 16.6314 26.033 16.4538 26.2091C16.2762 26.3852 16.0362 26.484 15.7861 26.484H7.32328C7.09507 26.4903 6.87247 26.4127 6.69769 26.2658C6.5229 26.1189 6.40809 25.913 6.375 25.6871H7.96875C8.18009 25.6871 8.38278 25.6032 8.53223 25.4537C8.68167 25.3043 8.76563 25.1016 8.76563 24.8902C8.76563 24.6789 8.68167 24.4762 8.53223 24.3268C8.38278 24.1773 8.18009 24.0934 7.96875 24.0934H6.375V22.4996H7.17188C7.38322 22.4996 7.58591 22.4157 7.73535 22.2662C7.88479 22.1168 7.96875 21.9141 7.96875 21.7028C7.96875 21.4914 7.88479 21.2887 7.73535 21.1393C7.58591 20.9898 7.38322 20.9059 7.17188 20.9059H3.1875C2.97616 20.9059 2.77347 20.9898 2.62402 21.1393C2.47458 21.2887 2.39063 21.4914 2.39063 21.7028C2.39063 21.9141 2.47458 22.1168 2.62402 22.2662C2.77347 22.4157 2.97616 22.4996 3.1875 22.4996H4.78125V24.0934H1.59375C1.38241 24.0934 1.17972 24.1773 1.03027 24.3268C0.880831 24.4762 0.796875 24.6789 0.796875 24.8902C0.796875 25.1016 0.880831 25.3043 1.03027 25.4537C1.17972 25.6032 1.38241 25.6871 1.59375 25.6871H4.78125C4.81785 26.3327 5.09982 26.9398 5.56943 27.3842C6.03904 27.8286 6.66078 28.0768 7.30734 28.0777H11.2917C10.923 28.4393 10.6089 28.8528 10.3594 29.3049C9.29523 31.3918 8.7486 33.704 8.76563 36.0465C8.76563 36.2578 8.84958 36.4605 8.99903 36.61C9.14847 36.7594 9.35116 36.8434 9.5625 36.8434H12.0089C12.2128 38.3749 12.966 39.7802 14.1284 40.798C15.2907 41.8158 16.7831 42.3769 18.3281 42.3769C19.8731 42.3769 21.3655 41.8158 22.5279 40.798C23.6902 39.7802 24.4434 38.3749 24.6473 36.8434H36.712C36.8654 38.0608 37.3669 39.2082 38.1563 40.1476C38.9458 41.0871 39.9895 41.7788 41.1624 42.1396C42.3352 42.5005 43.5873 42.5152 44.7683 42.1819C45.9492 41.8487 47.009 41.1817 47.8202 40.261C48.6314 39.3403 49.1597 38.205 49.3416 36.9915C49.5235 35.778 49.3513 34.5377 48.8457 33.4196C48.34 32.3015 47.5225 31.3532 46.4911 30.6883C45.4597 30.0234 44.2584 29.6704 43.0313 29.6715ZM12.75 20.109H10.3594V18.5153H12.75V20.109ZM40.6406 17.057V21.5673C40.1737 21.403 39.7692 21.0978 39.4831 20.6939C39.197 20.2899 39.0433 19.8071 39.0433 19.3121C39.0433 18.8171 39.197 18.3343 39.4831 17.9304C39.7692 17.5264 40.1737 17.2212 40.6406 17.057ZM35.445 18.4037C35.7574 18.4504 36.0476 18.5927 36.2759 18.811C36.5042 19.0293 36.6593 19.3129 36.72 19.6229L36.9272 20.109C35.8177 20.6793 34.5799 20.9538 33.3333 20.9059C33.2235 20.4325 33.281 19.9357 33.496 19.4999C33.711 19.0641 34.0702 18.7162 34.5127 18.5153C34.8132 18.4178 35.1304 18.3825 35.445 18.4117V18.4037ZM31.5164 10.6262C31.3838 10.693 31.2725 10.7956 31.195 10.9223C31.1176 11.049 31.0771 11.1949 31.0781 11.3434C31.0722 11.544 31.0245 11.7412 30.9381 11.9223C30.8516 12.1034 30.7284 12.2645 30.5761 12.3953C30.1219 12.6981 29.2772 12.6263 28.1855 12.196C28.1272 12.1896 28.0684 12.1896 28.0102 12.196L27.8906 12.0924V9.04041C27.8906 8.59447 28.0678 8.1668 28.3831 7.85147C28.6984 7.53615 29.1261 7.359 29.572 7.359H31.0781C31.1032 8.39053 31.4271 9.39262 32.0105 10.2437C31.8663 10.3979 31.6998 10.5295 31.5164 10.6342V10.6262ZM22.3125 6.49041C22.3524 5.25401 22.8613 4.07914 23.736 3.20442C24.6108 2.3297 25.7856 1.82073 27.022 1.78088H27.0938C28.2242 1.78014 29.3183 2.17996 30.182 2.90938C31.0456 3.63879 31.6228 4.65062 31.8113 5.76525H29.572C28.7041 5.76735 27.8722 6.11309 27.2585 6.72685C26.6447 7.3406 26.299 8.17243 26.2969 9.04041V11.2796C25.1713 11.0895 24.151 10.503 23.4202 9.62605C22.6895 8.74915 22.2966 7.63974 22.3125 6.49838V6.49041ZM24.7031 12.9371C27.3089 12.9371 28.2652 14.2998 29.2772 15.7342C30.0103 16.786 30.8709 17.9335 32.3053 18.3399C31.8541 19.069 31.6501 19.9241 31.7236 20.7784C30.7345 20.5623 29.8017 20.1415 28.9851 19.5431C28.1685 18.9448 27.4862 18.182 26.9822 17.304C26.9388 17.1987 26.8733 17.1039 26.7901 17.026C26.707 16.9482 26.6081 16.889 26.5001 16.8526C26.3922 16.8162 26.2777 16.8034 26.1644 16.8149C26.051 16.8265 25.9415 16.8623 25.8432 16.9198C25.7448 16.9773 25.66 17.0552 25.5943 17.1483C25.5286 17.2414 25.4837 17.3475 25.4625 17.4594C25.4413 17.5714 25.4443 17.6865 25.4714 17.7972C25.4985 17.9078 25.549 18.0114 25.6195 18.1009C25.9084 18.5856 26.239 19.0442 26.6077 19.4715L26.5359 19.5193C25.7931 20.3737 25.2706 21.3969 25.0139 22.4996H18.3281V21.7028C18.3839 21.2167 19.2923 12.9371 24.7031 12.9371ZM18.3281 25.5357V24.0934H25.5C25.6594 24.0934 29.4844 24.1412 29.4844 28.0777V32.0621H26.2969V30.4684C26.317 29.9397 26.2277 29.4126 26.0346 28.9201C25.8415 28.4276 25.5488 27.9803 25.1747 27.6062C24.8006 27.2321 24.3533 26.9394 23.8608 26.7462C23.3682 26.5531 22.8411 26.4639 22.3125 26.484H18.1448C18.2666 26.1827 18.3288 25.8607 18.3281 25.5357ZM18.3281 40.8277C17.1991 40.8266 16.1068 40.4259 15.2448 39.6967C14.3829 38.9674 13.8068 37.9567 13.6186 36.8434H15.2522C15.4357 37.5186 15.8363 38.1147 16.3922 38.5397C16.9481 38.9647 17.6284 39.195 18.3281 39.195C19.0279 39.195 19.7082 38.9647 20.2641 38.5397C20.82 38.1147 21.2206 37.5186 21.4041 36.8434H23.0377C22.8495 37.9567 22.2734 38.9674 21.4114 39.6967C20.5494 40.4259 19.4572 40.8266 18.3281 40.8277ZM16.9575 36.8434H19.6988C19.5576 37.0812 19.3571 37.2782 19.1168 37.415C18.8764 37.5519 18.6047 37.6238 18.3281 37.6238C18.0516 37.6238 17.7798 37.5519 17.5395 37.415C17.2992 37.2782 17.0986 37.0812 16.9575 36.8434ZM10.3594 35.2496C10.461 33.4155 10.9556 31.6246 11.8097 29.9982C12.1269 29.4084 12.6002 28.9173 13.1779 28.5786C13.7556 28.2398 14.4153 28.0666 15.0848 28.0777H22.3125C22.631 28.0605 22.9495 28.1105 23.2474 28.2246C23.5452 28.3386 23.8157 28.5141 24.0413 28.7396C24.2668 28.9651 24.4423 29.2356 24.5563 29.5335C24.6704 29.8314 24.7204 30.1499 24.7031 30.4684V32.859C24.7031 33.7211 24.9827 34.5599 25.5 35.2496H10.3594ZM28.6875 35.2496C28.1943 35.2482 27.7136 35.0943 27.3112 34.809C26.9089 34.5237 26.6047 34.1209 26.4403 33.6559H30.2813C30.4893 33.6425 30.6978 33.6727 30.8935 33.7445C31.0892 33.8163 31.2678 33.9281 31.4178 34.0729C31.5678 34.2176 31.6859 34.3921 31.7647 34.5851C31.8434 34.7781 31.881 34.9855 31.875 35.1938C31.6108 35.2291 31.3447 35.2477 31.0781 35.2496H28.6875ZM33.7955 34.3173C33.6803 34.4476 33.5491 34.5627 33.405 34.6599C33.3175 34.0575 33.0476 33.4962 32.6316 33.0518C32.2156 32.6073 31.6735 32.3008 31.0781 32.1737V28.0777C31.15 26.7775 30.734 25.4973 29.9116 24.4876C29.0891 23.478 27.9195 22.8117 26.6316 22.6192C26.8358 21.9044 27.1858 21.2397 27.6595 20.6668C27.6801 20.6389 27.6988 20.6096 27.7153 20.5792C28.9522 21.5825 30.4406 22.2274 32.0184 22.4438L34.2656 32.2135C34.3918 32.9493 34.2229 33.7052 33.7955 34.3173ZM35.8594 31.8868L33.668 22.4996C35.0164 22.512 36.3487 22.2063 37.5567 21.6071L41.318 30.3727L37.8436 35.2496H35.0625C35.4122 34.7702 35.6629 34.2259 35.7997 33.6485C35.9365 33.0711 35.9568 32.4722 35.8594 31.8868ZM43.0313 35.2496H41.6606C41.836 34.9458 42.1068 34.7083 42.431 34.5741C42.7551 34.4398 43.1145 34.4163 43.4534 34.5071C43.7922 34.5979 44.0917 34.7979 44.3053 35.0763C44.5188 35.3546 44.6346 35.6957 44.6346 36.0465C44.6346 36.3973 44.5188 36.7384 44.3053 37.0167C44.0917 37.295 43.7922 37.4951 43.4534 37.5859C43.1145 37.6767 42.7551 37.6532 42.431 37.5189C42.1068 37.3847 41.836 37.1472 41.6606 36.8434H43.0313C43.2426 36.8434 43.4453 36.7594 43.5947 36.61C43.7442 36.4605 43.8281 36.2578 43.8281 36.0465C43.8281 35.8352 43.7442 35.6325 43.5947 35.483C43.4453 35.3336 43.2426 35.2496 43.0313 35.2496ZM39.7959 35.2496L40.0748 34.8592C40.0267 34.9866 39.9868 35.117 39.9553 35.2496H39.7959ZM43.0313 40.8277C41.9022 40.8266 40.8099 40.4259 39.948 39.6967C39.086 38.9674 38.5099 37.9567 38.3217 36.8434H39.9553C40.1298 37.5155 40.5191 38.1123 41.0639 38.543C41.6087 38.9736 42.2793 39.2146 42.9736 39.2291C43.6679 39.2437 44.3479 39.0312 44.9104 38.6238C45.4728 38.2164 45.8868 37.6365 46.0894 36.9722C46.292 36.308 46.2721 35.5958 46.0328 34.9438C45.7934 34.2919 45.3477 33.736 44.7635 33.3606C44.1792 32.9853 43.4883 32.811 42.7959 32.8643C42.1035 32.9175 41.4474 33.1955 40.9275 33.6559L42.6248 31.2652C42.7603 31.2652 42.8958 31.2652 43.0313 31.2652C44.2993 31.2652 45.5154 31.769 46.4121 32.6656C47.3088 33.5623 47.8125 34.7784 47.8125 36.0465C47.8125 37.3146 47.3088 38.5307 46.4121 39.4274C45.5154 40.324 44.2993 40.8277 43.0313 40.8277Z" fill="#B3062E"/>
</svg>
