<svg xmlns="http://www.w3.org/2000/svg" width="27.98" height="19.398" viewBox="0 0 27.98 19.398">
  <g id="delivery_3_" data-name="delivery (3)" transform="translate(0)">
    <g id="Group_1519" data-name="Group 1519" transform="translate(17.605 12.344)">
      <g id="Group_1518" data-name="Group 1518" transform="translate(0 0)">
        <path id="Path_1676" data-name="Path 1676" d="M325.678,304.4a3.527,3.527,0,1,0,3.527,3.527A3.531,3.531,0,0,0,325.678,304.4Zm0,5.29a1.763,1.763,0,1,1,1.763-1.763A1.765,1.765,0,0,1,325.678,309.693Z" transform="translate(-322.151 -304.403)" fill="#707070"/>
      </g>
    </g>
    <g id="Group_1521" data-name="Group 1521" transform="translate(5.555 12.344)">
      <g id="Group_1520" data-name="Group 1520" transform="translate(0 0)">
        <path id="Path_1677" data-name="Path 1677" d="M105.174,304.4a3.527,3.527,0,1,0,3.527,3.527A3.531,3.531,0,0,0,105.174,304.4Zm0,5.29a1.763,1.763,0,1,1,1.763-1.763A1.765,1.765,0,0,1,105.174,309.693Z" transform="translate(-101.647 -304.403)" fill="#707070"/>
      </g>
    </g>
    <g id="Group_1523" data-name="Group 1523" transform="translate(18.075 1.763)">
      <g id="Group_1522" data-name="Group 1522" transform="translate(0 0)">
        <path id="Path_1678" data-name="Path 1678" d="M336.188,111.276a.882.882,0,0,0-.788-.486h-4.644v1.763h4.1l2.4,4.775,1.576-.792Z" transform="translate(-330.756 -110.79)" fill="#707070"/>
      </g>
    </g>
    <g id="Group_1525" data-name="Group 1525" transform="translate(11.815 15.019)">
      <g id="Group_1524" data-name="Group 1524" transform="translate(0 0)">
        <rect id="Rectangle_421" data-name="Rectangle 421" width="6.672" height="1.763" fill="#707070"/>
      </g>
    </g>
    <g id="Group_1527" data-name="Group 1527" transform="translate(2.498 15.019)">
      <g id="Group_1526" data-name="Group 1526" transform="translate(0 0)">
        <path id="Path_1679" data-name="Path 1679" d="M49.653,353.345H46.6a.882.882,0,0,0,0,1.763h3.057a.882.882,0,1,0,0-1.763Z" transform="translate(-45.715 -353.345)" fill="#707070"/>
      </g>
    </g>
    <g id="Group_1529" data-name="Group 1529" transform="translate(2.498 0)">
      <g id="Group_1528" data-name="Group 1528" transform="translate(0 0)">
        <path id="Path_1680" data-name="Path 1680" d="M71.011,88.149l-1.734-2.234a.881.881,0,0,0-.7-.341H62.174V79.4a.882.882,0,0,0-.882-.882H46.6a.882.882,0,1,0,0,1.763H60.41v6.172a.882.882,0,0,0,.882.882h6.857l1.284,1.654v4.547H66.994a.882.882,0,0,0,0,1.763h3.321a.882.882,0,0,0,.882-.882V88.69A.883.883,0,0,0,71.011,88.149Z" transform="translate(-45.715 -78.521)" fill="#707070"/>
      </g>
    </g>
    <g id="Group_1531" data-name="Group 1531" transform="translate(1.44 10.551)">
      <g id="Group_1530" data-name="Group 1530">
        <path id="Path_1681" data-name="Path 1681" d="M31.291,271.6H27.235a.882.882,0,1,0,0,1.763h4.056a.882.882,0,0,0,0-1.763Z" transform="translate(-26.353 -271.597)" fill="#707070"/>
      </g>
    </g>
    <g id="Group_1533" data-name="Group 1533" transform="translate(0 7.083)">
      <g id="Group_1532" data-name="Group 1532" transform="translate(0 0)">
        <path id="Path_1682" data-name="Path 1682" d="M8.406,208.134H.882a.882.882,0,0,0,0,1.763H8.406a.882.882,0,0,0,0-1.763Z" transform="translate(0 -208.134)" fill="#707070"/>
      </g>
    </g>
    <g id="Group_1535" data-name="Group 1535" transform="translate(1.44 3.615)">
      <g id="Group_1534" data-name="Group 1534" transform="translate(0 0)">
        <path id="Path_1683" data-name="Path 1683" d="M34.759,144.672H27.235a.882.882,0,1,0,0,1.763h7.524a.882.882,0,1,0,0-1.763Z" transform="translate(-26.353 -144.672)" fill="#707070"/>
      </g>
    </g>
  </g>
</svg>
