<svg xmlns="http://www.w3.org/2000/svg" width="42.45" height="32" viewBox="0 0 42.45 32">
  <g id="gmail_1_" data-name="gmail (1)" transform="translate(0 0.004)">
    <rect id="Rectangle_4263" data-name="Rectangle 4263" width="31" height="32" transform="translate(6 -0.004)" fill="#eceff1"/>
    <path id="Path_37296" data-name="Path 37296" d="M256,160.919l15.919,12.57V148.672Z" transform="translate(-234.775 -141.652)" fill="#cfd8dc"/>
    <path id="Path_37297" data-name="Path 37297" d="M38.47,64H37.143L21.225,76.57,5.306,64H3.98A3.981,3.981,0,0,0,0,67.98V91.858a3.981,3.981,0,0,0,3.98,3.98H5.306V71.02L21.225,83.264,37.143,71.017v24.82H38.47a3.981,3.981,0,0,0,3.98-3.98V67.98A3.981,3.981,0,0,0,38.47,64Z" transform="translate(0 -64)" fill="#f44336"/>
  </g>
</svg>
