<svg xmlns="http://www.w3.org/2000/svg" width="18" height="18" viewBox="0 0 18 18">
  <g id="heart" transform="translate(0 -16.896)">
    <g id="Group_1621" data-name="Group 1621" transform="translate(0 16.896)">
      <path id="Path_1715" data-name="Path 1715" d="M16.528,18.588a4.686,4.686,0,0,0-7.209,0L9,18.949l-.318-.361a4.681,4.681,0,0,0-6.956-.275q-.132.132-.255.275a6.277,6.277,0,0,0,0,8.078L8.534,34.68a.612.612,0,0,0,.909.027l.025-.027,7.06-8.015A6.276,6.276,0,0,0,16.528,18.588ZM15.6,25.712h0L9,33.2l-6.6-7.486a4.8,4.8,0,0,1,0-6.172,3.458,3.458,0,0,1,5.138-.222q.107.107.207.222l.784.89a.63.63,0,0,0,.934,0l.784-.89a3.458,3.458,0,0,1,5.138-.222q.107.107.207.222A4.75,4.75,0,0,1,15.6,25.712Z" transform="translate(0 -16.896)" fill="#f5faff"/>
    </g>
  </g>
</svg>
