<svg width="40" height="40" viewBox="0 0 40 40" fill="none" xmlns="http://www.w3.org/2000/svg">
<g clip-path="url(#clip0_3223_1702)">
<path d="M19.6868 23.8066C19.4798 23.8066 19.2812 23.889 19.1349 24.0356C18.9885 24.1821 18.9062 24.3809 18.9062 24.5881C18.9062 24.7954 18.9885 24.9942 19.1349 25.1407C19.2812 25.2873 19.4798 25.3697 19.6868 25.3697C19.8938 25.3697 20.0923 25.2873 20.2387 25.1407C20.3851 24.9942 20.4673 24.7954 20.4673 24.5881C20.4673 24.3809 20.3851 24.1821 20.2387 24.0356C20.0923 23.889 19.8938 23.8066 19.6868 23.8066Z" fill="white"/>
<path d="M19.8967 16.2148C18.5283 16.2148 17.8984 17.0273 17.8984 17.5751C17.8989 17.6536 17.9151 17.7312 17.9463 17.8033C17.9774 17.8753 18.0228 17.9403 18.0797 17.9944C18.1365 18.0484 18.2037 18.0904 18.2772 18.1178C18.3507 18.1452 18.429 18.1574 18.5073 18.1537C19.0544 18.1537 18.8321 17.3723 19.8658 17.3723C20.3734 17.3723 20.7785 17.5961 20.7785 18.0623C20.7785 18.61 20.2104 18.9278 19.8757 19.2098C19.6487 19.395 19.4689 19.6314 19.3508 19.8996C19.2327 20.1679 19.1798 20.4603 19.1965 20.753C19.1965 21.281 19.3385 21.4331 19.7547 21.4331C20.2487 21.4331 20.3524 21.2093 20.3524 21.0164C20.3143 20.7725 20.3477 20.5229 20.4486 20.2977C20.5494 20.0725 20.7134 19.8814 20.9206 19.7477C21.2327 19.5392 21.4959 19.2654 21.692 18.9452C21.8882 18.6249 22.0127 18.2659 22.0568 17.8928C22.0568 16.9382 21.1947 16.2148 19.8967 16.2148Z" fill="white"/>
<path d="M20.0037 10C18.6908 9.99806 17.3904 10.2553 16.1769 10.7569C14.9633 11.2586 13.8605 11.9949 12.9314 12.9236C12.0022 13.8524 11.2651 14.9554 10.7621 16.1697C10.2591 17.3839 10.0002 18.6855 10 20L10 29.2185C10 29.3212 10.0202 29.423 10.0595 29.5179C10.0988 29.6128 10.1564 29.699 10.2291 29.7716C10.3017 29.8441 10.3879 29.9017 10.4827 29.9409C10.5775 29.9801 10.6792 30.0002 10.7818 30H20.0037C22.6526 30 25.193 28.9464 27.066 27.0711C28.9391 25.1957 29.9914 22.6522 29.9914 20C29.9914 17.3478 28.9391 14.8043 27.066 12.9289C25.193 11.0536 22.6526 10 20.0037 10ZM20.0037 28.437H11.5623V20C11.5601 18.3288 12.053 16.6945 12.9787 15.3038C13.9043 13.9132 15.2211 12.8286 16.7625 12.1874C18.3038 11.5462 20.0005 11.377 21.6379 11.7015C23.2753 12.0259 24.7798 12.8292 25.9611 14.0099C27.1424 15.1906 27.9474 16.6955 28.2743 18.3344C28.6012 19.9732 28.4353 21.6723 27.7975 23.2167C27.1598 24.7611 26.0789 26.0814 24.6916 27.0107C23.3043 27.9399 21.6728 28.4363 20.0037 28.437Z" fill="white"/>
</g>
<defs>
<clipPath id="clip0_3223_1702">
<rect width="20" height="20" fill="white" transform="translate(10 10)"/>
</clipPath>
</defs>
</svg>
