<svg id="help_1_" data-name="help (1)" xmlns="http://www.w3.org/2000/svg" width="16.194" height="16.174" viewBox="0 0 16.194 16.174">
  <g id="Group_1623" data-name="Group 1623">
    <g id="Group_1622" data-name="Group 1622">
      <path id="Path_1716" data-name="Path 1716" d="M222.291,343.22a.632.632,0,0,0,0,1.264.632.632,0,0,0,0-1.264Z" transform="translate(-214.448 -332.055)" fill="#f5faff"/>
      <path id="Path_1717" data-name="Path 1717" d="M185.639,140c-1.108,0-1.618.657-1.618,1.1a.471.471,0,0,0,.493.468c.443,0,.263-.632,1.1-.632.411,0,.739.181.739.558,0,.443-.46.7-.731.928a1.5,1.5,0,0,0-.55,1.248c0,.427.115.55.452.55.4,0,.484-.181.484-.337a1.031,1.031,0,0,1,.46-1.026,2.1,2.1,0,0,0,.92-1.5C187.388,140.585,186.69,140,185.639,140Z" transform="translate(-177.626 -134.974)" fill="#f5faff"/>
      <path id="Path_1718" data-name="Path 1718" d="M8.1,0A8.088,8.088,0,0,0,0,8.087v7.455a.632.632,0,0,0,.633.632H8.1A8.087,8.087,0,1,0,8.1,0Zm0,14.91H1.265V8.087A6.832,6.832,0,1,1,8.1,14.91Z" fill="#f5faff"/>
    </g>
  </g>
</svg>
