<svg xmlns="http://www.w3.org/2000/svg" width="19" height="17.643" viewBox="0 0 19 17.643">
  <path id="Icon_ionic-ios-star" data-name="Icon ionic-ios-star" d="M20.529,9.482H14.29l-1.9-5.658a.687.687,0,0,0-1.289,0L9.21,9.482H2.929a.681.681,0,0,0-.679.679.5.5,0,0,0,.013.115.652.652,0,0,0,.284.479l5.127,3.613L5.706,20.089a.681.681,0,0,0,.233.763.656.656,0,0,0,.382.165.831.831,0,0,0,.424-.153l5-3.567,5,3.567a.8.8,0,0,0,.424.153.609.609,0,0,0,.377-.165.672.672,0,0,0,.233-.763l-1.968-5.721,5.085-3.647.123-.106a.711.711,0,0,0,.221-.454A.718.718,0,0,0,20.529,9.482Z" transform="translate(-2.25 -3.375)" fill="rgba(219,212,48,0.98)"/>
</svg>
