<svg xmlns="http://www.w3.org/2000/svg" width="15.851" height="21.048" viewBox="0 0 15.851 21.048">
  <path id="Icon_awesome-building" data-name="Icon awesome-building" d="M15.426,19.732h-.708V.987A.926.926,0,0,0,13.869,0H1.981a.926.926,0,0,0-.849.987V19.732H.425A.463.463,0,0,0,0,20.226v.822H15.851v-.822A.463.463,0,0,0,15.426,19.732ZM4.529,3.124a.463.463,0,0,1,.425-.493H6.369a.463.463,0,0,1,.425.493V4.769a.463.463,0,0,1-.425.493H4.953a.463.463,0,0,1-.425-.493Zm0,3.946a.463.463,0,0,1,.425-.493H6.369a.463.463,0,0,1,.425.493V8.715a.463.463,0,0,1-.425.493H4.953a.463.463,0,0,1-.425-.493Zm1.84,6.084H4.953a.463.463,0,0,1-.425-.493V11.017a.463.463,0,0,1,.425-.493H6.369a.463.463,0,0,1,.425.493v1.644A.463.463,0,0,1,6.369,13.155Zm2.689,6.577H6.793V16.279a.463.463,0,0,1,.425-.493H8.633a.463.463,0,0,1,.425.493Zm2.264-7.071a.463.463,0,0,1-.425.493H9.482a.463.463,0,0,1-.425-.493V11.017a.463.463,0,0,1,.425-.493H10.9a.463.463,0,0,1,.425.493Zm0-3.946a.463.463,0,0,1-.425.493H9.482a.463.463,0,0,1-.425-.493V7.071a.463.463,0,0,1,.425-.493H10.9a.463.463,0,0,1,.425.493Zm0-3.946a.463.463,0,0,1-.425.493H9.482a.463.463,0,0,1-.425-.493V3.124a.463.463,0,0,1,.425-.493H10.9a.463.463,0,0,1,.425.493Z" fill="#707070"/>
</svg>
