<svg xmlns="http://www.w3.org/2000/svg" width="43.881" height="43.881" viewBox="0 0 43.881 43.881">
  <g id="Layer_2" data-name="Layer 2" transform="translate(0 0)">
    <g id="Capa_1" data-name="Capa 1" transform="translate(0 0)">
      <path id="Path_37" data-name="Path 37" d="M40.024,10.37H21.169L18.018.88A1.286,1.286,0,0,0,16.8,0H3.857A3.861,3.861,0,0,0,0,3.857v25.8A3.861,3.861,0,0,0,3.857,33.51H18.024l3.128,9.464a1.291,1.291,0,0,0,1.228.906H40.024a3.861,3.861,0,0,0,3.857-3.857v-25.8a3.861,3.861,0,0,0-3.857-3.857ZM3.857,30.939a1.286,1.286,0,0,1-1.286-1.286V3.857A1.286,1.286,0,0,1,3.857,2.571H15.871L25.3,30.939ZM25.088,33.51l-2.52,5.557L20.731,33.51ZM41.31,40.024a1.286,1.286,0,0,1-1.286,1.286H24.375l3.878-8.554a1.294,1.294,0,0,0,.049-.937L22.026,12.941h18a1.286,1.286,0,0,1,1.286,1.286Z" transform="translate(0)" fill="#fff"/>
      <path id="Path_38" data-name="Path 38" d="M79.647,124.566H75.019q-.227.764-.486,1.589t-.415,1.362a3.8,3.8,0,0,1-.444.145,2.385,2.385,0,0,1-.589.062,1.867,1.867,0,0,1-1.094-.279.916.916,0,0,1-.392-.794,1.669,1.669,0,0,1,.072-.486q.072-.237.171-.547.165-.577.444-1.394t.6-1.776q.32-.959.692-1.981t.711-1.981q.343-.96.661-1.8t.548-1.435a3.975,3.975,0,0,1,.794-.289,4.017,4.017,0,0,1,1.064-.145,3.868,3.868,0,0,1,1.321.217,1.155,1.155,0,0,1,.764.692q.413,1.136.908,2.612t1,3.045q.506,1.568.98,3.076t.847,2.7a1.607,1.607,0,0,1-.568.381,2.154,2.154,0,0,1-.857.155,1.577,1.577,0,0,1-1.022-.257,1.685,1.685,0,0,1-.465-.816Zm-2.314-7.391q-.186.514-.4,1.156t-.454,1.331q-.237.693-.485,1.4t-.473,1.394H79.11l-1.672-5.285Z" transform="translate(-65.462 -104.977)" fill="#fff"/>
      <path id="Path_39" data-name="Path 39" d="M343.374,229.764a3.772,3.772,0,0,0-1.08-1.28,5.464,5.464,0,0,0-1.758-.867,8.246,8.246,0,0,0-2.386-.316,7.085,7.085,0,0,0-2.284.343,5.556,5.556,0,0,0-1.687.891,3.831,3.831,0,0,0-1.055,1.274,3.281,3.281,0,0,0-.363,1.477v6.377a1.141,1.141,0,0,0,1.14,1.139h8.7a1.14,1.14,0,0,0,1.139-1.139v-6.377a3.373,3.373,0,0,0-.363-1.521Zm-2.084,7.3a.367.367,0,0,1-.368.367h-3.816a11.336,11.336,0,0,0,1.543-1.418,7.419,7.419,0,0,0,1.364-2.057,5.908,5.908,0,0,0,.364-1.184,5.735,5.735,0,0,0,.117-1.069,3.685,3.685,0,0,0-.621-2.114,4.227,4.227,0,0,0-.494-.6.086.086,0,0,1-.014-.1.069.069,0,0,1,.086-.035h.012a2.762,2.762,0,0,1,.943.467,2.294,2.294,0,0,1,.642.793,2.626,2.626,0,0,1,.24,1.176Zm-6.085-5.778a3,3,0,0,1,.3-1.462,1.553,1.553,0,0,1,.736-.7.967.967,0,0,1,.586.116,1.714,1.714,0,0,1,.564.514,2.78,2.78,0,0,1,.4.866,4.224,4.224,0,0,1,.146,1.127,6.177,6.177,0,0,1-.692,2.669,7.433,7.433,0,0,1-2.038,2.437Z" transform="translate(-304.241 -207.819)" fill="#fff"/>
    </g>
  </g>
</svg>
