<svg width="40" height="40" viewBox="0 0 40 40" fill="none" xmlns="http://www.w3.org/2000/svg">
<g clip-path="url(#clip0_3223_1704)">
<path d="M19.9093 12.7852C18.1521 12.7874 16.4676 13.4801 15.225 14.7113C13.9825 15.9426 13.2835 17.6119 13.2812 19.3531V26.3298H14.649V19.3542C14.6962 18.0038 15.2707 16.7243 16.2515 15.7855C17.2323 14.8467 18.5426 14.322 19.9062 14.322C21.2698 14.322 22.5801 14.8467 23.5609 15.7855C24.5416 16.7243 25.1162 18.0038 25.1634 19.3542V26.3308H26.5311V19.3542C26.5292 17.6138 25.8311 15.9452 24.5899 14.7139C23.3487 13.4826 21.6656 12.789 19.9093 12.7852Z" fill="white"/>
<path d="M27.3147 25.6525H12.6908C12.5965 25.6451 12.5017 25.6572 12.4123 25.6879C12.3229 25.7186 12.2409 25.7674 12.1714 25.831C12.102 25.8947 12.0466 25.9719 12.0086 26.0577C11.9707 26.1436 11.9512 26.2364 11.9512 26.3301C11.9512 26.4239 11.9707 26.5166 12.0086 26.6025C12.0466 26.6884 12.102 26.7656 12.1714 26.8292C12.2409 26.8929 12.3229 26.9416 12.4123 26.9723C12.5017 27.003 12.5965 27.0151 12.6908 27.0078H27.3147C27.409 27.0151 27.5038 27.003 27.5932 26.9723C27.6826 26.9416 27.7646 26.8929 27.8341 26.8292C27.9035 26.7656 27.959 26.6884 27.9969 26.6025C28.0348 26.5166 28.0543 26.4239 28.0543 26.3301C28.0543 26.2364 28.0348 26.1436 27.9969 26.0577C27.959 25.9719 27.9035 25.8947 27.8341 25.831C27.7646 25.7674 27.6826 25.7186 27.5932 25.6879C27.5038 25.6572 27.409 25.6451 27.3147 25.6525Z" fill="white"/>
<path d="M19.9079 10C19.4917 10 19.0849 10.1223 18.7389 10.3514C18.3928 10.5805 18.1231 10.9062 17.9639 11.2871C17.8046 11.6681 17.763 12.0874 17.8441 12.4918C17.9253 12.8963 18.1257 13.2678 18.42 13.5594C18.7143 13.851 19.0892 14.0496 19.4974 14.1301C19.9055 14.2105 20.3286 14.1692 20.7131 14.0114C21.0976 13.8536 21.4262 13.5864 21.6574 13.2435C21.8886 12.9006 22.012 12.4975 22.012 12.0851C22.012 11.5321 21.7903 11.0017 21.3957 10.6107C21.0011 10.2197 20.4659 10 19.9079 10ZM19.9079 12.8086C19.7622 12.8086 19.6198 12.7658 19.4987 12.6856C19.3776 12.6054 19.2832 12.4914 19.2275 12.3581C19.1717 12.2247 19.1572 12.078 19.1856 11.9364C19.214 11.7949 19.2841 11.6648 19.3871 11.5628C19.4901 11.4607 19.6213 11.3912 19.7642 11.3631C19.9071 11.3349 20.0551 11.3494 20.1897 11.4046C20.3243 11.4598 20.4393 11.5534 20.5202 11.6734C20.6011 11.7934 20.6443 11.9345 20.6443 12.0788C20.6443 12.2724 20.5667 12.458 20.4286 12.5948C20.2905 12.7317 20.1032 12.8086 19.9079 12.8086Z" fill="white"/>
<path d="M21.0972 26.332V27.5101C21.0972 27.8105 20.9768 28.0986 20.7624 28.311C20.5481 28.5235 20.2573 28.6428 19.9541 28.6428C19.651 28.6428 19.3602 28.5235 19.1459 28.311C18.9315 28.0986 18.8111 27.8105 18.8111 27.5101V26.332H17.4434V27.5101C17.4434 28.1709 17.7083 28.8047 18.1798 29.272C18.6514 29.7392 19.2909 30.0017 19.9578 30.0017C20.6247 30.0017 21.2643 29.7392 21.7358 29.272C22.2074 28.8047 22.4723 28.1709 22.4723 27.5101V26.332H21.0972Z" fill="white"/>
</g>
<defs>
<clipPath id="clip0_3223_1704">
<rect width="16" height="20" fill="white" transform="translate(12 10)"/>
</clipPath>
</defs>
</svg>
