<svg width="1570" height="1570" viewBox="0 0 1570 1570" fill="none" xmlns="http://www.w3.org/2000/svg">
<g clip-path="url(#clip0_3243_1772)">
<mask id="mask0_3243_1772" style="mask-type:luminance" maskUnits="userSpaceOnUse" x="0" y="0" width="1570" height="1570">
<path d="M0 0H1570V1570H0V0Z" fill="white"/>
</mask>
<g mask="url(#mask0_3243_1772)">
<path fill-rule="evenodd" clip-rule="evenodd" d="M328.105 171.719C328.105 136.155 356.936 107.324 392.5 107.324H453.828C489.392 107.324 518.223 136.155 518.223 171.719V229.98H1051.78V171.719C1051.78 136.155 1080.61 107.324 1116.17 107.324H1177.5C1213.06 107.324 1241.89 136.155 1241.89 171.719V229.98H1306.29C1392.66 229.98 1462.68 299.997 1462.68 386.367V1306.29C1462.68 1392.66 1392.66 1462.68 1306.29 1462.68H263.711C177.341 1462.68 107.324 1392.66 107.324 1306.29V386.367C107.324 299.997 177.341 229.98 263.711 229.98H328.105V171.719ZM1241.89 297.441V355.703C1241.89 391.267 1213.06 420.098 1177.5 420.098H1116.17C1080.61 420.098 1051.78 391.267 1051.78 355.703V297.441H518.223V355.703C518.223 391.267 489.392 420.098 453.828 420.098H392.5C356.936 420.098 328.105 391.267 328.105 355.703V297.441H263.711C214.598 297.441 174.785 337.256 174.785 386.367V450.762H1395.21V386.367C1395.21 337.256 1355.4 297.441 1306.29 297.441H1241.89ZM395.566 174.785V352.637H450.762V174.785H395.566ZM174.785 518.223V1306.29C174.785 1355.4 214.598 1395.21 263.711 1395.21H1306.29C1355.4 1395.21 1395.21 1355.4 1395.21 1306.29V518.223H174.785ZM1119.24 352.637V174.785H1174.43V352.637H1119.24Z" fill="#989898"/>
<path fill-rule="evenodd" clip-rule="evenodd" d="M1049.53 739.478C1085.46 775.404 1085.46 833.65 1049.53 869.576L958.464 960.642L1049.53 1051.71C1085.46 1087.63 1085.46 1145.88 1049.53 1181.81L1006.16 1225.17C970.239 1261.1 911.992 1261.1 876.066 1225.17L785 1134.11L693.934 1225.17C658.008 1261.1 599.762 1261.1 563.835 1225.17L520.47 1181.81C484.544 1145.88 484.544 1087.63 520.47 1051.71L611.537 960.642L520.47 869.576C484.544 833.65 484.544 775.404 520.47 739.478L563.835 696.112C599.762 660.186 658.008 660.186 693.931 696.112L785 787.182L876.069 696.112C911.992 660.186 970.239 660.186 1006.16 696.112L1049.53 739.478ZM1001.83 787.182C1011.41 796.761 1011.41 812.292 1001.83 821.872L880.405 943.296C870.826 952.878 870.826 968.409 880.405 977.989L1001.83 1099.41C1011.41 1108.99 1011.41 1124.53 1001.83 1134.11L958.464 1177.47C948.881 1187.05 933.35 1187.05 923.77 1177.47L802.347 1056.05C792.767 1046.47 777.233 1046.47 767.653 1056.05L646.23 1177.47C636.65 1187.05 621.119 1187.05 611.537 1177.47L568.171 1134.11C558.592 1124.53 558.592 1108.99 568.171 1099.41L689.595 977.989C699.174 968.409 699.174 952.878 689.595 943.296L568.171 821.872C558.592 812.292 558.592 796.761 568.171 787.182L611.537 743.817C621.119 734.234 636.65 734.234 646.23 743.817L767.653 865.24C777.233 874.82 792.767 874.82 802.347 865.24L923.77 743.817C933.35 734.234 948.881 734.234 958.464 743.817L1001.83 787.182Z" fill="#989898"/>
</g>
</g>
<defs>
<clipPath id="clip0_3243_1772">
<rect width="1570" height="1570" fill="white"/>
</clipPath>
</defs>
</svg>
