<svg xmlns="http://www.w3.org/2000/svg" viewBox="0 0 270.83 312.45"><defs><style>.cls-1{font-size:34px;font-family:ProductSans-Black, Product Sans Black;font-weight:800;}.cls-1,.cls-2{fill:#f37630;}.cls-3{fill:#63bb46;}</style></defs><g id="Layer_2" data-name="Layer 2"><g id="Layer_1-2" data-name="Layer 1"><text class="cls-1" transform="translate(221.91 302.04)">.qa</text><path class="cls-2" d="M23,274.63a22.16,22.16,0,0,1-8.91-1.83A23.43,23.43,0,0,1,1.83,260.59,21.7,21.7,0,0,1,0,251.72a22,22,0,0,1,1.83-8.91,23.22,23.22,0,0,1,12.25-12.25A22,22,0,0,1,23,228.73a21.7,21.7,0,0,1,8.87,1.83,23.43,23.43,0,0,1,12.21,12.25,22,22,0,0,1,1.83,8.91,21.7,21.7,0,0,1-1.83,8.87A23.63,23.63,0,0,1,31.86,272.8,21.87,21.87,0,0,1,23,274.63Zm0-38a14.25,14.25,0,0,0-5.83,1.2,15.59,15.59,0,0,0-8,8,14.7,14.7,0,0,0,0,11.68,15.42,15.42,0,0,0,3.25,4.76,14.93,14.93,0,0,0,4.77,3.22A14.72,14.72,0,0,0,23,266.69a14.77,14.77,0,0,0,5.84-1.15,15.07,15.07,0,0,0,8-8A14.78,14.78,0,0,0,38,251.72a14.34,14.34,0,0,0-1.21-5.84,16,16,0,0,0-3.21-4.76,14.93,14.93,0,0,0-4.76-3.26A14.45,14.45,0,0,0,23,236.66Z"/><path class="cls-2" d="M64.52,231.4a16.45,16.45,0,0,1,9-2.67A16.22,16.22,0,0,1,79.94,230a16.6,16.6,0,0,1,8.87,8.87,16.22,16.22,0,0,1,1.29,6.42V270.7a3.81,3.81,0,0,1-1.16,2.77,3.77,3.77,0,0,1-2.76,1.16,3.88,3.88,0,0,1-2.85-1.16,3.77,3.77,0,0,1-1.16-2.77V245.31A8.32,8.32,0,0,0,81.5,242a8.81,8.81,0,0,0-1.87-2.76,8.69,8.69,0,0,0-2.77-1.87,8.27,8.27,0,0,0-3.34-.67,8.6,8.6,0,0,0-3.38.67,8.17,8.17,0,0,0-2.77,1.87A9,9,0,0,0,65.55,242a8.32,8.32,0,0,0-.67,3.35,2.81,2.81,0,0,1-.18.8V270.7a3.81,3.81,0,0,1-1.16,2.77,3.77,3.77,0,0,1-2.76,1.16,3.88,3.88,0,0,1-2.85-1.16,3.77,3.77,0,0,1-1.16-2.77V232.12a3.95,3.95,0,0,1,4-4A3.45,3.45,0,0,1,64.52,231.4Z"/><path class="cls-3" d="M141,274.63a3.92,3.92,0,0,1-2.86-1.16A3.8,3.8,0,0,1,137,270.7V269a23.52,23.52,0,0,1-7,4.14,22.54,22.54,0,0,1-16.93-.35,23.43,23.43,0,0,1-12.25-12.21A21.7,21.7,0,0,1,99,251.72a22,22,0,0,1,1.83-8.91,23.22,23.22,0,0,1,12.25-12.25A22.61,22.61,0,0,1,130,230.2a23.73,23.73,0,0,1,7,4.14v-1.69a3.76,3.76,0,0,1,1.15-2.76,3.92,3.92,0,0,1,2.86-1.16,4,4,0,0,1,3.92,3.92v38a3.81,3.81,0,0,1-1.16,2.77A3.77,3.77,0,0,1,141,274.63Zm-19-38a14.25,14.25,0,0,0-5.83,1.2,15.59,15.59,0,0,0-8,8,14.7,14.7,0,0,0,0,11.68,15.42,15.42,0,0,0,3.25,4.76,14.93,14.93,0,0,0,4.77,3.22,15.38,15.38,0,0,0,11.67,0,15.07,15.07,0,0,0,8-8,15.28,15.28,0,0,0,0-11.68,15.25,15.25,0,0,0-3.21-4.76,15.79,15.79,0,0,0-4.77-3.26A14.29,14.29,0,0,0,122,236.66Z"/><path class="cls-2" d="M165,222.67a5.33,5.33,0,0,1-5.26-5.26,4.86,4.86,0,0,1,1.56-3.7,5.44,5.44,0,0,1,7.44,0,4.94,4.94,0,0,1,1.52,3.7,5.33,5.33,0,0,1-5.26,5.26Zm0,52A4,4,0,0,1,161,270.7v-38a3.73,3.73,0,0,1,1.16-2.76,3.77,3.77,0,0,1,2.76-1.16,4,4,0,0,1,2.81,1.16,3.7,3.7,0,0,1,1.2,2.76v38a3.74,3.74,0,0,1-1.2,2.77A4,4,0,0,1,165,274.63Z"/><path class="cls-3" d="M215.94,274.63H183.05a4,4,0,0,1-3.92-3.93,3.87,3.87,0,0,1,1-2.58l27.18-31.46H183.05a3.77,3.77,0,0,1-2.76-1.16,3.73,3.73,0,0,1-1.16-2.76,3.84,3.84,0,0,1,1.16-2.85,3.77,3.77,0,0,1,2.76-1.16h32.89a3.91,3.91,0,0,1,2.85,1.16,3.77,3.77,0,0,1,1.16,2.76,4,4,0,0,1-1,2.67l-27.19,31.37h24.16a4,4,0,0,1,4,4,3.81,3.81,0,0,1-1.16,2.77A3.91,3.91,0,0,1,215.94,274.63Z"/><path class="cls-2" d="M266.91,274.63a3.88,3.88,0,0,1-2.85-1.16,3.81,3.81,0,0,1-1.16-2.77V269a23.47,23.47,0,0,1-6.95,4.14A22.54,22.54,0,0,1,239,272.8a23.32,23.32,0,0,1-7.31-4.95,23.74,23.74,0,0,1-5-7.26,21.7,21.7,0,0,1-1.83-8.87,22,22,0,0,1,1.83-8.91,23.61,23.61,0,0,1,5-7.31,23.29,23.29,0,0,1,7.31-4.94,22,22,0,0,1,8.91-1.83,22.23,22.23,0,0,1,8,1.47,23.68,23.68,0,0,1,6.95,4.14v-1.69a3.77,3.77,0,0,1,1.16-2.76,3.88,3.88,0,0,1,2.85-1.16,3.77,3.77,0,0,1,2.76,1.16,3.73,3.73,0,0,1,1.16,2.76v38a4,4,0,0,1-3.92,3.93Zm-19-38a14.29,14.29,0,0,0-5.84,1.2,15.59,15.59,0,0,0-8,8,14.81,14.81,0,0,0,0,11.68,15.59,15.59,0,0,0,3.25,4.76,15.15,15.15,0,0,0,4.77,3.22,15.4,15.4,0,0,0,11.68,0,15,15,0,0,0,4.76-3.22,15,15,0,0,0,0-21.2,15.62,15.62,0,0,0-4.76-3.26A14.33,14.33,0,0,0,247.93,236.66Z"/><path class="cls-2" d="M135.32,134.79c-1.39,0-2.79,0-4.2-.13A65.21,65.21,0,0,1,121.05,5.93a11.76,11.76,0,0,1,14.21,11.55h0A11.92,11.92,0,0,1,125.84,29,41.65,41.65,0,0,0,93.75,72.24c1.27,20.51,18.33,37.57,38.84,38.84a41.31,41.31,0,0,0,30.92-11,43.06,43.06,0,0,0,13.35-31.68V36.19A38.83,38.83,0,0,1,199.14,1.1a11.64,11.64,0,0,1,16.5,10.61h0a11.86,11.86,0,0,1-6.49,10.79,15.18,15.18,0,0,0-8.67,13.69v32.1c0,18.62-7.38,36.69-21.09,49.3A64.56,64.56,0,0,1,135.32,134.79Z"/><circle class="cls-3" cx="114.02" cy="153.11" r="11.85"/><circle class="cls-3" cx="159" cy="153.11" r="11.85"/></g></g></svg>